<?xml version="1.0" encoding="UTF-8" standalone="no"?>
<!-- Created with Inkscape (http://www.inkscape.org/) -->

<svg
   xmlns:dc="http://purl.org/dc/elements/1.1/"
   xmlns:cc="http://creativecommons.org/ns#"
   xmlns:rdf="http://www.w3.org/1999/02/22-rdf-syntax-ns#"
   xmlns:svg="http://www.w3.org/2000/svg"
   xmlns="http://www.w3.org/2000/svg"
   xmlns:sodipodi="http://sodipodi.sourceforge.net/DTD/sodipodi-0.dtd"
   xmlns:inkscape="http://www.inkscape.org/namespaces/inkscape"
   width="265.28888mm"
   height="265.28888mm"
   viewBox="0 0 939.99997 939.99996"
   id="svg2"
   version="1.1"
   inkscape:version="0.91 r13725"
   sodipodi:docname="logo_RM.svg">
  <defs
     id="defs4" />
  <sodipodi:namedview
     id="base"
     pagecolor="#ffffff"
     bordercolor="#666666"
     borderopacity="1.0"
     inkscape:pageopacity="0.0"
     inkscape:pageshadow="2"
     inkscape:zoom="0.7"
     inkscape:cx="241.41426"
     inkscape:cy="430.47969"
     inkscape:document-units="px"
     inkscape:current-layer="layer1"
     showgrid="false"
     fit-margin-top="0"
     fit-margin-left="0"
     fit-margin-right="0"
     fit-margin-bottom="0"
     inkscape:window-width="1926"
     inkscape:window-height="1159"
     inkscape:window-x="0"
     inkscape:window-y="1"
     inkscape:window-maximized="0" />
  <metadata
     id="metadata7">
    <rdf:RDF>
      <cc:Work
         rdf:about="">
        <dc:format>image/svg+xml</dc:format>
        <dc:type
           rdf:resource="http://purl.org/dc/dcmitype/StillImage" />
        <dc:title></dc:title>
      </cc:Work>
    </rdf:RDF>
  </metadata>
  <g
     inkscape:label="Layer 1"
     inkscape:groupmode="layer"
     id="layer1"
     transform="translate(-732.85712,-399.50507)">
    <g
       id="g4213">
      <path
         style="fill:#001f49;fill-opacity:1"
         d="m 1000.3571,1314.6205 c -4.98313,-1.297 -8.96179,-3.7773 -12.70444,-7.92 -3.4123,-3.777 -6.59561,-10.7287 -5.4414,-11.8829 0.30442,-0.3044 2.71176,-0.9557 5.34967,-1.4473 2.6379,-0.4916 5.54304,-1.1298 6.45586,-1.4183 1.21446,-0.3837 1.97006,0.4161 2.81675,2.9816 3.61086,10.941 19.02356,11.3903 19.02356,0.5546 0,-5.3376 -2.496,-7.8076 -14.993,-14.8366 -13.37249,-7.5213 -16.26796,-10.8814 -16.81778,-19.5161 -0.85689,-13.4573 6.82105,-20.6304 22.08238,-20.6304 11.896,0 21.0047,5.9011 23.2248,15.0462 0.5777,2.3796 0.2708,2.6344 -4.6891,3.8925 -2.919,0.7404 -5.7635,1.5144 -6.3211,1.7201 -0.5576,0.2056 -1.8846,-1.2433 -2.9491,-3.2197 -4.203,-7.8046 -13.5328,-8.6921 -16.48367,-1.5681 -0.9658,2.3317 -0.96033,3.4366 0.0262,5.2882 1.69317,3.1781 3.16227,4.2478 12.24617,8.9169 14.8347,7.625 20.5213,15.4274 19.3705,26.5775 -0.7096,6.8759 -4.2505,11.8333 -10.7473,15.0471 -4.8828,2.4153 -14.7431,3.6395 -19.449,2.4147 z m 347.4506,-0.4181 c -13.372,-3.7807 -20.4252,-14.2804 -21.612,-32.1724 -1.3518,-20.3797 5.9486,-35.7799 19.0285,-40.1407 7.5073,-2.503 19.9375,-1.5679 25.9431,1.9517 9.7457,5.7114 14.1898,16.2546 14.1898,33.6641 0,13.3995 -1.7782,20.5513 -6.7587,27.1835 -6.1767,8.225 -20.1158,12.5319 -30.7907,9.5138 z m 14.3644,-6.7678 c 5.7093,-1.5854 11.2723,-7.7092 13.2997,-14.6402 2.2332,-7.6349 2.1967,-24.0363 -0.067,-30.2893 -3.8397,-10.6046 -10.2019,-15.4985 -19.965,-15.3573 -6.0988,0.088 -10.1895,2.0069 -14.3281,6.7204 -4.7522,5.4125 -5.7543,9.6159 -5.7543,24.1369 0,12.2267 0.1673,13.3406 2.8118,18.7258 4.8662,9.9097 13.3073,13.6738 24.0031,10.7037 z m 122.4195,7.0409 c -9.7553,-2.4499 -16.0805,-8.1522 -19.9334,-17.9704 -2.9465,-7.5083 -3.2219,-27.7021 -0.491,-36 4.4098,-13.3994 13.2244,-20 26.7081,-20 9.5094,0 15.4857,1.9811 20.4495,6.7789 11.175,10.8013 13.8999,36.6451 5.5977,53.0915 -4.5981,9.1088 -11.8674,13.7605 -22.8215,14.6036 -3.1591,0.2432 -7.4384,0.016 -9.5094,-0.5036 z m 18.417,-9.4552 c 2.3678,-1.5648 4.6515,-4.4527 6.4959,-8.2142 2.5019,-5.1028 2.8874,-7.1412 3.2027,-16.9364 0.4251,-13.2038 -1.2706,-20.4961 -6.0252,-25.9113 -4.3571,-4.9625 -8.3545,-6.7755 -14.9526,-6.7815 -15.3417,-0.014 -23.7341,15.2565 -20.8568,37.9506 1.5398,12.1447 6.566,19.825 14.6695,22.4158 4.5483,1.4541 13.3786,0.1786 17.4665,-2.523 z m -742.48481,8.8181 c -0.36667,-0.3667 -0.66667,-16.7917 -0.66667,-36.5 l 0,-35.8333 14.82186,0 c 17.5542,0 22.32824,1.21 27.54145,6.9804 4.23798,4.6909 6.10658,12.1976 4.78916,19.2395 -1.10207,5.8908 -3.3367,9.3662 -7.66392,11.9193 l -3.36423,1.985 1.83446,4.1879 c 1.00895,2.3033 4.13098,9.3425 6.93784,15.6427 2.80686,6.3001 5.10338,11.8316 5.10338,12.2921 0,0.4604 -3.46627,0.7058 -7.70282,0.5451 l -7.70283,-0.292 -6.12508,-14.5 -6.12509,-14.5 -3.67209,-0.3104 -3.67209,-0.3104 0,15.0604 0,15.0604 -6.83333,0 c -3.75834,0 -7.13334,-0.3 -7.5,-0.6667 z m 27.71869,-42.463 c 3.21598,-1.4653 5.02648,-5.945 4.2748,-10.5771 -0.92907,-5.7252 -3.54119,-7.6272 -11.13921,-8.111 l -6.52095,-0.4152 0,10.1165 0,10.1165 5.45295,0 c 2.99912,0 6.5687,-0.5084 7.93241,-1.1297 z m 31.30142,42.4831 c -0.37773,-0.3777 -0.68678,-16.8118 -0.68678,-36.5201 l 0,-35.8333 20.5,0 20.5,0 0,6 0,6 -13,0 -13,0 0,8.5 0,8.5 9.5,0 9.5,0 0,6 0,6 -9.5,0 -9.5,0 0,9.4709 0,9.471 13.25,0.279 13.25,0.2791 0,6 0,6 -20.06322,0.2701 c -11.03477,0.1485 -20.37228,-0.039 -20.75,-0.4167 z m 53.97989,-0.02 c -0.36667,-0.3667 -0.66667,-16.7917 -0.66667,-36.5 l 0,-35.8333 7.5,0 7.5,0 0,36.5 0,36.5 -6.83333,0 c -3.75834,0 -7.13334,-0.3 -7.5,-0.6667 z m 29.33333,-35.8333 0,-36.5 10.34311,0 10.34312,0 2.22368,8.25 c 7.53052,27.9387 10.47953,37.7535 11.13163,37.048 0.40571,-0.4389 2.83788,-8.448 5.40481,-17.798 2.56693,-9.35 5.34854,-19.3625 6.18136,-22.25 l 1.51421,-5.25 10.44151,0 10.44152,0 -0.26248,36.25 -0.26247,36.25 -6.25,0.2977 -6.25,0.2977 -0.0789,-27.7977 c -0.0435,-15.2888 -0.35591,-27.1227 -0.69437,-26.2977 -0.33845,0.825 -3.81235,13.2 -7.71976,27.5 l -7.10439,26 -5.50096,0.2939 -5.50096,0.2939 -7.38866,-27.0439 c -4.06376,-14.8742 -7.75391,-27.0439 -8.20033,-27.0439 -0.44642,0 -0.81167,12.15 -0.81167,27 l 0,27 -6,0 -6,0 0,-36.5 z m 145.99998,-0.046 0,-36.5457 6.6584,0.2957 6.6584,0.2957 9.3568,28.4318 c 5.1462,15.6375 9.5395,28.6146 9.7629,28.8379 0.2233,0.2234 4.623,-12.571 9.777,-28.4318 l 9.3711,-28.8379 6.7077,-0.2957 6.7077,-0.2957 0,36.5457 0,36.5457 -3.5,0 -3.5,0 0,-32 c 0,-17.6 -0.3491,-32 -0.7758,-32 -0.7765,0 -5.1828,12.9716 -15.7105,46.25 l -5.6153,17.75 -3.262,0 -3.2621,0 -9.3265,-28.75 c -5.1295,-15.8125 -9.7349,-30.2125 -10.2341,-32 -2.2331,-7.9958 -2.8137,-2.0633 -2.8137,28.75 l 0,32 -3.5,0 -3.5,0 0,-36.5457 z m 88.6667,35.879 c -0.3667,-0.3667 -0.6667,-16.7917 -0.6667,-36.5 l 0,-35.8333 23,0 23,0 0,3 0,3 -18.5,0 -18.5,0 0,12.5 0,12.5 13,0 13,0 0,3.5 0,3.5 -13,0 -13,0 0,14 0,14 19.5,0 19.5,0 0,3.5 0,3.5 -23.3333,0 c -12.8333,0 -23.6333,-0.3 -24,-0.6667 z m 78.3333,-32.8333 0,-33.5 -11.5,0 -11.5,0 0,-3 0,-3 27,0 27,0 0,2.9672 0,2.9673 -11.25,0.2827 -11.25,0.2828 -0.2635,33.25 -0.2634,33.25 -3.9866,0 -3.9865,0 0,-33.5 z m 44.6667,32.8333 c -0.3667,-0.3667 -0.6667,-16.7917 -0.6667,-36.5 l 0,-35.8333 16.8219,0 c 19.3754,0 24.3141,1.1129 29.0935,6.5564 2.746,3.1275 5.0735,8.836 5.0735,12.4436 0,6.6462 -5.6404,15.0213 -11.5574,17.1609 -1.8873,0.6825 -3.4315,1.5644 -3.4315,1.9599 0,0.3954 3.375,8.0207 7.5,16.9451 4.125,8.9243 7.5,16.6104 7.5,17.0801 0,0.4697 -1.9296,0.854 -4.2879,0.854 l -4.288,0 -7.8364,-17 -7.8364,-17 -8.8757,0 -8.8756,0 0,17 0,17 -3.8333,0 c -2.1083,0 -4.1334,-0.3 -4.5,-0.6667 z m 34.6797,-41.8275 c 4.5104,-2.1403 6.6536,-5.9199 6.6536,-11.7337 0,-8.8715 -4.875,-11.6842 -21.6867,-12.5122 l -11.3133,-0.5571 0,13.7881 0,13.788 11.3024,-0.4987 c 7.9005,-0.3487 12.4285,-1.0332 15.044,-2.2744 z m 106.6536,6.0517 0,-36.5575 17.25,0.044 c 22.3109,0.057 26.3812,1.3978 30.8564,10.1662 2.3371,4.579 2.548,14.6237 0.3947,18.7879 -3.7917,7.3322 -13.5175,11.002 -29.1578,11.002 l -10.2937,0 -0.2748,16.25 -0.2748,16.25 -4.25,0.3075 -4.25,0.3075 0,-36.5575 z m 33.9654,-4.864 c 6.8275,-2.3515 9.9089,-10.9416 6.5009,-18.1232 -2.379,-5.0135 -7.1275,-6.7363 -20.2163,-7.3349 l -11.25,-0.5144 0,13.6395 0,13.6395 10.75,-0.056 c 5.9125,-0.031 12.3094,-0.5936 14.2154,-1.25 z m 103.0346,4.8256 0,-36.5191 3.9864,0 3.9863,0 0.2637,32.75 0.2636,32.75 18.3117,0.2728 18.3116,0.2728 -0.3116,3.2272 -0.3117,3.2272 -22.25,0.2691 -22.25,0.2691 0,-36.5191 z m 59,-0.019 0,-36.5 24,0 24,0 0,2.9789 0,2.9788 -19.75,0.2712 -19.75,0.2711 -0.2808,12.25 -0.2807,12.25 13.5307,0 13.5308,0 0,3.5 0,3.5 -13.5,0 -13.5,0 0,14 0,14 20,0 20,0 0,3.5 0,3.5 -24,0 -24,0 0,-36.5 z m -864.99998,-537.00003 0,-341.5 469.99998,0 470,0 0,341.5 0,341.50003 -76.5,0 -76.5,0 0,-8.7775 c 0,-12.9099 0.077,-12.8457 -16.2145,-13.4609 -14.4602,-0.5461 -19.6119,-1.8274 -27.9329,-6.9473 -6.5788,-4.048 -11.4239,-10.6467 -14.1273,-19.2405 l -2.2253,-7.0738 0,-149.00003 c 0,-138.80098 0.1192,-149.38496 1.7413,-154.62394 3.5226,-11.37726 11.2637,-19.61961 22.4764,-23.93208 4.5323,-1.74313 8.7727,-2.35578 19.6147,-2.83394 12.1261,-0.53479 14.0073,-0.84949 15.25,-2.55117 2.0977,-2.87232 1.9898,-23.297 -0.1391,-26.33636 l -1.5567,-2.22251 -64.6933,0.0153 c -35.5813,0.008 -65.2302,0.3567 -65.8865,0.77394 -0.6563,0.41725 -23.2936,45.29786 -50.305,99.73469 -104.9204,211.44839 -129.377,260.4757 -129.9292,260.4642 -0.6821,-0.014 -1.2366,-1.0248 -26.879,-48.98813 -11.0266,-20.625 -26.0845,-48.75 -33.4619,-62.5 l -13.4136,-25 8.091,-4.32478 c 20.181,-10.78716 36.1605,-27.49148 47.0417,-49.17522 8.8396,-17.6156 12.5492,-33.89587 12.5492,-55.07501 0,-25.54989 -6.203,-47.05972 -19.0176,-65.94618 -17.516,-25.8156 -41.1877,-40.82014 -74.4824,-47.21144 -10.6587,-2.04607 -14.1711,-2.12323 -113.22611,-2.48743 -72.14188,-0.26525 -102.82173,-0.0571 -104.25,0.70728 -1.87136,1.00153 -2.02387,2.05585 -2.02387,13.99126 0,16.23326 -0.20262,16.01628 14.97251,16.03339 19.66219,0.0222 32.20182,5.89761 39.6266,18.56704 5.48193,9.3542 5.36471,5.80553 5.38353,162.98743 0.0121,100.84932 -0.31624,146.87499 -1.07712,150.99999 -3.85913,20.922 -19.00446,31.3801 -45.50053,31.4189 -13.09643,0.019 -13.40499,0.3148 -13.40499,12.8435 l 0,9.1713 -77,0 -77,0 0,-341.50003 z m 329.99998,332.15503 c 0,-12.3552 -0.316,-12.65 -13.5787,-12.6698 -22.6033,-0.034 -37.2478,-8.019 -43.6175,-23.7836 l -2.3038,-5.7016 0,-142.50003 c 0,-133.19951 0.1155,-142.92423 1.7696,-149 3.346,-12.29057 9.6743,-17.9581 24.2304,-21.70036 10.5378,-2.70917 47.1252,-2.45719 60.5578,0.41706 13.593,2.90856 23.5629,7.79255 31.5358,15.44852 8.1197,7.79701 12.4052,14.77085 16.5234,26.88899 2.6792,7.88408 3.2855,11.37382 3.6666,21.10718 0.5551,14.17741 -1.2469,23.63968 -6.7301,35.33861 -12.0613,25.73414 -31.8526,38.15201 -64.3163,40.35464 -9.8605,0.66903 -11.9981,1.10918 -13.2182,2.72173 -0.8004,1.05799 -1.4697,2.51973 -1.4872,3.24829 -0.017,0.72856 10.3706,21.65356 23.0846,46.5 12.714,24.84644 28.4121,55.52534 34.8847,68.17534 6.4726,12.65 21.0453,41.10163 32.3837,63.22573 11.3384,22.1242 20.6152,40.4617 20.6152,40.75 0,0.2884 -23.4,0.5243 -52,0.5243 l -52,0 0,-9.345 z m 182.2856,-2.905 c 10.9935,-20.8542 58.8673,-112.30023 138.0782,-263.75003 l 20.1362,-38.5 0.2812,16 c 0.1546,8.8 0.1464,67.525 -0.018,130.5 -0.332,126.96673 0.1029,118.82083 -6.9099,129.40823 -7.1769,10.8351 -18.2216,15.6112 -38.1849,16.5125 -15.7506,0.711 -15.6681,0.6411 -15.6681,13.2704 l 0,8.8089 -52.086,0 -52.0861,0 6.4577,-12.25 z"
         id="path4215"
         inkscape:connector-curvature="0" />
    </g>
    <g
       id="g4207">
      <path
         style="fill:#99151c"
         d="m 732.85712,741.00497 0,-341.5 469.99998,0 470,0 0,341.5 0,341.50003 -76.5,0 -76.5,0 0,-8.7775 c 0,-12.9099 0.077,-12.8457 -16.2145,-13.4609 -14.4602,-0.5461 -19.6119,-1.8274 -27.9329,-6.9473 -6.5788,-4.048 -11.4239,-10.6467 -14.1273,-19.2405 l -2.2253,-7.0738 0,-149.00003 c 0,-138.80098 0.1192,-149.38496 1.7413,-154.62394 3.5226,-11.37726 11.2637,-19.61961 22.4764,-23.93208 4.5323,-1.74313 8.7727,-2.35578 19.6147,-2.83394 12.1261,-0.53479 14.0073,-0.84949 15.25,-2.55117 2.0977,-2.87232 1.9898,-23.297 -0.1391,-26.33636 l -1.5567,-2.22251 -64.6933,0.0153 c -35.5813,0.008 -65.2302,0.3567 -65.8865,0.77394 -0.6563,0.41725 -23.2936,45.29786 -50.305,99.73469 -104.9204,211.44839 -129.377,260.4757 -129.9292,260.4642 -0.6821,-0.014 -1.2366,-1.0248 -26.879,-48.98813 -11.0266,-20.625 -26.0845,-48.75 -33.4619,-62.5 l -13.4136,-25 8.091,-4.32478 c 20.181,-10.78716 36.1605,-27.49148 47.0417,-49.17522 8.8396,-17.6156 12.5492,-33.89587 12.5492,-55.07501 0,-25.54989 -6.203,-47.05972 -19.0176,-65.94618 -17.516,-25.8156 -41.1877,-40.82014 -74.4824,-47.21144 -10.6587,-2.04607 -14.1711,-2.12323 -113.22611,-2.48743 -72.14188,-0.26525 -102.82173,-0.0571 -104.25,0.70728 -1.87136,1.00153 -2.02387,2.05585 -2.02387,13.99126 0,16.23326 -0.20262,16.01628 14.97251,16.03339 19.66219,0.0222 32.20182,5.89761 39.6266,18.56704 5.48193,9.3542 5.36471,5.80553 5.38353,162.98743 0.0121,100.84932 -0.31624,146.87499 -1.07712,150.99999 -3.85913,20.922 -19.00446,31.3801 -45.50053,31.4189 -13.09643,0.019 -13.40499,0.3148 -13.40499,12.8435 l 0,9.1713 -77,0 -77,0 z M 1062.8571,1073.16 c 0,-12.3552 -0.316,-12.65 -13.5787,-12.6698 -22.6033,-0.034 -37.2478,-8.019 -43.6175,-23.7836 l -2.3038,-5.7016 0,-142.50003 c 0,-133.19951 0.1155,-142.92423 1.7696,-149 3.346,-12.29057 9.6743,-17.9581 24.2304,-21.70036 10.5378,-2.70917 47.1252,-2.45719 60.5578,0.41706 13.593,2.90856 23.5629,7.79255 31.5358,15.44852 8.1197,7.79701 12.4052,14.77085 16.5234,26.88899 2.6792,7.88408 3.2855,11.37382 3.6666,21.10718 0.5551,14.17741 -1.2469,23.63968 -6.7301,35.33861 -12.0613,25.73414 -31.8526,38.15201 -64.3163,40.35464 -9.8605,0.66903 -11.9981,1.10918 -13.2182,2.72173 -0.8004,1.05799 -1.4697,2.51973 -1.4872,3.24829 -0.017,0.72856 10.3706,21.65356 23.0846,46.5 12.714,24.84644 28.4121,55.52534 34.8847,68.17534 6.4726,12.65 21.0453,41.10163 32.3837,63.22573 11.3384,22.1242 20.6152,40.4617 20.6152,40.75 0,0.2884 -23.4,0.5243 -52,0.5243 l -52,0 z m 182.2856,-2.905 c 10.9935,-20.8542 58.8673,-112.30023 138.0782,-263.75003 l 20.1362,-38.5 0.2812,16 c 0.1546,8.8 0.1464,67.525 -0.018,130.5 -0.332,126.96673 0.1029,118.82083 -6.9099,129.40823 -7.1769,10.8351 -18.2216,15.6112 -38.1849,16.5125 -15.7506,0.711 -15.6681,0.6411 -15.6681,13.2704 l 0,8.8089 -52.086,0 -52.0861,0 6.4577,-12.25 z"
         id="path4209"
         inkscape:connector-curvature="0"
         sodipodi:nodetypes="ccccccccsssscssssccccsscsscsssssssssssscsccccscscssssscsssccssssscscscsssssccccc" />
    </g>
  </g>
</svg>
