<?xml version="1.0" encoding="UTF-8" standalone="no"?>
<!-- Created with Inkscape (http://www.inkscape.org/) -->

<svg
   xmlns:dc="http://purl.org/dc/elements/1.1/"
   xmlns:cc="http://creativecommons.org/ns#"
   xmlns:rdf="http://www.w3.org/1999/02/22-rdf-syntax-ns#"
   xmlns:svg="http://www.w3.org/2000/svg"
   xmlns="http://www.w3.org/2000/svg"
   xmlns:xlink="http://www.w3.org/1999/xlink"
   xmlns:sodipodi="http://sodipodi.sourceforge.net/DTD/sodipodi-0.dtd"
   xmlns:inkscape="http://www.inkscape.org/namespaces/inkscape"
   id="svg4274"
   version="1.1"
   inkscape:version="0.91 r13725"
   width="792.56647"
   height="458.59827"
   viewBox="0 0 792.56647 458.59826"
   sodipodi:docname="logo_URCA.svg">
  <metadata
     id="metadata4280">
    <rdf:RDF>
      <cc:Work
         rdf:about="">
        <dc:format>image/svg+xml</dc:format>
        <dc:type
           rdf:resource="http://purl.org/dc/dcmitype/StillImage" />
        <dc:title />
      </cc:Work>
    </rdf:RDF>
  </metadata>
  <defs
     id="defs4278">
    <linearGradient
       inkscape:collect="always"
       id="linearGradient4141">
      <stop
         style="stop-color:#250000;stop-opacity:1"
         offset="0"
         id="stop4143" />
      <stop
         id="stop4149"
         offset="0.5"
         style="stop-color:#934513;stop-opacity:1" />
      <stop
         style="stop-color:#ccb334;stop-opacity:1"
         offset="1"
         id="stop4145" />
    </linearGradient>
    <linearGradient
       inkscape:collect="always"
       xlink:href="#linearGradient4141"
       id="linearGradient4147"
       x1="376.04166"
       y1="300.26492"
       x2="645.83331"
       y2="81.514931"
       gradientUnits="userSpaceOnUse" />
  </defs>
  <sodipodi:namedview
     pagecolor="#ffffff"
     bordercolor="#666666"
     borderopacity="1"
     objecttolerance="10"
     gridtolerance="10"
     guidetolerance="10"
     inkscape:pageopacity="0"
     inkscape:pageshadow="2"
     inkscape:window-width="1571"
     inkscape:window-height="890"
     id="namedview4276"
     showgrid="false"
     inkscape:zoom="0.96"
     inkscape:cx="413.55333"
     inkscape:cy="241.71204"
     inkscape:window-x="8"
     inkscape:window-y="0"
     inkscape:window-maximized="0"
     inkscape:current-layer="svg4274"
     fit-margin-top="0"
     fit-margin-left="0"
     fit-margin-right="0"
     fit-margin-bottom="0" />
  <path
     style="fill:url(#linearGradient4147);fill-opacity:1;fill-rule:nonzero"
     d="m 303.9336,457.97634 c -7.8164,-2.04702 -13.5553,-7.77411 -15.2006,-15.16947 -0.6821,-3.06612 -0.4665,-8.12694 0.4651,-10.91706 1.6792,-5.0289 5.768,-9.83472 10.4159,-12.24249 3.9492,-2.04579 6.2892,-2.54808 11.936,-2.56206 4.8141,-0.012 7.7526,0.36051 11.9413,1.51347 1.4483,0.39864 2.0075,0.4197 3.324,0.12507 2.6949,-0.60309 2.6092,-0.79962 2.5161,5.77554 l -0.081,5.74047 -1.3247,0 -1.3246,0 -1.3017,-2.5857 c -1.6126,-3.20301 -3.5933,-5.27928 -6.314,-6.61869 -1.9764,-0.97296 -2.1113,-0.99561 -5.9287,-0.99561 -3.7762,0 -3.9741,0.0321 -5.9426,0.96453 -3.6583,1.7328 -6.489,5.07564 -7.8205,9.23547 -1.1585,3.61932 -1.1761,9.4503 -0.041,13.77234 1.1668,4.44483 4.2925,8.33493 8.1619,10.15803 1.8352,0.86463 2.3622,0.96936 5.3363,1.06029 2.5864,0.079 3.6892,-0.0198 5.1,-0.4569 l 1.8,-0.55776 0.078,-4.788 c 0.067,-4.07925 3e-4,-4.94343 -0.45,-5.838 -0.7154,-1.42152 -2.1666,-2.09895 -4.4977,-2.09952 -1.7224,0 -1.8835,-0.057 -2.0498,-0.71997 -0.099,-0.3957 -0.1357,-1.03695 -0.081,-1.425 l 0.1,-0.70551 10.331,-0.079 c 5.9846,-0.0458 10.4468,0.0368 10.6062,0.19623 0.4124,0.41241 -0.061,2.73276 -0.5575,2.73276 -0.2297,0 -0.9655,0.21924 -1.6352,0.4872 -1.992,0.79704 -2.2126,1.52196 -2.3416,7.69524 l -0.1114,5.33244 -0.7958,0.4077 c -1.4594,0.74784 -6.6087,2.26788 -9.2324,2.72541 -3.8987,0.67989 -12.2067,0.59094 -15.0797,-0.16146 z m 238.2417,0.15852 c -2.2625,-0.49149 -4.6201,-1.72521 -5.7449,-3.0063 -0.9146,-1.04163 -2.3756,-3.37236 -5.8818,-9.38298 -1.2815,-2.19684 -2.5294,-4.1937 -2.7732,-4.43745 -0.3271,-0.32712 -1.0041,-0.42033 -2.5843,-0.35577 l -2.1411,0.0874 -0.082,5.31813 c -0.1107,7.18479 0.2739,8.04063 3.8442,8.55444 l 1.6377,0.23568 0,1.34589 0,1.34586 -22.6311,0.0769 c -14.6723,0.0499 -22.6956,-0.0273 -22.8144,-0.21963 -0.1008,-0.16311 -0.1093,-0.94023 -0.019,-1.72692 l 0.1644,-1.43037 2.4639,-0.18324 c 1.4952,-0.11118 2.7576,-0.37569 3.211,-0.67272 0.8167,-0.53511 1.2624,-2.08872 0.9304,-3.24297 -0.3989,-1.38705 -3.5447,-9.40938 -3.8335,-9.77607 -0.2229,-0.28308 -2.2385,-0.375 -8.2239,-0.375 l -7.9285,0 -0.4032,0.975 c -0.2218,0.53625 -1.1243,3.10581 -2.0056,5.71011 -1.5179,4.48542 -1.5783,4.7781 -1.1456,5.55 0.6327,1.12872 1.8403,1.62975 4.3181,1.79151 2.3561,0.15381 2.8698,0.51375 2.8623,2.00571 -0.01,1.7376 0.3478,1.6827 -10.3657,1.59684 l -9.8797,-0.0792 0,-1.65 0,-1.65 1.8493,-0.204 c 2.3292,-0.25695 3.5067,-0.86229 4.4337,-2.27937 0.4018,-0.61413 3.9036,-9.70716 7.7819,-20.20665 5.3107,-14.37786 7.074,-19.48746 7.1432,-20.7 l 0.092,-1.60998 5.3136,-0.0819 c 5.2412,-0.0808 5.3194,-0.0726 5.747,0.6 0.2383,0.37503 3.8367,9.52437 7.9962,20.33187 4.1596,10.8075 7.8224,20.0793 8.1395,20.60403 1.004,1.66089 2.478,2.71497 4.3598,3.11769 0.9591,0.20529 1.8721,0.48687 2.0289,0.62574 1.0115,0.89625 4.3467,-0.36381 4.9878,-1.88445 0.6128,-1.45314 0.6325,-28.72662 0.022,-30.1734 -0.5304,-1.25667 -1.4699,-1.84062 -3.4109,-2.11995 l -1.5837,-0.22791 0,-1.33758 0,-1.33755 1.35,-0.25404 c 0.7425,-0.13974 6.6825,-0.27846 13.2,-0.30831 11.4908,-0.0526 11.9227,-0.0337 14.25,0.62514 4.7481,1.34412 7.3676,3.18645 8.8444,6.22059 0.6209,1.27563 0.7321,1.94877 0.7429,4.5 0.01,2.44989 -0.1049,3.25428 -0.6285,4.38672 -1.2127,2.62266 -3.6765,4.74969 -6.5588,5.66229 -2.4109,0.76332 -2.3924,0.66603 -0.599,3.16569 0.8916,1.24275 2.3254,3.57036 3.1861,5.17242 3.0369,5.65266 4.9354,7.83171 7.2552,8.32749 1.3575,0.29013 1.7077,0.66528 1.7077,1.82955 0,0.8196 -0.1516,1.07832 -0.7696,1.31328 -1.089,0.41406 -5.634,0.32013 -7.8551,-0.16239 z m -9.449,-21.57138 c 2.9872,-1.64955 4.1207,-4.0326 3.9196,-8.24013 -0.1064,-2.22642 -0.263,-2.86911 -1.0359,-4.25313 -1.7385,-3.11307 -4.8744,-4.43073 -9.671,-4.06359 -1.381,0.10572 -2.6297,0.26565 -2.775,0.35541 -0.4398,0.27183 -0.3336,16.43652 0.111,16.89156 0.2763,0.28275 1.3622,0.35703 4.125,0.28206 3.478,-0.0944 3.8643,-0.16488 5.3263,-0.97218 z m -48.9531,-1.17591 c 0.1956,-0.50985 -5.626,-15.94776 -6.0139,-15.94776 -0.1582,0 -1.6139,3.56643 -3.2347,7.92537 -2.2574,6.07065 -2.8566,7.98273 -2.5608,8.17041 0.2124,0.13476 2.9217,0.24711 6.0206,0.24963 4.4375,0.004 5.6672,-0.0808 5.7888,-0.39765 z m -109.3731,20.57724 c -1.2761,-1.27875 -7.9605,-8.16837 -14.8543,-15.31029 -6.8937,-7.14189 -12.683,-12.93555 -12.8649,-12.87477 -0.5372,0.17937 -0.4558,23.76399 0.086,25.04922 0.4993,1.1838 1.6406,1.83084 3.6488,2.06868 l 1.4839,0.17574 0,1.45821 0,1.45821 -7.95,0 -7.95,0 0,-1.5 0,-1.5 1.1364,0 c 1.762,0 3.7416,-1.13892 4.1717,-2.4 0.2576,-0.75534 0.3628,-5.23611 0.375,-15.96729 l 0.017,-14.91729 -0.9162,-0.47376 c -0.5038,-0.26055 -1.5838,-0.55284 -2.4,-0.6495 l -1.4838,-0.17574 0,-1.46394 0,-1.46397 6.6576,0.0808 6.6577,0.0807 12.3631,12.75 c 6.7998,7.0125 12.5451,12.75 12.7674,12.75 0.6112,0 0.5898,-19.05966 -0.023,-20.51301 -0.5002,-1.18632 -2.2527,-2.12019 -3.9979,-2.13039 l -1.1247,-0.007 0,-1.50489 0,-1.50492 8.025,0.0799 8.025,0.0799 0,1.34586 0,1.34589 -1.65,0.23313 c -1.7909,0.25305 -2.9394,0.92313 -3.5206,2.05404 -0.2812,0.54714 -0.3716,4.8495 -0.375,17.83608 0,12.90666 -0.093,17.20353 -0.3644,17.475 -0.198,0.198 -1.0934,0.36 -1.9899,0.36 l -1.6299,0 -2.3201,-2.325 z M 21.7754,457.67883 C 14.9556,456.60345 8.9153,453.31755 5.1076,448.61172 1.8874,444.63186 0,439.53972 0,434.83122 c 0,-9.8676 6.8708,-19.06029 16.9801,-22.71828 4.1204,-1.49091 7.1314,-1.91889 12.1199,-1.72275 4.3505,0.17103 5.2454,0.32841 10.409,1.83063 2.4573,0.71487 2.8931,0.76248 3.9846,0.43545 0.8208,-0.24591 1.3252,-0.26766 1.527,-0.0659 0.278,0.27804 0.8481,7.76451 0.87,11.42439 l 0.01,1.575 -1.5038,0 -1.5038,0 -0.7457,-1.68621 c -1.9071,-4.31229 -5.3567,-7.66035 -9.1003,-8.83239 -2.5711,-0.80496 -6.696,-0.86946 -9.2115,-0.14409 -5.4754,1.57893 -10.1623,6.86265 -11.7275,13.22097 -0.7096,2.88249 -0.7225,8.63094 -0.025,11.24172 3.0693,11.49165 14.4976,17.73312 23.8637,13.03305 2.2968,-1.15254 5.0011,-3.74523 7.023,-6.73305 1.2893,-1.90515 1.3529,-1.95213 2.7672,-2.04315 0.7962,-0.0512 1.5733,0.0325 1.7269,0.18612 0.1723,0.17232 -0.481,2.66874 -1.7064,6.52032 -1.0922,3.4326 -2.0547,6.35277 -2.1391,6.48924 -0.084,0.13647 -1.4615,0.16743 -3.0604,0.0688 -2.0271,-0.12507 -3.8606,-0.0294 -6.0571,0.3156 -3.8346,0.60252 -10.3114,0.83265 -12.7246,0.45213 z m 27.0285,0.11484 c -0.3611,-0.36105 -0.2214,-2.51718 0.1711,-2.64087 0.2062,-0.065 1.0419,-0.2079 1.8569,-0.31752 1.1225,-0.15096 1.7228,-0.44013 2.475,-1.19238 l 0.9931,-0.99309 0,-14.91 0,-14.91 -0.9931,-0.99309 c -0.7522,-0.75225 -1.3525,-1.04142 -2.475,-1.19238 -2.2725,-0.30564 -2.2768,-0.30906 -2.1743,-1.7268 l 0.092,-1.27773 10.349998,0 10.35,0 0,1.34586 0,1.34589 -1.65,0.23313 c -0.9075,0.12822 -1.9875,0.4806 -2.4,0.78306 -1.4025,1.02834 -1.5031,1.58217 -1.424,7.84206 l 0.074,5.85 9.9,0 9.9,0 0.082,-5.77737 c 0.1052,-7.46196 -0.2087,-8.17206 -3.8439,-8.6952 l -1.6376,-0.23568 0,-1.34589 0,-1.34586 10.2,0 10.2,0 0,1.34169 0,1.34169 -1.35,0.22932 c -2.0594,0.34977 -2.9789,0.83163 -3.5392,1.85457 -0.4412,0.80568 -0.5245,2.1381 -0.6112,9.78273 -0.055,4.8675 -0.01,11.47809 0.1102,14.69022 l 0.2106,5.84022 0.9579,0.95787 c 0.707,0.70698 1.346,1.01409 2.4398,1.17261 0.815,0.11811 1.6506,0.34926 1.8569,0.51366 0.5009,0.39921 0.4781,1.86642 -0.036,2.29278 -0.2928,0.24303 -3.2845,0.31812 -10.425,0.26172 l -10.0143,-0.0791 0,-1.34586 0,-1.34589 1.65,-0.23313 c 1.7909,-0.25305 2.9394,-0.92313 3.5206,-2.05404 0.2594,-0.50475 0.3719,-2.63367 0.375,-7.09608 l 0,-6.375 -10.05,0 -10.05,0 0,6.375 c 0,4.46241 0.1156,6.59133 0.375,7.09608 0.5812,1.13091 1.7297,1.80099 3.5206,2.05404 l 1.65,0.23313 0,1.34589 0,1.34586 -10.2211,0.0789 C 53.5982,457.96209 48.907,457.90579 48.7949,457.79368 Z m 50.917298,-0.22062 c -0.09,-0.23436 -0.1202,-0.8667 -0.067,-1.40517 0.093,-0.94563 0.1616,-0.99234 2.016602,-1.36899 2.0061,-0.40734 3.0501,-1.11246 3.8103,-2.57355 0.233,-0.44796 3.0471,-7.89075 6.2536,-16.53957 3.9533,-10.66332 5.8597,-16.19517 5.9227,-17.18553 l 0.093,-1.46043 4.3572,-0.0826 c 3.1819,-0.0604 4.4902,0.0207 4.85,0.3 0.271,0.21045 3.3397,7.78182 6.8192,16.82529 6.684,17.37192 6.9257,17.95272 7.9337,19.06083 1.3151,1.44585 3.6585,2.08125 5.8553,1.58769 1.7015,-0.38232 2.6171,-1.29258 3.0151,-2.99742 0.3871,-1.65831 2.1195,-24.03183 2.1195,-27.37272 0,-2.11659 -0.067,-2.38023 -0.7396,-2.90925 -0.4067,-0.31995 -1.4178,-0.6717 -2.2467,-0.78168 -1.2736,-0.16893 -1.536,-0.31464 -1.693,-0.94002 -0.1022,-0.40707 -0.101,-1.0776 0,-1.4901 l 0.1882,-0.75 6.8576,0 c 5.121,0 6.9359,0.0949 7.1669,0.375 0.1702,0.20625 2.8318,6.1125 5.9147,13.125 3.083,7.0125 5.7065,12.85698 5.8301,12.98772 0.1236,0.13074 0.362,0.0632 0.5297,-0.15 0.1677,-0.21324 2.8401,-6.05772 5.9386,-12.98772 3.0984,-6.93 5.7686,-12.77127 5.9337,-12.98064 0.2298,-0.29148 1.8538,-0.36174 6.9337,-0.3 l 6.6337,0.0806 0,1.33878 c 0,1.27908 -0.047,1.35069 -1.05,1.60617 -2.1957,0.5592 -2.6694,0.85341 -3.0034,1.8654 -0.2504,0.75873 -0.145,4.29732 0.4392,14.74401 0.4229,7.56009 0.8471,14.2515 0.9427,14.8698 0.2666,1.72269 0.9213,2.30466 3.0465,2.70762 l 1.875,0.3555 0,1.43541 0,1.43541 -9.975,-0.079 -9.975,-0.079 0,-1.34589 c 0,-0.96966 0.1258,-1.36269 0.45,-1.40595 0.2475,-0.033 1.1132,-0.14766 1.9238,-0.25479 1.0524,-0.13908 1.7171,-0.43815 2.325,-1.04598 0.8062,-0.80622 0.8512,-0.99129 0.8521,-3.49932 0,-3.27504 -0.9174,-22.70127 -1.0815,-22.87308 -0.066,-0.0687 -0.1933,-0.0511 -0.2836,0.0392 -0.09,0.0903 -3.1463,6.82908 -6.791,14.97501 -3.6447,8.14593 -6.7656,14.98644 -6.9352,15.20112 -0.1697,0.21468 -0.7133,0.34968 -1.208,0.3 -0.8809,-0.0884 -1.038,-0.39582 -7.5507,-14.77371 -3.6581,-8.07585 -6.7886,-14.72919 -6.9567,-14.7852 -0.3418,-0.11394 -0.3604,0.0729 -1.3223,13.26858 -0.3728,5.115 -0.5822,9.79662 -0.4653,10.40358 0.3327,1.72722 1.0595,2.3883 3.0668,2.7891 l 1.7766,0.35475 0,1.32627 0,1.3263 -17.4687,0.0774 -17.4687,0.0774 -0.1888,-0.75243 c -0.1039,-0.41382 -0.1091,-1.07031 -0.012,-1.45884 0.1593,-0.63468 0.3977,-0.7269 2.3468,-0.90807 2.554,-0.23736 3.541,-0.91689 3.541,-2.43789 0,-0.9324 -2.7317,-8.31282 -3.3546,-9.06336 -0.241,-0.2904 -1.8666,-0.38313 -6.6571,-0.37965 -3.4861,0.003 -6.4989,0.10668 -6.6951,0.23145 -0.4364,0.2775 -3.04,7.27569 -3.2912,8.84631 -0.1349,0.8436 -0.047,1.28061 0.342,1.71099 0.5048,0.55782 2.4744,1.0959 4.656,1.27194 1.0319,0.0832 1.05,0.108 1.05,1.43472 l 0,1.35 -8.4826,0.0797 c -7.1047,0.0668 -8.509202,0.0105 -8.646202,-0.34644 z M 125.7,438.66348 c 0,-0.47139 -4.6327,-12.70638 -4.92,-12.99366 -0.099,-0.099 -0.2574,-0.10263 -0.3519,-0.008 -0.3545,0.35448 -4.8859,12.95358 -4.7425,13.18575 0.082,0.13326 2.3693,0.24231 5.0821,0.24231 4.0625,0 4.9323,-0.0752 4.9323,-0.42633 z m 81.7194,18.90489 c -0.089,-0.23178 -0.1184,-0.87192 -0.066,-1.42251 0.093,-0.96711 0.1516,-1.00896 1.7337,-1.2351 2.017,-0.28827 2.9355,-0.86361 3.4875,-2.18466 0.6266,-1.49973 0.6266,-28.47285 0,-29.97258 -0.552,-1.32102 -1.4704,-1.89639 -3.4875,-2.18469 l -1.6376,-0.23412 -0.096,-1.16199 c -0.053,-0.63909 0.029,-1.28631 0.1809,-1.43829 0.3825,-0.3825 10.0077,-0.86061 17.7646,-0.88239 7.4571,-0.021 10.0093,0.35319 13.4034,1.96503 3.768,1.78941 5.9921,4.6584 6.7344,8.68695 0.6804,3.69246 -0.4683,7.27458 -3.1862,9.93579 -3.5764,3.50184 -8.5113,4.76682 -15.8783,4.07016 -2.8684,-0.27126 -3.6291,-0.26217 -3.8413,0.0458 -0.4205,0.61056 -0.093,10.43589 0.3812,11.43153 0.5036,1.05738 1.6835,1.683 3.6029,1.91034 l 1.4839,0.17574 0,1.45821 0,1.45821 -10.2094,0 c -8.4908,0 -10.2367,-0.0709 -10.3712,-0.42144 z m 23.3294,-19.83903 c 1.7184,-0.58734 3.4257,-2.19693 4.2625,-4.01856 0.5126,-1.116 0.6297,-1.95678 0.6297,-4.52097 0,-3.59394 -0.5001,-5.1129 -2.2641,-6.87693 -1.8148,-1.81485 -3.2629,-2.27451 -7.1207,-2.26026 -2.6363,0.01 -3.4555,0.11013 -3.6704,0.44985 -0.4457,0.70464 -0.3633,16.57134 0.089,17.16321 0.6988,0.91419 5.4752,0.95187 8.0738,0.0637 z m 10.5706,19.83903 c -0.089,-0.23178 -0.1184,-0.86202 -0.065,-1.40049 0.093,-0.94563 0.1616,-0.99234 2.0166,-1.36899 1.9802,-0.40209 3.0519,-1.11423 3.7757,-2.50908 0.2141,-0.4125 3.0285,-7.86255 6.2543,-16.55568 3.9386,-10.61406 5.8953,-16.28007 5.9573,-17.25 l 0.092,-1.44432 4.3572,-0.0826 c 3.1862,-0.0605 4.4867,0.0201 4.8389,0.3 0.2649,0.21045 3.4155,8.01012 7.0013,17.33262 3.5857,9.3225 6.8576,17.40024 7.2708,17.95053 0.9511,1.26669 2.1972,2.02728 3.7201,2.27079 l 1.1941,0.19095 -0.091,1.41885 -0.091,1.41888 -10.5,0 -10.5,0 -0.1,-0.70551 c -0.2423,-1.71222 0.091,-2.04294 2.267,-2.2461 2.4016,-0.22425 3.4911,-0.89145 3.6244,-2.21958 0.09,-0.89337 -2.2381,-7.59012 -3.1296,-9.00381 -0.4199,-0.66567 -0.5136,-0.67494 -6.7938,-0.67041 -3.5025,0.003 -6.5384,0.11271 -6.7465,0.24483 -0.506,0.32118 -3.3716,8.23362 -3.3716,9.30948 0,0.46647 0.2382,1.06371 0.5294,1.32723 0.6161,0.55752 2.7308,1.09602 4.3456,1.10655 l 1.125,0.007 0,1.5 0,1.5 -8.4094,0 c -6.945,0 -8.4376,-0.0734 -8.5712,-0.42144 z M 267.3,438.71442 c 0,-0.42276 -4.6781,-12.80268 -4.9349,-13.05945 -0.091,-0.0908 -0.247,-0.0833 -0.347,0.0168 -0.3837,0.38376 -4.9009,12.9033 -4.746,13.15389 0.09,0.14532 2.3828,0.26424 5.0956,0.26424 3.7485,0 4.9323,-0.0901 4.9323,-0.37539 z m 122.7,17.81949 0,-1.46052 1.4839,-0.17574 c 0.8161,-0.0967 1.8771,-0.37911 2.3577,-0.62766 1.6822,-0.86991 1.7084,-1.12311 1.7084,-16.53018 0,-15.40707 -0.026,-15.66027 -1.7084,-16.53018 -0.4806,-0.24855 -1.5416,-0.531 -2.3577,-0.62766 L 390,420.40623 l 0,-1.45821 0,-1.45821 17.3761,0 17.3761,0 0.1681,1.875 c 0.092,1.03125 0.2045,3.1575 0.2489,4.725 l 0.081,2.85 -1.1928,0 c -1.0656,0 -1.2214,-0.096 -1.4616,-0.9 -0.9179,-3.07377 -1.1648,-3.50946 -2.2571,-3.98337 -1.4613,-0.63402 -14.4889,-0.94728 -15.1902,-0.36525 -0.3715,0.30831 -0.4483,1.44147 -0.4483,6.61083 0,3.43128 0.082,6.45225 0.1821,6.71325 0.1569,0.40896 0.946,0.47454 5.7096,0.47454 7.1688,0 7.8787,-0.26445 8.6315,-3.21516 0.3592,-1.40799 0.3881,-1.43484 1.5464,-1.43484 l 1.1804,0 0.081,6.69252 0.081,6.69255 -1.2518,-0.0926 c -1.2294,-0.0909 -1.2614,-0.12186 -1.7842,-1.73073 -0.8812,-2.71182 -1.738,-3.00777 -8.7139,-3.01011 -4.0784,0 -5.0566,0.0807 -5.3632,0.45015 -0.2826,0.3405 -0.3425,1.93218 -0.2431,6.46029 0.1755,7.99716 -0.5252,7.34142 7.8287,7.32657 8.6493,-0.0153 9.9305,-0.46266 11.1393,-3.88869 0.8232,-2.33304 0.8835,-2.4 2.1593,-2.4 l 1.1673,0 -0.084,3.3 c -0.046,1.815 -0.1814,4.1775 -0.3,5.25 l -0.2156,1.95 -18.225,0.0773 -18.225,0.0773 0,-1.46055 z m 163.6194,1.03446 c -0.089,-0.23178 -0.1184,-0.87192 -0.066,-1.42251 0.093,-0.96711 0.1517,-1.00896 1.7338,-1.2351 2.017,-0.28827 2.9355,-0.86361 3.4874,-2.18466 0.6265,-1.49934 0.6265,-28.17324 0,-29.67258 -0.5546,-1.32753 -1.6026,-1.98381 -3.5468,-2.22108 l -1.5782,-0.19263 -0.091,-1.41525 c -0.082,-1.26867 -0.02,-1.43094 0.6,-1.56666 1.5239,-0.33387 11.7512,-0.76809 18.0909,-0.76809 12.9804,0 18.8607,1.59894 23.7032,6.44532 3.6084,3.61119 5.334,7.98009 5.334,13.50468 0,5.79993 -1.6948,9.91467 -5.7582,13.98018 -3.987,3.98901 -7.7229,5.8083 -13.8288,6.73413 -4.1086,0.62298 -27.8424,0.63501 -28.0806,0.0141 z m 26.1426,-3.03807 c 2.7547,-0.70791 4.8944,-1.91643 6.9514,-3.92616 3.4535,-3.37416 5.0939,-8.30613 4.7779,-14.36433 -0.4037,-7.73895 -4.1233,-12.76476 -11.1413,-15.05379 -2.0488,-0.66825 -3.0914,-0.80367 -7.125,-0.92535 l -4.725,-0.14256 0,15.81552 c 0,13.99875 0.056,15.9339 0.4891,16.8462 0.8059,1.69836 2.0654,2.14764 6.1229,2.18418 1.6782,0.015 3.6015,-0.16425 4.65,-0.43371 z m 25.1583,3.04041 c -0.089,-0.23307 -0.1193,-0.87537 -0.067,-1.42734 0.092,-0.96474 0.155,-1.01076 1.6175,-1.18926 1.9265,-0.23514 2.7124,-0.65928 3.4436,-1.85844 0.5559,-0.91164 0.5827,-1.62213 0.5795,-15.35586 0,-10.83366 -0.095,-14.57859 -0.3738,-15.12108 -0.5925,-1.15287 -1.8162,-1.86954 -3.5543,-2.08167 l -1.6163,-0.19725 0,-1.35 0,-1.35 17.1815,-0.0775 17.1815,-0.0775 0.2547,0.67746 c 0.14,0.3726 0.3059,2.49996 0.3685,4.72746 l 0.1138,4.05 -0.8432,0.0967 c -1.0693,0.12261 -1.705,-0.39996 -1.7134,-1.40841 0,-0.43356 -0.2565,-1.33857 -0.562,-2.01114 -0.8888,-1.95693 -1.4548,-2.07714 -9.7814,-2.07714 l -7.2,0 -0.081,6.96789 -0.081,6.96792 0.7653,0.19209 c 0.4209,0.10563 2.9546,0.13257 5.6305,0.0598 6.6395,-0.18048 7.1592,-0.43281 8.2129,-3.98772 0.2301,-0.77622 0.4101,-0.9 1.3095,-0.9 l 1.0428,0 0,6.6 0,6.6 -0.8432,0.0967 c -1.0879,0.12474 -1.7068,-0.40479 -1.7068,-1.4604 0,-1.13493 -1.2973,-2.60352 -2.6471,-2.9967 -0.6578,-0.19161 -3.2217,-0.28461 -6.3529,-0.23043 l -5.25,0.0908 -0.081,6.33453 c -0.1088,8.52483 -0.8695,7.76547 7.7798,7.76547 9.0177,0 9.9445,-0.36189 11.3193,-4.41921 0.5256,-1.55115 0.5598,-1.58256 1.8254,-1.67508 l 1.2898,-0.0943 -0.2274,3.69429 c -0.1251,2.03187 -0.3126,4.36929 -0.4167,5.19429 l -0.1893,1.5 -18.0835,0.0773 c -15.3512,0.0657 -18.1081,0.0132 -18.2462,-0.34644 z m 42.3011,0.003 c -0.09,-0.23457 -0.1204,-0.8781 -0.068,-1.43007 0.093,-0.97332 0.1449,-1.0095 1.7125,-1.20081 1.7514,-0.21375 2.9831,-0.93924 3.531,-2.07972 0.2457,-0.51156 0.3669,-5.06622 0.4142,-15.57303 0.037,-8.1675 0.049,-15.06459 0.028,-15.32685 -0.051,-0.62544 -1.3251,-1.19802 -3.1892,-1.43358 l -1.5,-0.18957 0,-1.35 0,-1.35 6.391,-0.081 6.391,-0.081 1.4669,1.43103 c 0.8067,0.78705 6.4782,6.6285 12.6033,12.981 6.1251,6.3525 11.3304,11.59365 11.5672,11.64699 0.6743,0.15189 0.6371,-19.97745 -0.039,-21.28551 -0.5276,-1.02027 -2.0048,-1.76148 -3.5104,-1.76148 -1.209,0 -1.7197,-0.45234 -1.7197,-1.52328 0,-1.44489 0.2844,-1.49319 8.2872,-1.40703 l 7.4628,0.0803 0.096,1.16946 c 0.1111,1.35714 -0.2198,1.66932 -1.7764,1.67595 -1.4408,0.006 -3.0272,1.1079 -3.4775,2.41497 -0.2601,0.7554 -0.3626,5.69397 -0.375,18.06462 l -0.017,17.02473 -1.9108,0 -1.9108,0 -3.2491,-3.375 c -15.942,-16.55958 -26.4179,-27.225 -26.7411,-27.225 -0.5382,0 -0.5347,23.63529 0,25.17189 0.4865,1.38855 1.6124,2.14539 3.5418,2.38086 l 1.6163,0.19725 0,1.35 0,1.35 -7.7325,0.0801 c -6.4602,0.0669 -7.7594,0.01 -7.8961,-0.34644 z m 54.6,9e-5 c -0.09,-0.23463 -0.1204,-0.87819 -0.068,-1.43016 0.093,-0.96945 0.1478,-1.00875 1.6138,-1.15647 0.8347,-0.0841 1.8923,-0.39837 2.3501,-0.69834 1.6676,-1.09263 1.6823,-1.24674 1.6823,-17.59353 l 0,-15.01404 -0.975,-0.59448 c -0.5363,-0.32694 -1.4027,-0.59496 -1.9255,-0.59559 -1.5784,-0.003 -1.8995,-0.2556 -1.8995,-1.50111 0,-1.27824 0.2344,-1.4403 1.95,-1.34811 0.66,0.0355 3.4275,0.0846 6.15,0.10926 l 4.95,0.0448 12.5933,13.04703 c 6.9263,7.17588 12.7651,13.04703 12.975,13.04703 0.5796,0 0.5498,-19.71693 -0.032,-21.10926 -0.5995,-1.43484 -1.7674,-2.22021 -3.6518,-2.45565 l -1.6345,-0.20421 0,-1.16544 0,-1.16544 7.8,0 7.8,0 0,1.15821 0,1.15821 -1.538,0.18216 c -1.7387,0.20592 -2.7126,0.74202 -3.4828,1.91709 -0.4878,0.74409 -0.5358,2.1774 -0.6135,18.29583 l -0.084,17.4885 -1.7158,-0.005 c -0.9436,-0.003 -1.861,-0.10377 -2.0385,-0.225 -0.1776,-0.12123 -6.9149,-7.03791 -14.9719,-15.37041 -8.057,-8.3325 -14.7968,-15.15 -14.9772,-15.15 -0.2323,0 -0.3281,3.68421 -0.3281,12.61365 0,11.50791 0.046,12.68385 0.525,13.41444 0.7033,1.07274 1.5784,1.5171 3.3689,1.71051 1.3019,0.14067 1.5317,0.26943 1.7884,1.00224 0.1997,0.56988 0.1912,1.00491 -0.026,1.35 -0.2857,0.45327 -1.1498,0.51795 -7.8708,0.58932 -6.3033,0.0669 -7.577,0.01 -7.7137,-0.34644 z m 53.8786,-1.01508 0,-1.13136 1.8343,-0.3486 c 2.1117,-0.40131 3.1262,-1.18866 3.5645,-2.76639 0.1772,-0.63795 0.2983,-6.66204 0.2991,-14.87229 0,-12.54741 -0.046,-13.89336 -0.5234,-14.82867 -0.7304,-1.43244 -1.7706,-2.10177 -3.6038,-2.31888 l -1.5707,-0.18603 0,-1.15821 0,-1.15821 17.0943,0 17.0943,0 0.1376,0.675 c 0.076,0.37125 0.2203,2.40534 0.3214,4.52016 l 0.1836,3.84519 -0.9697,-0.0952 c -0.8968,-0.088 -0.9953,-0.20793 -1.3099,-1.59516 -0.8505,-3.7503 -1.1412,-3.86403 -10.2178,-3.9972 -6.0611,-0.089 -7.2746,-0.0356 -7.5808,0.3333 -0.268,0.32292 -0.3431,2.25567 -0.2837,7.30155 l 0.081,6.86235 5.7692,0.0814 c 6.3424,0.0896 7.3939,-0.10947 8.3589,-1.58223 0.2886,-0.44046 0.6044,-1.29549 0.7018,-1.90005 0.1566,-0.97293 0.2874,-1.10988 1.1382,-1.19241 1.2859,-0.12471 1.3205,0.0741 1.2171,6.99324 l -0.085,5.7 -1.0405,0 c -0.9808,0 -1.0547,-0.0715 -1.2869,-1.24602 -0.2961,-1.49697 -1.4042,-2.68719 -2.8846,-3.09843 -0.5984,-0.1662 -3.4002,-0.30297 -6.2263,-0.30387 -4.1085,0 -5.2101,0.0849 -5.4969,0.43047 -0.2602,0.31356 -0.3321,2.16354 -0.2617,6.74226 0.1286,8.37246 -0.5824,7.67559 7.8304,7.67559 7.2664,0 8.7053,-0.25884 10.299,-1.85253 0.626,-0.62604 1.1802,-1.61475 1.4768,-2.63493 0.4993,-1.71768 1.0821,-2.18025 2.2715,-1.80276 0.5653,0.1794 0.6131,0.36081 0.4603,1.74522 -0.094,0.84975 -0.248,2.625 -0.3427,3.945 -0.095,1.32 -0.2405,2.83875 -0.3239,3.375 l -0.1517,0.975 -17.9864,0 -17.9864,0 0,-1.13136 z M 435.225,439.36605 c -0.669,-0.38961 -0.7572,-3.60981 -0.1136,-4.14396 0.2915,-0.24189 2.8943,-0.31824 8.925,-0.26175 l 8.5136,0.0797 0.09,2.07315 c 0.063,1.45566 -0.026,2.1468 -0.3,2.32041 -0.5752,0.36483 -16.4802,0.30204 -17.1148,-0.0676 z m -47.5508,-48.3087 c -2.5458,-0.4242 -4.7629,-1.33518 -6.8172,-2.80107 -2.2529,-1.6077 -3.4749,-3.34398 -8.5626,-12.1662 -1.8555,-3.2175 -3.9635,-6.76581 -4.6845,-7.88514 l -1.3109,-2.03514 -3.2245,0.0851 -3.2245,0.0851 0,8.25 c 0,7.73505 0.038,8.31555 0.6069,9.3 0.7871,1.36185 2.6638,2.30091 5.1253,2.56452 l 1.9436,0.20814 -0.088,1.98867 -0.088,1.98867 -14.25,0.0786 c -13.1302,0.0725 -14.2795,0.0385 -14.625,-0.43233 -0.4063,-0.55359 -0.5028,-2.73558 -0.1454,-3.28521 0.1212,-0.18642 1.0619,-0.43566 2.0904,-0.55389 2.1428,-0.2463 4.1451,-1.16376 4.9471,-2.26671 1.0393,-1.42929 1.1611,-4.10802 1.0707,-23.54709 l -0.088,-18.8934 -0.675,-1.36977 c -0.8599,-1.7448 -2.3605,-2.61972 -4.9181,-2.86746 -1.1919,-0.11544 -2.0475,-0.36144 -2.2819,-0.65607 -0.4222,-0.53064 -0.4979,-2.69838 -0.1154,-3.30162 0.556,-0.87681 30.2186,-1.65507 36.0483,-0.94581 8.5948,1.04571 14.8726,4.32246 17.2512,9.00453 1.1948,2.35191 1.6338,4.28274 1.6338,7.1862 0,4.39875 -1.2503,7.56279 -4.0944,10.36185 -1.7983,1.76985 -5.3394,3.70389 -7.9786,4.35768 -0.7865,0.19485 -1.5012,0.46929 -1.5881,0.60987 -0.087,0.14061 0.371,0.83274 1.0174,1.5381 1.616,1.76319 3.6635,4.98639 6.5008,10.23327 3.8702,7.1571 6.265,9.84567 9.5538,10.72596 2.594,0.69429 2.5962,0.69645 2.5962,2.50629 0,1.32018 -0.1148,1.70733 -0.5803,1.95642 -0.695,0.37194 -8.7778,0.35571 -11.0455,-0.0222 z M 371.1,361.19016 c 2.1221,-0.54759 4.6212,-2.05137 5.7359,-3.4515 3.7298,-4.68468 3.3715,-13.36983 -0.7261,-17.59911 -2.6265,-2.71086 -6.2429,-3.82017 -11.5159,-3.53241 -1.8459,0.10074 -3.7021,0.3147 -4.125,0.4755 l -0.7689,0.29232 0,11.86683 c 0,9.9552 0.068,11.89308 0.4245,12.02976 1.9242,0.73839 7.9724,0.69354 10.9755,-0.0814 z m 206.25,29.90178 c -0.825,-0.14244 -2.8979,-0.56235 -4.6064,-0.93312 -2.2739,-0.49341 -3.2418,-0.58956 -3.6116,-0.35865 -0.7848,0.49014 -2.942,0.77796 -3.1621,0.42192 -0.3039,-0.49179 -2.0158,-13.5801 -1.837,-14.04582 0.2223,-0.57957 2.8689,-0.40245 3.1907,0.21354 0.1293,0.2475 0.7887,1.63224 1.4654,3.07722 2.3533,5.02542 6.2205,7.90881 11.0511,8.23992 5.3156,0.36432 8.8079,-2.1558 9.2763,-6.69399 0.4171,-4.04139 -3.2567,-7.72965 -13.2092,-13.26126 -8.5641,-4.75992 -11.5826,-8.67255 -11.2353,-14.56332 0.197,-3.34182 1.0632,-5.47026 3.1384,-7.71168 4.3254,-4.67202 11.256,-5.87367 20.6397,-3.57858 2.8031,0.68559 3.782,0.72744 5.1813,0.22143 0.8867,-0.32061 1.0735,-0.30255 1.3932,0.13461 0.421,0.57576 1.5613,11.31882 1.2793,12.05346 -0.1271,0.33126 -0.5591,0.48219 -1.3801,0.48219 l -1.1951,0 -1.2398,-2.5377 c -2.7952,-5.72136 -8.2117,-8.78898 -13.5587,-7.67892 -3.2701,0.67887 -5.0334,2.56881 -5.0252,5.38599 0.01,3.29445 1.9907,5.24544 9.4741,9.33063 12.0142,6.55851 15.721,10.72221 15.721,17.65893 0,4.70772 -1.9884,8.54664 -5.8563,11.30673 -3.2817,2.34174 -5.2297,2.91771 -10.1937,3.01401 -2.31,0.0448 -4.875,-0.0351 -5.7,-0.17754 z M 195.375,390.4533 c -0.4781,-0.48894 -0.4886,-2.72988 -0.015,-3.20349 0.198,-0.198 0.9742,-0.36021 1.725,-0.36048 1.7334,0 3.264,-0.76662 4.134,-2.06889 l 0.681,-1.01937 0,-17.58531 c 0,-16.45827 -0.035,-17.65083 -0.5482,-18.60744 -0.689,-1.28466 -2.0533,-2.0265 -4.216,-2.29242 -1.9099,-0.23481 -2.1248,-0.4344 -2.1312,-1.97967 -0.01,-2.11266 -0.616,-2.01171 16.1226,-2.68032 17.0254,-0.68007 26.005,0.74619 32.6407,5.18436 8.9875,6.01122 12.2811,18.87462 7.4886,29.24733 -3.6345,7.86639 -10.8201,13.10232 -20.5565,14.97882 -3.4468,0.66429 -34.7188,1.00677 -35.325,0.38688 z m 31.125,-3.88215 c 0.9075,-0.18951 2.7851,-0.87156 4.1724,-1.51569 4.5897,-2.13099 8.289,-6.71172 9.7843,-12.11565 0.782,-2.82597 0.9458,-10.00725 0.2953,-12.94707 -1.2874,-5.81865 -4.6784,-10.27086 -9.8098,-12.87981 -0.7742,-0.39366 -2.5967,-1.07373 -4.05,-1.51125 -2.4089,-0.72525 -3.119,-0.79842 -8.0422,-0.82869 l -5.4,-0.0332 0,19.35 c 0,18.92169 0.013,19.37301 0.6106,20.38938 1.1903,2.02602 3.5259,2.76474 8.0894,2.55852 1.485,-0.0671 3.4425,-0.27705 4.35,-0.46656 z m 35,4.01865 c -0.11,-0.10998 -0.2,-0.90555 -0.2,-1.7679 0,-1.76706 0.1875,-1.93182 2.1995,-1.93257 1.666,0 3.1935,-0.81456 3.9403,-2.09952 0.5947,-1.0233 0.6102,-1.49631 0.6102,-18.6 0,-19.11375 0.017,-18.91305 -1.6967,-20.13327 -0.5582,-0.39744 -1.587,-0.68883 -2.8854,-0.8172 l -2.0179,-0.19953 0,-1.8 0,-1.8 20.8866,-0.077 c 16.528,-0.0609 20.9521,0.003 21.2009,0.30171 0.1855,0.2235 0.3549,2.65254 0.4134,5.92701 l 0.099,5.54832 -1.35,0 -1.35,0 -0.5023,-2.07303 c -0.5628,-2.32284 -1.2385,-3.41403 -2.5247,-4.07697 -1.2181,-0.6279 -18.3801,-0.84915 -18.7652,-0.24195 -0.1368,0.21558 -0.2507,3.91917 -0.2532,8.23023 0,6.57105 0.067,7.89804 0.441,8.20809 0.3334,0.27666 2.0903,0.3393 6.975,0.2487 5.8484,-0.10851 6.6753,-0.18723 7.9287,-0.75489 1.5552,-0.70428 1.9893,-1.32288 2.4804,-3.53451 l 0.3343,-1.50567 1.493,0 1.493,0 0.08,8.01807 0.08,8.01804 -0.7187,0.18036 c -0.3952,0.0992 -1.1037,0.13608 -1.5744,0.082 -0.7666,-0.0882 -0.8923,-0.26319 -1.2052,-1.67859 -0.8363,-3.78345 -1.5409,-4.07304 -10.2505,-4.21278 -4.9172,-0.0789 -6.8045,-0.0114 -7.125,0.25455 -0.3577,0.29688 -0.4347,1.55382 -0.4288,7.00011 0.01,7.2054 0.207,8.74974 1.2368,9.58398 0.6216,0.50361 1.3111,0.53832 8.9398,0.45 7.6767,-0.0889 8.3625,-0.14094 9.6162,-0.72996 1.9124,-0.89847 2.6852,-1.8762 3.5861,-4.53708 l 0.7885,-2.32866 1.3639,-0.0895 c 0.858,-0.0563 1.476,0.055 1.6658,0.3 0.3281,0.42345 -0.5081,11.81748 -0.9157,12.47697 -0.1718,0.27795 -5.3157,0.36249 -22.0563,0.36249 -12.0078,0 -21.9223,-0.09 -22.0323,-0.20001 z m 142.4226,-0.21312 c -0.087,-0.22719 -0.1167,-1.07094 -0.066,-1.875 l 0.093,-1.46187 1.8,-0.1593 c 2.2023,-0.19491 3.5701,-0.89031 4.2699,-2.17077 0.4898,-0.89628 0.5301,-2.31414 0.5301,-18.66993 0,-16.35579 -0.04,-17.77365 -0.5301,-18.66993 -0.6875,-1.25802 -2.0335,-1.93731 -4.2699,-2.15493 l -1.8,-0.17514 0,-1.8 0,-1.8 20.9877,0 20.9877,0 0.2018,0.9867 c 0.111,0.5427 0.2515,3.1752 0.3123,5.85 l 0.1105,4.8633 -1.2557,0.0913 c -1.456,0.10587 -1.5998,-0.0746 -2.1678,-2.7198 -0.2047,-0.95334 -0.7022,-2.12193 -1.1094,-2.60583 -1.1517,-1.36875 -2.7523,-1.56381 -11.9671,-1.45836 l -8.1,0.0927 0,8.4 0,8.4 6.75,0 c 9.0906,0 9.9346,-0.31755 10.8551,-4.08405 0.385,-1.57551 0.4236,-1.61832 1.5408,-1.7103 2.0241,-0.16668 2.0041,-0.24858 2.0041,8.19435 0,8.44293 0.02,8.36103 -2.0041,8.19435 -1.0722,-0.0883 -1.1618,-0.17151 -1.3932,-1.29435 -0.4169,-2.02296 -1.1675,-3.20943 -2.4527,-3.87684 -1.1153,-0.57915 -1.6978,-0.62316 -8.25,-0.62316 l -7.05,0 -0.081,7.14759 c -0.047,4.21272 0.046,7.61643 0.227,8.28942 0.4844,1.79892 0.897,1.8708 10.103,1.76007 7.974,-0.0959 8.0863,-0.10608 9.5569,-0.86346 1.7568,-0.9048 2.9733,-2.51781 3.4946,-4.63362 0.2032,-0.825 0.4939,-1.66875 0.646,-1.875 0.4214,-0.57162 2.8796,-0.48492 3.1078,0.10962 0.3199,0.83376 -0.752,12.19656 -1.176,12.46572 -0.2084,0.13227 -10.1368,0.24255 -22.0632,0.24507 -18.141,0.004 -21.7103,-0.0629 -21.843,-0.40854 z m 53.1807,0.21645 c -0.1118,-0.11184 -0.2033,-0.90888 -0.2033,-1.77123 0,-1.75731 0.1932,-1.93209 2.1365,-1.93209 1.7095,0 3.3707,-0.94818 4.0472,-2.31003 0.5309,-1.06869 0.5717,-2.16966 0.6534,-17.60886 0.058,-10.96815 -0.021,-16.99044 -0.237,-18.03039 -0.5058,-2.43648 -2.2261,-3.75072 -4.9096,-3.75072 -0.6988,0 -1.4325,-0.162 -1.6305,-0.36 -0.4663,-0.46629 -0.4663,-2.71371 0,-3.18 0.2677,-0.26775 3.3745,-0.36 12.1254,-0.36 6.471,0 11.979,0.0819 12.24,0.1821 0.35,0.13428 0.4746,0.59859 0.4746,1.7679 0,1.78761 -0.1836,1.95 -2.2042,1.95 -1.6166,0 -3.1873,0.84945 -3.9458,2.13393 -0.5817,0.98514 -0.6,1.55475 -0.6,18.71607 0,17.16132 0.018,17.73093 0.6,18.71607 0.7719,1.30722 2.3334,2.13273 4.0453,2.13852 1.9405,0.007 2.1548,0.22893 2.047,2.12379 l -0.092,1.62162 -12.1717,0.0783 c -6.6944,0.0431 -12.2632,-0.0132 -12.375,-0.12501 z m 32.8151,-0.23115 c -0.4859,-0.58551 -0.2824,-2.90019 0.2816,-3.20151 0.2475,-0.13224 1.0998,-0.32427 1.894,-0.42678 1.9924,-0.2571 3.0717,-1.30212 3.635,-3.51948 0.2412,-0.94911 1.0068,-9.20667 1.7014,-18.35016 1.3639,-17.95269 1.364,-17.93988 -0.1885,-18.95712 -0.3663,-0.24003 -1.3919,-0.51813 -2.279,-0.618 -0.8871,-0.0999 -1.7817,-0.31455 -1.9879,-0.47709 -0.4785,-0.37701 -0.4894,-2.68761 -0.015,-3.16203 0.2617,-0.26175 2.5133,-0.36 8.25,-0.36 7.1342,0 7.9403,0.0506 8.415,0.5283 0.2887,0.29055 3.6131,7.5468 7.3874,16.125 3.7743,8.57817 7.041,15.78732 7.2593,16.02027 0.3382,0.36099 0.4441,0.31668 0.7164,-0.3 0.1757,-0.39795 3.4756,-7.74357 7.3331,-16.32357 l 7.0136,-15.6 8.2076,0 8.2076,0 0.09,1.55856 0.09,1.55859 -1.1401,0.19167 c -3.3022,0.55524 -4.0515,1.20789 -4.2214,3.67743 -0.1841,2.6751 1.6989,34.42104 2.1154,35.66427 0.4847,1.44684 1.5541,2.18856 3.545,2.45874 2.1824,0.29616 2.3709,0.45498 2.3709,1.99788 0,0.99975 -0.1414,1.3974 -0.5803,1.6323 -0.3707,0.19842 -4.6904,0.31056 -11.9633,0.31056 -12.7315,0 -12.162,0.10218 -11.9997,-2.15283 l 0.093,-1.29717 1.65,-0.24282 c 0.9075,-0.13356 2.0736,-0.30558 2.5914,-0.38229 1.2375,-0.18336 2.4421,-1.42305 2.7045,-2.78352 0.2043,-1.05894 -1.0182,-30.66051 -1.277,-30.92136 -0.071,-0.0715 -0.2524,-0.004 -0.4034,0.15 -0.1509,0.15399 -3.9843,8.57859 -8.5186,18.72135 -6.0917,13.62654 -8.4084,18.51462 -8.8731,18.72198 -1.5041,0.67116 -1.602,0.49416 -10.0315,-18.14823 -4.4304,-9.79833 -8.2319,-18.00093 -8.4475,-18.22806 -0.3263,-0.34356 -0.4229,-0.14187 -0.5747,1.2 -0.5321,4.7007 -1.9893,26.39604 -1.8466,27.49311 0.3499,2.69103 1.7372,3.96984 4.3069,3.96984 1.4662,0 1.8696,0.42069 1.8696,1.95 0,0.6765 -0.162,1.392 -0.36,1.59 -0.5713,0.57132 -16.544,0.50766 -17.0216,-0.0678 z M 172.05,315.28755 c -5.1999,-0.32625 -10.3924,-1.69359 -13.5024,-3.55563 -4.1366,-2.47659 -7.1982,-6.65436 -8.6154,-11.7561 -0.6178,-2.22384 -0.6571,-3.12837 -0.8196,-18.83602 -0.1233,-11.92491 -0.2706,-16.70796 -0.5314,-17.25 -0.9237,-1.92052 -2.1063,-2.64062 -5.0808,-3.09387 l -2.3504,-0.35814 0,-1.94899 0,-1.949 14.2157,-0.078 c 10.5118,-0.0577 14.3258,0.0135 14.6385,0.27297 0.2939,0.24392 0.3959,0.86234 0.3343,2.02796 l -0.088,1.67703 -2.2865,0.34741 c -3.7975,0.57697 -5.0683,1.5857 -5.6742,4.50404 -0.4484,2.16015 -0.2098,30.4576 0.275,32.6032 1.5673,6.93684 7.2239,10.70271 16.0587,10.69092 5.7034,-0.008 9.2249,-1.24584 12.3464,-4.34136 2.1324,-2.11467 3.4642,-4.59465 4.2379,-7.89177 0.4847,-2.06547 0.5427,-3.88233 0.5427,-17.01244 0,-13.11597 -0.053,-14.79699 -0.4965,-15.6 -1.0464,-1.89684 -2.3716,-2.60368 -5.6535,-3.01554 -0.9075,-0.11389 -1.7492,-0.35949 -1.8704,-0.54576 -0.385,-0.59155 -0.254,-3.09497 0.1808,-3.45579 0.2933,-0.24346 3.4797,-0.31809 11.175,-0.26174 l 10.7646,0.0788 0,1.94305 0,1.94305 -1.5,0.23212 c -0.825,0.12767 -1.9348,0.30492 -2.4662,0.39389 -0.5314,0.089 -1.3935,0.52134 -1.9158,0.96082 -1.9334,1.6269 -1.9002,1.32904 -2.0864,18.67707 -0.1608,14.97352 -0.2013,15.86653 -0.8229,18.11347 -2.8003,10.12251 -9.8928,15.36666 -22.1573,16.38279 -1.9533,0.16185 -3.9564,0.27207 -4.4514,0.24492 -0.495,-0.027 -1.575,-0.0917 -2.4,-0.14343 z m 166.1191,-0.47274 c -0.1674,-0.20625 -4.4326,-9.58542 -9.4783,-20.84262 -5.0457,-11.25717 -9.4999,-20.97718 -9.8984,-21.60001 -1.2811,-2.00256 -2.434,-2.85174 -4.6152,-3.39933 l -2.0272,-0.50892 -0.092,-1.58367 c -0.062,-1.06314 0.037,-1.66545 0.3,-1.83246 0.5124,-0.32502 25.7721,-0.32502 26.2846,0 0.2647,0.16785 0.3623,0.77622 0.3,1.87038 l -0.092,1.62162 -2.0185,0.19959 c -4.031,0.39855 -5.2359,1.28097 -4.9584,3.63129 0.1916,1.62198 11.7389,27.66913 12.2664,27.66913 0.2204,0 2.6504,-5.28222 5.6983,-12.38691 5.6986,-13.28359 6.2622,-14.72293 6.2622,-15.99202 0,-1.90161 -0.5957,-2.31522 -4.0409,-2.80563 l -2.4091,-0.34293 -0.09,-1.54266 c -0.073,-1.24992 0.013,-1.58889 0.45,-1.78626 0.297,-0.13398 4.725,-0.1761 9.84,-0.0936 l 9.3,0.15 0,1.61067 0,1.6107 -1.9508,0.49107 c -2.4601,0.61929 -3.4998,1.36539 -4.7151,3.38355 -0.5312,0.88221 -4.8918,10.71082 -9.69,21.84136 -4.7983,11.13054 -8.8689,20.41179 -9.0459,20.625 -0.4365,0.52599 -5.1538,0.5367 -5.5791,0.0126 z m 161.7809,0.066 c -1.155,-0.14073 -3.7341,-0.61491 -5.7312,-1.05375 -3.4164,-0.75069 -3.6862,-0.76947 -4.5601,-0.31755 -1.107,0.5724 -2.7261,0.63111 -2.9056,0.10533 -0.07,-0.20625 -0.53,-3.345 -1.0214,-6.975 -0.8205,-6.06129 -0.8536,-6.6306 -0.4052,-6.975 0.8709,-0.66903 3.0735,-0.39912 3.0735,0.37659 0,0.21309 0.6078,1.60164 1.3507,3.08565 1.6879,3.37164 3.8137,5.61375 6.644,7.00734 1.9243,0.94749 2.2239,1.00542 5.1986,1.00542 2.6564,0 3.3475,-0.10218 4.3606,-0.64485 2.6405,-1.41426 4.0285,-3.62463 4.0395,-6.43296 0.015,-3.88707 -3.328,-7.2186 -12.2202,-12.17733 -6.6531,-3.71019 -9.54,-6.1818 -11.2301,-9.61497 -0.92,-1.86886 -0.9917,-2.22745 -0.9744,-4.8736 0.014,-2.1984 0.1694,-3.23634 0.6728,-4.5063 1.4446,-3.64368 4.7705,-6.59865 8.8454,-7.85898 3.2315,-0.99948 8.1046,-0.93393 13.2195,0.17781 3.583,0.77877 5.0554,0.85884 6.6436,0.36132 0.33,-0.10338 0.754,-0.085 0.9422,0.0409 0.3672,0.24558 1.7242,11.94777 1.4391,12.4092 -0.092,0.14832 -0.7547,0.2697 -1.4733,0.2697 l -1.3066,0 -1.2362,-2.55399 c -2.7026,-5.58351 -7.7,-8.51922 -13.0266,-7.65228 -3.7134,0.60435 -5.8192,2.90133 -5.5195,6.02052 0.2801,2.91456 2.2787,4.69116 10.2809,9.13864 10.3865,5.77266 14.0145,9.52272 14.929,15.43128 0.3875,2.50338 -0.036,5.39649 -1.1367,7.77327 -0.8755,1.88949 -3.3415,4.57632 -5.444,5.93121 -3.321,2.14017 -8.5046,3.1047 -13.4483,2.50233 z m -32.4295,-0.43668 c -3.546,-0.77148 -6.3471,-2.67561 -8.3295,-5.66232 -0.5715,-0.86094 -2.2829,-3.72006 -3.8033,-6.35364 -1.5203,-2.63358 -3.3549,-5.70447 -4.0769,-6.82419 l -1.3128,-2.03583 -2.924,0.0858 -2.924,0.0859 0.01,6.6 c 0.013,8.81262 0.2606,9.36711 4.5321,10.15548 l 2.058,0.37983 0,1.63236 0,1.63233 -12.3,0 -12.3,0 -0.088,-1.65657 -0.088,-1.65657 2.1105,-0.33231 c 2.4249,-0.38184 3.3853,-0.91206 4.1341,-2.28237 0.4913,-0.89916 0.5312,-2.30181 0.5312,-18.67218 0,-17.10412 -0.02,-17.73304 -0.5934,-18.68137 -0.7035,-1.16331 -2.6165,-2.16864 -4.1267,-2.16864 -1.8363,0 -2.0299,-0.18849 -2.0299,-1.97637 0,-1.43106 0.076,-1.62768 0.675,-1.75008 0.914,-0.18666 18.4014,-0.78285 22.8119,-0.77769 9.5521,0.0111 16.3871,1.87227 20.0776,5.46693 4.6436,4.52301 4.611,13.08322 -0.067,17.63992 -1.529,1.48926 -4.9119,3.34551 -6.8188,3.74163 -0.5344,0.111 -1.0461,0.32247 -1.1372,0.46989 -0.091,0.14742 0.5673,1.23012 1.4632,2.406 0.8958,1.17588 2.4711,3.64362 3.5005,5.48388 3.5768,6.39429 4.2925,7.50912 5.8145,9.05751 1.4468,1.47192 2.8103,2.19288 5.0555,2.6733 0.7758,0.16599 0.825,0.27276 0.825,1.78872 0,1.19334 -0.1232,1.65948 -0.4745,1.79427 -0.869,0.33348 -8.3485,0.14025 -10.2049,-0.26361 z m -12.3542,-25.6386 c 2.0697,-0.78663 4.0188,-2.59326 5.0335,-4.66569 0.6542,-1.3362 0.7353,-1.89633 0.7423,-5.12929 0.01,-3.56241 -0.011,-3.6672 -1.0421,-5.68869 -1.2347,-2.42163 -3.0741,-3.98451 -5.6692,-4.81674 -1.9046,-0.61077 -7.9553,-0.70572 -9.4058,-0.14757 l -0.825,0.31743 0,10.02069 c 0,7.66768 0.088,10.09402 0.3762,10.33294 0.5695,0.47262 2.1351,0.61266 5.7738,0.51648 2.5032,-0.0662 3.7144,-0.24477 5.0163,-0.73956 z m -191.1378,24.34905 c -8.2557,-8.76432 -35.0003,-36.05746 -35.2508,-35.97385 -0.5179,0.17286 -0.4527,29.10601 0.069,30.57907 0.5468,1.54416 1.7846,2.32941 4.2807,2.71578 l 2.0993,0.32496 -0.088,1.66965 -0.088,1.66965 -9.264,0.0794 c -6.5856,0.0565 -9.3828,-0.0192 -9.675,-0.26172 -0.4332,-0.35955 -0.5564,-2.29008 -0.1814,-2.84211 0.1212,-0.17844 1.1185,-0.47046 2.2162,-0.64893 2.3569,-0.38319 3.3307,-0.94977 3.9783,-2.31453 0.4186,-0.88209 0.4759,-3.24381 0.4759,-19.62471 l 0,-18.62197 -0.9257,-0.47871 c -0.5091,-0.26328 -1.7579,-0.57051 -2.775,-0.68271 l -1.8493,-0.204 -0.092,-1.44831 c -0.1508,-2.36337 -0.3636,-2.30229 8.0041,-2.29728 5.3021,0.003 7.5736,0.10908 8.0447,0.375 0.3611,0.20382 7.5161,7.45209 15.9,16.10727 l 15.2436,15.73669 0.078,-12.55326 c 0.072,-11.52928 0.035,-12.62689 -0.45,-13.45534 -0.8307,-1.41834 -1.8882,-2.02908 -3.846,-2.22117 -2.2007,-0.21597 -2.5323,-0.4659 -2.5323,-1.9089 0,-2.11104 -0.1221,-2.08524 9.8464,-2.08011 4.897,0.003 9.0801,0.11655 9.2959,0.25341 0.2647,0.16785 0.3623,0.77622 0.3,1.87038 l -0.092,1.62162 -1.9384,0.21375 c -2.1594,0.23814 -3.1461,0.8133 -4.0616,2.3676 -0.5806,0.98577 -0.6048,1.7013 -0.75,22.16866 l -0.15,21.15 -2.2215,0.0891 -2.2215,0.0891 -1.3785,-1.46343 z m 20.7944,0.72291 c -0.088,-0.23046 -0.1185,-1.00581 -0.067,-1.72302 l 0.094,-1.30401 1.95,-0.32526 c 2.6867,-0.44817 3.7231,-1.05615 4.3128,-2.5299 0.4299,-1.07448 0.4871,-3.25356 0.4867,-18.53652 0,-15.89134 -0.044,-17.40466 -0.525,-18.35875 -0.697,-1.38174 -2.1468,-2.16984 -4.3861,-2.38422 l -1.8384,-0.17598 -0.092,-1.62162 c -0.062,-1.09416 0.035,-1.70253 0.3,-1.87038 0.5124,-0.32499 23.9722,-0.32499 24.4846,0 0.2647,0.16785 0.3623,0.77622 0.3,1.87038 l -0.092,1.62162 -1.8,0.17514 c -2.2364,0.21762 -3.5824,0.89691 -4.2699,2.15493 -0.4898,0.89628 -0.5301,2.31414 -0.5301,18.66994 0,19.20549 -0.037,18.75645 1.65,19.99797 0.4125,0.30357 1.695,0.72243 2.85,0.93081 l 2.1,0.37887 0,1.64616 0,1.64619 -12.3831,0.0783 c -10.3758,0.0656 -12.4092,0.0105 -12.544,-0.34068 z m 88.4987,-0.003 c -0.088,-0.22863 -0.1172,-1.00248 -0.066,-1.71969 l 0.094,-1.30401 2.0403,-0.33315 c 2.308,-0.37686 3.4231,-1.05609 4.1842,-2.5488 0.4815,-0.94434 0.5246,-2.45535 0.5246,-18.42867 0,-15.9652 -0.043,-17.48659 -0.5246,-18.45001 -0.6409,-1.28304 -2.6873,-2.39805 -4.4131,-2.40459 -1.7604,-0.007 -2.0129,-0.2685 -1.9047,-1.97442 l 0.093,-1.47099 20.9829,-0.0771 c 11.5407,-0.0424 21.0861,0.0261 21.2121,0.15204 0.126,0.126 0.2686,2.72568 0.317,5.77707 l 0.088,5.54796 -1.0757,0.0902 c -1.3243,0.111 -1.5312,-0.14271 -2.2053,-2.70477 -0.6486,-2.46543 -1.4918,-3.38334 -3.5042,-3.81492 -0.8497,-0.18225 -4.9682,-0.32049 -9.5475,-0.32049 -7.0666,0 -8.0754,0.0581 -8.2352,0.47454 -0.2376,0.6192 -0.2376,15.53173 0,16.15093 0.1581,0.41208 1.0197,0.47454 6.5455,0.47454 7.2504,0 8.9104,-0.29553 10.1879,-1.81377 0.4184,-0.49713 0.8407,-1.40616 0.9387,-2.02005 0.098,-0.61389 0.2858,-1.31868 0.4176,-1.56619 0.2784,-0.52326 1.2812,-0.72702 2.3087,-0.46914 l 0.7195,0.18057 0,7.91221 c 0,8.65647 0.082,8.27637 -1.7878,8.27637 -1.0493,0 -1.389,-0.41439 -1.6532,-2.01618 -0.1148,-0.69639 -0.4902,-1.62399 -0.8343,-2.06133 -1.2156,-1.54545 -2.1746,-1.7289 -9.7361,-1.86243 l -6.9614,-0.12294 -0.1953,0.77811 c -0.1074,0.42798 -0.1473,3.94227 -0.089,7.80954 0.1001,6.59562 0.1459,7.08393 0.7396,7.87833 l 0.6329,0.8469 8.6671,0 c 8.4763,0 8.6984,-0.0153 10.09,-0.70074 1.7294,-0.8517 2.5775,-1.9827 3.4105,-4.54839 l 0.6335,-1.95087 1.4334,-0.0931 c 0.7884,-0.0512 1.5377,0.0162 1.6651,0.15 0.2787,0.29241 -0.6617,11.78289 -1.0081,12.31815 -0.3786,0.58497 -43.961,0.54483 -44.1857,-0.0407 z m 155.6377,-1.45932 c 0.082,-1.43187 0.1588,-1.58184 0.8407,-1.65036 3.4858,-0.35025 5.1097,-1.31658 5.7059,-3.39525 0.1769,-0.61689 0.2915,-7.77921 0.2875,-17.97741 -0.01,-15.98803 -0.039,-17.02315 -0.5749,-18.20359 -0.7401,-1.63005 -1.6616,-2.19792 -4.221,-2.60091 l -2.0975,-0.3303 0,-1.58691 0,-1.58694 12.375,0.0783 12.375,0.0783 0,1.48233 0,1.48236 -2.0956,0.38676 c -2.384,0.43998 -3.3776,1.0464 -4.1289,2.51988 -0.4814,0.9441 -0.5246,2.45139 -0.525,18.33415 0,11.53074 0.1063,17.58729 0.3195,18.15 0.7179,1.89486 2.0392,2.73924 4.78,3.05466 l 1.65,0.18987 0.091,1.575 0.091,1.575 -12.4813,0 -12.4814,0 0.091,-1.575 z m 40.944,1.37832 c -0.1118,-0.11184 -0.2033,-0.78576 -0.2033,-1.4976 0,-1.42107 -0.042,-1.3938 2.7098,-1.74795 1.7935,-0.23079 3.0732,-1.04454 3.6915,-2.34747 0.457,-0.96321 0.4961,-2.79 0.4259,-19.9104 l -0.077,-18.84991 -5.7,0.0141 c -8.2931,0.0204 -8.7352,0.28554 -10.4735,6.28164 -0.4252,1.46679 -0.9427,2.77941 -1.1498,2.91696 -0.395,0.26223 -2.3368,0.0361 -2.6708,-0.31095 -0.2307,-0.23976 1.0701,-13.62738 1.3714,-14.11503 0.315,-0.50964 1.6699,-0.39279 3.1304,0.26997 1.2621,0.5727 2.0109,0.59304 21.45,0.58278 16.8963,-0.009 20.2632,-0.0797 20.8923,-0.43938 0.6113,-0.34947 3.2543,-0.64824 3.3173,-0.375 0.2639,1.14393 1.3382,13.94898 1.1846,14.11923 -0.1212,0.13434 -0.8065,0.20184 -1.5229,0.15 l -1.3024,-0.0942 -0.7861,-2.7 c -1.758,-6.03843 -2.6352,-6.52956 -11.4004,-6.38274 l -4.9401,0.0827 -0.077,18.40933 c -0.05,11.8392 0.032,18.81558 0.2291,19.54761 0.4334,1.60926 2.0061,2.9049 3.8105,3.13917 2.9244,0.37968 2.83,0.31437 2.7287,1.88865 l -0.091,1.41525 -12.1717,0.0783 c -6.6944,0.0431 -12.2632,-0.0132 -12.375,-0.12501 z M 610.2,312.49587 c 0,-1.64949 -0.05,-1.6134 2.674,-1.91514 1.4301,-0.1584 2.4813,-0.79875 3.4574,-2.10606 0.6088,-0.81528 0.6186,-1.1154 0.6186,-18.93438 0,-17.93746 -0.01,-18.11392 -0.6314,-18.95308 -0.9148,-1.22736 -2.2039,-1.87953 -4.207,-2.12829 l -1.7616,-0.21879 -0.094,-1.31577 c -0.052,-0.72366 0.039,-1.44903 0.2019,-1.61193 0.1935,-0.19353 7.4693,-0.21879 20.9904,-0.0729 l 20.6943,0.22335 0.2153,4.08861 c 0.1185,2.24874 0.2327,4.69611 0.2538,5.43861 l 0.038,1.35 -1.1794,0 -1.1794,0 -0.4833,-1.98261 c -0.6037,-2.47632 -1.2511,-3.47976 -2.6563,-4.11744 -0.9497,-0.43101 -2.3427,-0.49995 -10.1016,-0.49995 l -9,0 -0.08,8.61813 -0.08,8.61814 0.7291,0.18297 c 0.4009,0.10065 3.6092,0.13749 7.1296,0.0819 6.0041,-0.0948 6.4892,-0.14481 7.8337,-0.80682 1.5647,-0.77049 2.227,-1.73505 2.5697,-3.7422 0.2088,-1.22344 0.2409,-1.25209 1.4054,-1.25209 l 1.1917,0 0.08,7.8925 0.08,7.89249 -1.2732,-0.0925 c -1.2559,-0.0912 -1.2764,-0.11088 -1.5021,-1.44204 -0.4112,-2.42466 -1.8651,-3.7569 -4.5863,-4.20249 -2.1822,-0.35733 -12.7412,-0.3885 -13.2919,-0.0392 -0.3125,0.19821 -0.3743,1.90029 -0.3,8.27184 l 0.093,8.0223 0.8417,0.72357 0.8417,0.72357 7.7289,0 c 8.1993,0 9.9524,-0.23052 11.8115,-1.5531 1.0486,-0.74598 2.1857,-2.69214 2.642,-4.5219 l 0.3554,-1.425 1.4644,0 c 0.9818,0 1.4644,0.12522 1.4644,0.38004 0,1.17402 -0.9544,11.46528 -1.0825,11.67255 -0.084,0.13608 -10,0.24741 -22.0352,0.24741 l -21.8823,0 0,-1.49427 z m 17.5943,-52.73399 c -0.1011,-0.16361 2.4126,-2.93974 5.5859,-6.16917 4.9435,-5.03083 5.9508,-5.9181 7.0338,-6.19575 0.9959,-0.25529 1.484,-0.23213 2.3009,0.10917 1.2357,0.51631 1.6851,1.25296 1.6851,2.76219 0,1.65727 -1.33,2.69929 -8.1,6.34609 -5.6343,3.03503 -8.0278,3.92072 -8.5057,3.14747 z m -243.768,-28.89182 c -60.7508,-2.35923 -118.9322,-20.12668 -163.539,-49.94155 -35.7852,-23.9186 -61.019,-54.82564 -71.6334,-87.738381 -1.9075,-5.91477 -4.4312,-16.57039 -4.065,-17.16301 0.1935,-0.31304 77.4317,-0.3082 77.6252,0.005 0.082,0.13303 0.8926,2.59678 1.8009,5.475 3.3866,10.73131 6.8993,19.346661 12.225,29.983151 24.0466,48.02644 66.0629,83.62629 115.01,97.44637 34.0917,9.6257 70.3596,8.61399 104.25,-2.90811 26.3205,-8.94849 49.6682,-23.5854 69.9105,-43.82774 9.2679,-9.26793 16.8498,-18.5234 23.8465,-29.11052 10.5718,-15.99662 19.3204,-35.212361 24.1413,-53.025011 l 0.9946,-3.675 19.2286,0.0432 c 10.5756,0.0237 27.9527,0.12498 38.6157,0.225 l 19.3872,0.18184 -0.8479,4.21184 c -3.0781,15.28999 -10.0814,31.659121 -19.7764,46.224711 -22.3222,33.53615 -60.0475,61.83268 -107.5358,80.65907 -42.56,16.87262 -90.9738,24.82417 -139.638,22.93432 z M 390.6,207.48965 c -30.0247,-1.38238 -59.512,-11.18969 -85.2088,-28.33997 -10.5297,-7.02761 -17.2581,-12.5856 -26.8616,-22.18913 -14.7203,-14.72034 -24.4352,-28.1547 -33.5319,-46.37042 -9.9294,-19.882891 -15.787,-40.399061 -17.7304,-62.100002 -0.3709,-4.142028 -0.5807,-8.489862 -0.4885,-10.126149 0.017,-0.299865 7.7327,-0.360705 38.0462,-0.3 l 38.025,0.07615 0.072,2.55 c 0.1002,3.553956 0.8729,13.203584 1.7463,21.808304 4.945,48.715907 15.7389,82.771617 32.7741,103.405067 6.9164,8.37723 16.053,15.42534 25.4422,19.62625 17.4326,7.79976 41.0854,9.03592 61.205,3.19875 34.294,-9.94949 54.7314,-40.30936 64.0108,-95.088371 2.5441,-15.01823 4.4678,-33.592006 5.2745,-50.925 l 0.206,-4.425 14.2846,2.13e-4 c 7.8566,1.17e-4 24.7128,0.08982 37.4584,0.199347 l 23.1736,0.199134 -0.1673,3.925653 c -1.3594,31.893593 -10.6823,61.037344 -27.8924,87.193154 -6.6841,10.15842 -14.0935,19.06234 -23.577,28.3325 -33.8929,33.13067 -80.7498,51.44491 -126.2606,49.34952 z M 393,185.39907 C 362.611,183.15335 341.5603,166.01122 328.58,132.94013 317.6341,105.05226 312.3298,67.975989 311.5056,13.592144 l -0.2026,-13.36624907 0.7235,-0.169728 c 0.3979,-0.09335 16.5185,-0.06765 35.8235,0.05711 l 35.1,0.226845 0.1548,79.35000707 c 0.1397,71.660751 0.2013,79.498001 0.6352,80.877341 2.049,6.51283 6.5758,10.27562 13.0182,10.82095 6.419,0.54336 13.0377,-2.95066 15.7533,-8.3161 2.0261,-4.0031 1.8545,2.99735 2.0557,-83.832191 l 0.1828,-78.90000707 35.1,0 35.1,0 -0.051,12.90000107 c -0.095,24.173308 -1.5904,48.402525 -4.1751,67.650006 -7.7552,57.749261 -26.6039,90.391781 -58.2667,100.907111 -4.4591,1.48087 -9.9604,2.68474 -14.4575,3.16376 -3.2664,0.34792 -12.5507,0.61907 -15,0.43807 z"
     id="path6080"
     inkscape:connector-curvature="0" />
</svg>
