<?xml version="1.0" encoding="UTF-8" standalone="no"?>
<!-- Created with Inkscape (http://www.inkscape.org/) -->

<svg
   xmlns:dc="http://purl.org/dc/elements/1.1/"
   xmlns:cc="http://creativecommons.org/ns#"
   xmlns:rdf="http://www.w3.org/1999/02/22-rdf-syntax-ns#"
   xmlns:svg="http://www.w3.org/2000/svg"
   xmlns="http://www.w3.org/2000/svg"
   xmlns:xlink="http://www.w3.org/1999/xlink"
   xmlns:sodipodi="http://sodipodi.sourceforge.net/DTD/sodipodi-0.dtd"
   xmlns:inkscape="http://www.inkscape.org/namespaces/inkscape"
   id="svg2"
   version="1.1"
   inkscape:version="0.91 r13725"
   width="1760.0955"
   height="2312.844"
   viewBox="0 0 1760.0955 2312.844"
   sodipodi:docname="logo_GSMA_URCA.svg">
  <metadata
     id="metadata8">
    <rdf:RDF>
      <cc:Work
         rdf:about="">
        <dc:format>image/svg+xml</dc:format>
        <dc:type
           rdf:resource="http://purl.org/dc/dcmitype/StillImage" />
        <dc:title></dc:title>
      </cc:Work>
    </rdf:RDF>
  </metadata>
  <defs
     id="defs6">
    <linearGradient
       id="linearGradient4141"
       inkscape:collect="always">
      <stop
         id="stop4143"
         offset="0"
         style="stop-color:#250000;stop-opacity:1" />
      <stop
         style="stop-color:#934513;stop-opacity:1"
         offset="0.5"
         id="stop4149" />
      <stop
         id="stop4145"
         offset="1"
         style="stop-color:#ccb334;stop-opacity:1" />
    </linearGradient>
    <linearGradient
       gradientUnits="userSpaceOnUse"
       y2="81.514931"
       x2="645.83331"
       y1="300.26492"
       x1="376.04166"
       id="linearGradient4147"
       xlink:href="#linearGradient4141"
       inkscape:collect="always"
       gradientTransform="matrix(2.2207544,0,0,2.2207544,0,1294.4099)" />
  </defs>
  <sodipodi:namedview
     pagecolor="#ffffff"
     bordercolor="#666666"
     borderopacity="1"
     objecttolerance="10"
     gridtolerance="10"
     guidetolerance="10"
     inkscape:pageopacity="0"
     inkscape:pageshadow="2"
     inkscape:window-width="2560"
     inkscape:window-height="1035"
     id="namedview4"
     showgrid="false"
     inkscape:zoom="0.17673888"
     inkscape:cx="1048.2004"
     inkscape:cy="1906.3096"
     inkscape:window-x="0"
     inkscape:window-y="0"
     inkscape:window-maximized="1"
     inkscape:current-layer="svg2"
     fit-margin-top="0"
     fit-margin-left="0"
     fit-margin-right="0"
     fit-margin-bottom="0" />
  <g
     id="g4220"
     transform="translate(0.71837743,0)">
    <path
       inkscape:connector-curvature="0"
       id="path4185"
       d="m 1.8120683,1238.0594 c 0,-2.8834 43.3614327,-45.8585 65.0139067,-64.4346 77.342035,-66.3536 172.584655,-119.8074 282.060335,-158.3031 26.01904,-9.1493 98.94234,-31.06011 108.0231,-32.45709 2.20048,-0.33852 19.75423,-3.82451 39.00835,-7.74664 39.26874,-7.99918 75.74464,-13.55672 123.02631,-18.74452 25.85824,-2.83719 49.87629,-3.51418 125.02675,-3.52411 83.63447,-0.011 97.02723,0.44442 132.73705,4.51408 152.72013,17.40471 285.43133,56.76308 400.37703,118.74038 74.6337,40.2416 130.4496,81.6008 187.0099,138.5733 l 24.9754,25.1573 -30.427,0 -30.427,0 -19.8015,-16.558 c -70.8051,-59.2067 -175.2461,-115.4625 -279.3615,-150.4742 -122.6717,-41.2519 -246.66992,-60.9425 -384.11632,-60.9968 -161.16561,-0.064 -306.9986,26.9719 -443.40134,82.201 -86.92747,35.1968 -154.79677,74.7842 -224.905424,131.185 l -18.201849,14.643 -28.3081,0 c -15.569454,0 -28.3080987,-0.7988 -28.3080987,-1.775 z"
       style="fill:#ffffff;fill-opacity:1;fill-rule:nonzero;stroke:none;stroke-width:0.1;stroke-miterlimit:4;stroke-dasharray:none;stroke-opacity:1" />
    <path
       style="fill:#fbfb03"
       d="m 125.80885,1119.67 c -4.12216,-6.6112 -9.66698,-18.1574 -12.97247,-27.0133 C 84.118968,1015.7188 111.82087,931.07312 180.80964,884.95818 211.15892,864.67147 243.86588,854.8398 281,854.8411 c 29.53304,10e-4 55.76105,5.97179 80.19245,18.25566 42.31646,21.2763 73.50442,55.85787 89.19753,98.90324 1.50385,4.125 3.13289,8.24387 3.62008,9.15305 0.75062,1.40079 -0.13634,1.91372 -5.81213,3.36119 -3.68386,0.93948 -8.72293,2.27941 -11.19793,2.97763 -2.475,0.69821 -7.2,1.99258 -10.5,2.87636 -65.6148,17.57257 -128.8251,41.12807 -187,69.68607 -38.65786,18.9771 -58.78551,30.3755 -94.5,53.516 -17.78033,11.5204 -16.13688,10.9981 -19.19115,6.0997 z"
       id="path4146"
       inkscape:connector-curvature="0" />
    <path
       style="fill:#01cafd"
       d="m 61,1239.6767 c 0,-0.5915 17.03333,-14.8375 29.070707,-24.3136 C 165.43012,1156.0386 258.68429,1106.9846 361.5,1072.5847 c 24.85803,-8.317 48.35819,-15.6261 56,-17.4173 2.2,-0.5157 10.075,-2.5395 17.5,-4.4973 46.56916,-12.2794 102.51252,-22.9097 153,-29.073 23.42247,-2.8593 30.4978,-3.5604 56,-5.5494 127.95195,-9.9794 259.35305,-0.4872 379,27.3782 30.4196,7.0846 48.5742,11.9749 76.5,20.6068 17.6282,5.4489 55.7631,18.3582 61.5,20.8188 1.375,0.5898 9.925,3.9834 19,7.5415 43.5398,17.0708 95.7292,42.7961 136.5,67.2841 26.7054,16.0399 58.5815,37.9407 80.3465,55.2031 9.5684,7.5889 29.1535,24.222 29.1535,24.7593 0,0.1983 -307.125,0.3605 -682.5,0.3605 -375.375,0 -682.5,-0.1455 -682.5,-0.3233 z m 991.603,-657.51003 c -0.2833,-0.45834 0.1204,-0.83334 0.897,-0.83334 0.7766,0 1.1803,0.375 0.897,0.83334 -0.2833,0.45833 -0.6869,0.83333 -0.897,0.83333 -0.2101,0 -0.6137,-0.375 -0.897,-0.83333 z"
       id="path4144"
       inkscape:connector-curvature="0" />
    <path
       style="fill:#00007d"
       d="M 1474.9503,1224.3477 C 1404.8986,1148.4692 1309.4116,1084.1035 1196,1036.3133 c -5.775,-2.4335 -13.425,-5.553 -17,-6.9323 -3.575,-1.3793 -9.2,-3.5987 -12.5,-4.932 -7.1476,-2.888 -44.5061,-16.1562 -49.5,-17.5805 -1.925,-0.549 -9.125,-2.7617 -16,-4.9171 -89.5148,-28.06409 -190.26183,-45.4459 -295.16423,-50.92443 -28.81808,-1.50503 -99.96771,-1.26009 -130.33577,0.4487 -62.53586,3.51883 -117.19955,10.17845 -169.73754,20.67894 -5.35565,1.0704 -12.10565,2.35768 -15,2.86062 -2.89436,0.50294 -11.99007,2.51157 -20.21271,4.46363 C 453.62342,983.49719 454.4658,983.69573 451.5472,975 433.00871,919.76621 385.55069,876.02677 327.35265,860.53675 311.22038,856.24298 299.81693,854.84176 281,854.8411 c -22.6667,-7.9e-4 -40.27449,2.93473 -60.46135,10.07994 -44.50852,15.75396 -83.21329,50.62759 -102.48462,92.3403 -22.564967,48.84176 -21.831716,104.33306 2.00697,151.88426 2.30354,4.5949 5.03218,9.5489 6.06363,11.0088 1.03145,1.4599 1.87537,3.1271 1.87537,3.7049 0,0.5778 -4.6125,4.2984 -10.25,8.2681 -36.361332,25.604 -81.707787,65.6571 -109.7750778,96.961 L 0,1237.983 -0.0128172,1231.2415 C -0.01986666,1227.5337 0.6800127,1221.35 1.5424703,1217.5 2.862011,1211.6096 39.902074,1033.8237 56.023605,956 c 2.677472,-12.925 6.044362,-29.125 7.481977,-36 14.791904,-70.73823 68.229988,-327.1651 70.020728,-336 1.28201,-6.325 4.64418,-22.525 7.47149,-36 2.82731,-13.475 6.20953,-29.675 7.51603,-36 1.3065,-6.325 15.9349,-76.525 32.50755,-156 16.57264,-79.475 32.31752,-155.075 34.98861,-168 2.67109,-12.925 12.53656,-60.33163 21.92327,-105.348059 C 247.31997,37.635508 255,0.62300818 255,0.40194076 255,0.18087334 591.825,0 1003.5,0 1529.3059,0 1752,0.31485493 1752,1.0582629 1752,1.6403075 1741.6118,51.927808 1728.9151,112.80826 1716.2184,173.68872 1704.7706,228.675 1703.4754,235 c -1.2951,6.325 -4.6623,22.525 -7.4826,36 -8.5095,40.65752 -15.0085,71.85118 -17.5009,84 -1.2976,6.325 -13.678,65.725 -27.5119,132 -13.834,66.275 -26.2116,125.675 -27.506,132 -1.2944,6.325 -4.6609,22.525 -7.4812,36 -8.5095,40.65752 -15.0085,71.85118 -17.5009,84 -1.2976,6.325 -13.678,65.725 -27.5119,132 -13.834,66.275 -26.21,125.675 -27.5023,132 -1.2923,6.325 -6.9098,33.325 -12.4832,60 -10.4147,49.8456 -12.7085,60.8694 -27.4656,132 -4.7355,22.825 -8.847,42.2875 -9.1368,43.25 -1.3245,4.3991 -4.9182,1.8293 -19.4418,-13.9023 z M 376,711.50286 c 28.18378,-4.42937 55.0033,-13.52309 81.86558,-27.75827 13.2035,-6.99695 19.73233,-11.54109 25.75946,-17.92889 11.03249,-11.69268 11.3418,-13.55823 11.36018,-68.51648 0.018,-53.84194 -0.55724,-57.58195 -10.48976,-68.20061 C 474.29324,518.1916 466.52619,517.01165 405,517.02185 c -37.71164,0.006 -47.69637,0.28975 -52.83012,1.50001 -9.89648,2.33306 -18.30429,8.99747 -22.05041,17.47814 -4.33976,9.82458 -3.60461,21.68978 1.87968,30.33761 2.13968,3.37393 4.44227,5.36063 8.70503,7.51078 10.48564,5.28902 11.71821,5.44886 46.79582,6.06859 l 33,0.58302 0.26946,22.37409 c 0.20401,16.93897 -0.0389,22.7468 -1,23.9084 -0.6982,0.84388 -5.09446,3.30174 -9.76946,5.46192 -27.30902,12.61868 -50.03525,17.47115 -77.26589,16.49768 -17.52578,-0.62652 -29.67891,-3.54021 -42.44408,-10.17586 -26.62302,-13.83932 -42.80604,-38.4525 -49.41283,-75.15324 -2.89077,-16.05825 -3.18603,-49.23234 -0.56204,-63.14876 4.19161,-22.23043 10.83434,-38.54918 21.60502,-53.07559 11.66443,-15.73182 27.47759,-25.98742 49.07982,-31.83067 5.02716,-1.35981 10.57863,-1.7695 24.5,-1.80809 20.80032,-0.0576 24.95376,0.70291 38,6.95828 14.16423,6.79143 21.9399,14.63131 37.30644,37.61456 8.09507,12.10754 11.07639,14.95427 20.19356,19.28195 5.81787,2.76158 7.44449,3.0788 15.5,3.02278 11.48081,-0.0798 18.35514,-2.61447 25.97255,-9.57635 10.60648,-9.69373 14.50502,-22.76549 11.10757,-37.24352 -1.83477,-7.81875 -7.78719,-21.11443 -12.66123,-28.28088 -4.49404,-6.60774 -16.92653,-19.40861 -25.60095,-26.35953 C 431.75436,368.09851 405.5264,356.90403 382,351.94213 c -13.35026,-2.81566 -51.96751,-3.90468 -70,-1.97402 -47.92733,5.13139 -89.24839,25.55562 -115.4899,57.08451 -21.06513,25.30953 -34.49621,59.16734 -38.48106,97.00524 -1.47236,13.98073 -1.23744,42.64887 0.47076,57.44827 4.95971,42.96969 22.92487,80.87103 50.73201,107.02999 25.32405,23.82306 59.77095,39.05892 99.26819,43.90632 15.6277,1.91796 52.59157,1.40342 67.5,-0.93958 z m 340.15826,0.95202 c 44.81845,-5.61103 77.92708,-23.91097 97.67016,-53.98466 9.37372,-14.27854 14.39866,-29.46694 16.21842,-49.02183 2.26083,-24.29444 -2.95289,-47.4154 -14.67402,-65.07404 C 798.66229,519.19888 764.14051,501.38119 706,487.92389 c -4.675,-1.08208 -11.875,-2.90411 -16,-4.04896 -4.125,-1.14485 -9.975,-2.75918 -13,-3.5874 -19.72921,-5.40172 -30.23214,-10.17641 -38.40127,-17.45744 -7.14361,-6.36699 -9.54719,-11.23194 -9.57677,-19.38375 -0.0546,-15.04096 14.01469,-28.30981 35.08818,-33.09197 10.72992,-2.43492 30.94539,-2.18178 41.14362,0.5152 16.83377,4.45179 24.68116,12.4405 40.83986,41.57533 5.992,10.80384 13.79452,18.63661 20.77121,20.85174 7.29618,2.31657 17.78068,2.19699 24.8375,-0.28329 11.33109,-3.98255 21.03048,-15.91558 23.2374,-28.58867 2.23255,-12.82023 -2.25605,-30.84513 -11.09871,-44.56912 -5.35699,-8.31417 -20.50992,-23.3523 -29.34102,-29.11872 -15.71777,-10.26319 -37.47633,-17.92564 -58.82236,-20.71476 -11.80354,-1.54227 -46.55847,-1.27069 -58.88873,0.46017 -56.5249,7.93469 -92.37805,35.9116 -101.26059,79.01564 -2.60254,12.62927 -2.21805,33.5394 0.83811,45.58007 6.12015,24.11213 22.51348,44.11917 46.95942,57.31105 17.68364,9.5427 39.02475,16.71508 78.97273,26.54135 28.80324,7.08492 41.5227,11.41523 50.26991,17.11426 10.53191,6.86181 15.07062,12.80949 17.42935,22.83999 5.15837,21.93595 -10.57641,42.39492 -38.99784,50.7065 -5.35008,1.56458 -9.68439,1.89454 -24.5,1.86513 -20.3915,-0.0405 -25.0677,-1.09674 -37.63727,-8.50155 -11.3249,-6.67157 -17.80664,-15.3931 -27.41115,-36.88317 -8.95679,-20.0408 -14.27518,-26.8263 -24.79324,-31.63265 -5.28726,-2.41607 -6.71719,-2.63112 -15.06707,-2.26592 -11.21432,0.49047 -18.18139,3.54328 -25.19258,11.03882 -7.47614,7.99259 -8.90424,12.22682 -8.86637,26.28823 0.0387,14.35691 1.55038,20.49187 8.69832,35.29994 18.88288,39.11888 56.04685,62.68772 107.38585,68.10254 13.44522,1.41809 39.40594,1.19693 52.54177,-0.4476 z M 935.5,711.14617 c 5.39922,-2.42085 12.36804,-8.63023 15.69921,-13.98835 1.14282,-1.8382 2.91551,-6.53277 3.93932,-10.43237 C 956.9023,680.00741 957,673.55625 957,563.81763 957,499.63904 957.38431,448 957.86195,448 c 0.47407,0 1.34943,2.3625 1.94526,5.25 2.05067,9.93807 6.03645,28.46057 22.64836,105.25 9.16161,42.35 18.00683,83.975 19.65613,92.5 6.6198,34.21796 13.9181,49.07401 28.2272,57.45793 11.6,6.79662 31.4212,7.37307 44.4411,1.29246 9.2307,-4.31096 18.0286,-14.96204 22.2156,-26.8952 3.4985,-9.97087 8.8308,-31.25399 13.8687,-55.35519 2.7592,-13.2 12.2435,-58.29809 21.0762,-100.21799 8.8327,-41.91989 16.0595,-76.45739 16.0595,-76.75 0,-0.2926 0.45,-0.53201 1,-0.53201 0.6608,0 1.004,39.09125 1.0119,115.25 0.013,123.20005 -0.1381,119.24622 4.9578,130.00054 3.0406,6.41679 11.6126,14.07151 18.7836,16.77371 4.7558,1.79206 7.3162,2.09914 14.8484,1.78087 7.825,-0.33064 10.0404,-0.84669 15.7931,-3.67869 10.9358,-5.38372 17.2222,-15.2779 19.6318,-30.89911 0.6911,-4.47985 0.9435,-54.66786 0.7556,-150.22732 l -0.2822,-143.5 -2.4007,-6.78037 C 1217.912,366.89289 1210.066,360.39511 1195,356.27679 c -5.4422,-1.48763 -10.65,-1.77505 -32,-1.76613 -27.2737,0.0114 -33.6424,0.77433 -42.09,5.04204 -8.9663,4.5297 -13.2649,11.55414 -19.2444,31.4473 -2.9477,9.80691 -19.3288,75.71868 -35.2913,142 -8.876,36.85577 -11.8927,48.13932 -12.8743,48.15448 -0.9575,0.0148 -5.2276,-16.10859 -14.872,-56.15448 -14.0597,-58.37959 -29.9863,-122.49453 -32.6218,-131.32435 -8.09032,-27.10528 -12.87804,-33.28357 -29.0062,-37.43094 -9.01572,-2.31841 -48.2318,-2.85877 -59.9174,-0.82561 -18.34965,3.19263 -28.08017,10.40946 -32.35395,23.99594 L 882.5,386.5 l 0,147 c 0,139.84825 0.0894,147.29191 1.83833,153 4.06848,13.27881 10.12008,20.39022 21.39029,25.13633 5.02814,2.11745 6.99479,2.38674 15.27138,2.09107 7.14743,-0.25533 10.7382,-0.89455 14.5,-2.58123 z m 388.5,0.0837 c 11.0614,-4.94976 16.3182,-14.3994 33.5055,-60.22984 l 9.188,-24.5 64.9033,-0.23884 c 35.6967,-0.13136 65.4394,0.10397 66.0949,0.52296 0.6554,0.41899 4.64,9.75147 8.8547,20.73884 13.2594,34.56662 19.982,48.8537 26.0934,55.45472 7.7913,8.4155 13.0503,10.51402 26.3602,10.51866 9.4057,0.003 11.1253,-0.28791 16.5,-2.79393 11.9293,-5.56222 21.3629,-17.96994 22.9647,-30.205 0.8077,-6.1695 -1.34,-17.14628 -5.8313,-29.80271 -1.7945,-5.05709 -24.0019,-60.2697 -49.3498,-122.6947 -25.3479,-62.425 -48.7392,-120.25 -51.9806,-128.5 -9.8336,-25.02804 -18.8495,-37.78166 -31.4607,-44.50337 -8.6912,-4.63236 -14.8129,-5.97125 -27.3639,-5.98476 -26.8573,-0.0289 -41.2471,10.43977 -53.7652,39.11451 -2.0106,4.60549 -19.7021,49.09862 -39.3144,98.87362 -19.6123,49.775 -39.4759,100.175 -44.1412,112 -26.0827,66.11071 -25.305,63.84858 -25.9584,75.5 -0.427,7.61488 -0.1702,9.88442 1.6687,14.74666 3.7779,9.98947 14.3956,19.78838 25.3181,23.36581 6.1447,2.01254 21.8811,1.22747 27.714,-1.38263 z m 64,-149.14918 c 0,-1.05564 8.3881,-25.91814 18.6402,-55.25 10.2521,-29.33186 19.9541,-57.14516 21.56,-61.80733 3.0213,-8.77135 3.4656,-9.69083 4.2864,-8.87007 0.4437,0.44371 12.8633,35.14925 27.5001,76.84674 3.1856,9.075 8.3167,23.64171 11.4026,32.37046 3.0859,8.72875 5.6107,16.49125 5.6107,17.25 0,1.15205 -7.3381,1.37954 -44.5,1.37954 -43.21,0 -44.5,-0.0556 -44.5,-1.91934 z"
       id="path4142"
       inkscape:connector-curvature="0" />
    <path
       inkscape:connector-curvature="0"
       id="path4138"
       d="m 292.10012,708.63147 c -39.56436,-8.58338 -70.88301,-26.40131 -93.89524,-53.41925 -13.49253,-15.84114 -28.93456,-47.21244 -34.71141,-70.51798 -3.82593,-15.43498 -4.45261,-23.2843 -4.39205,-55.01177 0.0599,-31.39801 0.71518,-39.35563 4.32255,-52.49554 9.85751,-35.90609 20.99911,-56.02527 43.46914,-78.4953 18.29839,-18.2984 31.75339,-26.88878 56.92382,-36.34318 26.58389,-9.98531 51.10486,-13.37367 86.39954,-11.93889 32.77795,1.33248 50.82123,5.74439 76.68397,18.75063 28.66409,14.41504 53.39914,45.27163 56.36511,70.31463 2.41446,20.38624 -12.68993,37.98311 -34.12914,39.76101 -15.28335,1.26742 -25.02173,-4.29206 -36.86038,-21.04295 -15.18497,-21.48573 -25.95958,-32.07409 -39.34258,-38.66252 -11.71012,-5.76488 -13.67856,-6.09498 -36.34578,-6.09498 -19.34936,0 -26.10012,0.79881 -35.05006,4.14741 -31.65271,11.8428 -49.99226,34.50492 -59.93109,74.05667 -3.71204,14.77217 -4.11776,20.59861 -3.13422,45.00963 0.65966,16.37203 2.50562,33.03558 4.43598,40.04344 7.95016,28.86191 26.64057,52.89229 49.57881,63.74383 28.24927,13.36404 70.53078,11.87576 109.41056,-3.85116 20.14605,-8.1491 20.00428,-7.90899 20.00428,-33.88211 l 0,-22.37985 -35.26939,-1.27563 c -38.61226,-1.39652 -45.77283,-3.26738 -53.62056,-14.00955 -5.85113,-8.00918 -5.54053,-24.35083 0.62747,-33.01299 9.25611,-12.99901 11.15521,-13.34495 73.25927,-13.34495 62.89785,0 66.5861,0.6139 77.71852,12.93615 9.02929,9.99435 9.83288,16.63824 8.96424,74.11401 -0.57891,38.30459 -1.20238,45.93637 -4.2021,51.43678 -9.45978,17.34579 -55.76703,40.93514 -99.4843,50.67822 -21.08991,4.70023 -77.65732,5.15498 -97.79496,0.78619 z"
       style="fill:#ffffff;fill-opacity:1;fill-rule:nonzero;stroke:none;stroke-width:0.1;stroke-miterlimit:4;stroke-dasharray:none;stroke-opacity:1" />
    <path
       inkscape:connector-curvature="0"
       id="path4140"
       d="m 662.95349,711.6669 c -49.6635,-5.36143 -86.27392,-28.65925 -105.26701,-66.98891 -8.11574,-16.37824 -8.70501,-18.66809 -8.73028,-33.9252 -0.0246,-14.86078 0.48696,-17.03572 5.57748,-23.71265 7.64291,-10.02472 14.93767,-13.34825 29.2978,-13.34825 10.98998,0 12.79742,0.63355 19.76471,6.92808 4.85082,4.38244 11.05411,13.88417 16.88245,25.85929 10.95744,22.51356 20.88261,34.18041 34.47314,40.52261 8.51497,3.97361 13.19635,4.67052 31.48528,4.68716 23.75465,0.0216 35.38349,-3.09014 48.26464,-12.91506 19.72663,-15.04624 22.58387,-42.48691 5.94507,-57.09598 -10.95699,-9.62037 -20.52036,-13.4747 -59.19072,-23.85566 -45.32528,-12.16744 -58.8398,-16.72712 -76.08281,-25.66964 -36.88714,-19.1303 -55.21891,-55.19719 -49.38799,-97.16856 5.44409,-39.18693 33.64698,-66.92917 80.96268,-79.64026 22.01893,-5.91526 77.28819,-6.49434 97.02075,-1.01653 22.47323,6.23863 41.06768,16.43176 55.13295,30.22284 17.50641,17.16512 23.88395,30.85234 23.88395,51.25875 0,12.85191 -0.75334,16.2492 -4.9667,22.39822 -6.79764,9.92047 -17.31331,15.46509 -29.31293,15.45586 -13.17638,-0.0102 -21.22854,-5.3454 -30.30751,-20.08143 -23.39731,-37.97614 -30.77424,-43.63998 -59.14459,-45.40995 -34.93602,-2.17958 -60.30764,12.76718 -60.30764,35.52803 0,8.40027 0.96574,10.75996 7.0015,17.10746 9.73237,10.23505 22.31814,15.34718 66.38215,26.96339 43.18499,11.38447 63.52732,18.69663 80.7574,29.02868 29.29043,17.56406 43.65862,40.86645 46.18108,74.89655 2.30764,31.13214 -8.94353,61.91486 -30.33355,82.99129 -21.90934,21.58818 -51.02553,33.60473 -89.72589,37.0308 -24.35353,2.15598 -25.8276,2.15436 -46.25541,-0.051 l 0,8e-5 z"
       style="fill:#ffffff;fill-opacity:1;fill-rule:nonzero;stroke:none;stroke-width:0.1;stroke-miterlimit:4;stroke-dasharray:none;stroke-opacity:1" />
    <path
       inkscape:connector-curvature="0"
       id="path4143"
       d="m 905.00526,710.06274 c -9.55094,-4.50895 -13.80127,-8.97908 -17.92756,-18.85468 -2.67611,-6.40483 -3.07693,-26.89983 -3.07693,-157.33025 0,-101.09405 0.69339,-151.80132 2.12769,-155.59752 6.45212,-17.07695 20.89802,-22.64004 58.74833,-22.62389 30.27318,0.0129 39.76109,2.08425 47.50124,10.37011 7.50518,8.03432 11.25297,20.69547 37.71147,127.39903 15.44,62.2675 23.0602,89.7828 24.2674,87.62564 0.9679,-1.72953 11.222,-41.67594 22.787,-88.76981 25.5703,-104.12549 29.248,-116.60612 36.9442,-125.37155 8.6147,-9.81167 18.1081,-11.76553 53.2183,-10.95306 27.3599,0.63313 30.4764,1.09224 38.6228,5.68977 5.9358,3.34995 10.3938,7.91185 13.5029,13.81752 l 4.6414,8.81645 0,146.35374 c 0,163.32955 0.1554,161.26413 -12.9981,172.813 -13.7987,12.11543 -32.5513,12.84911 -45.9581,1.79809 -14.0232,-11.55914 -13.583,-7.40313 -14.6352,-138.19386 -0.5206,-64.7153 -1.6196,-116.92647 -2.4422,-116.02482 -0.8226,0.90164 -11.0174,47.09907 -22.655,102.66096 -23.2858,111.17338 -28.1218,130.17108 -36.0474,141.60777 -13.2975,19.18832 -43.9267,23.57888 -63.0002,9.03079 -13.0401,-9.94621 -16.4204,-21.31112 -42.25838,-142.07805 -13.23404,-61.85596 -24.06189,-112.94189 -24.06189,-113.52429 0,-0.5824 -0.87307,-1.0589 -1.94015,-1.0589 -1.22534,0 -2.14661,44.03648 -2.50053,119.52557 -0.52939,112.91281 -0.77136,119.95047 -4.37378,127.20569 -7.77522,15.65918 -30.14433,23.24505 -46.19731,15.66655 z"
       style="fill:#ffffff;fill-opacity:1;fill-rule:nonzero;stroke:none;stroke-width:0.1;stroke-miterlimit:4;stroke-dasharray:none;stroke-opacity:1" />
    <path
       inkscape:connector-curvature="0"
       id="path4145"
       d="m 1291.0878,709.39239 c -6.3728,-3.51599 -15.1177,-12.20977 -18.1824,-18.07602 -4.6033,-8.81137 -3.359,-21.93794 3.9822,-42.00909 14.6559,-40.07019 100.4769,-256.23781 106.3479,-267.87141 11.6662,-23.11648 23.7934,-30.74369 48.8825,-30.74369 13.6299,0 18.6289,0.86491 25.1948,4.35911 9.8997,5.26841 19.1682,15.4731 25.5888,28.17368 8.7222,17.25343 109.181,267.8884 112.3814,280.38101 3.6685,14.31936 2.5818,22.02997 -4.5973,32.62084 -8.0217,11.83387 -15.646,15.49459 -32.271,15.49459 -13.4882,0 -14.6812,-0.37942 -22.0094,-7.00006 -7.9238,-7.15869 -14.1772,-19.55688 -29.7652,-59.01406 l -7.5078,-19.00406 -66.6275,0 -66.6275,0 -11.9253,30.89226 c -13.9523,36.14345 -19.8586,46.98931 -27.8351,51.11414 -6.8149,3.52413 -29.092,3.95834 -35.0291,0.68276 z m 176.5825,-145.00375 c 9.5643,-1.14875 10.4271,-1.65964 9.261,-5.4838 -2.8332,-9.29148 -43.2263,-122.29909 -43.9918,-123.07578 -0.4518,-0.45843 -1.2831,-0.37186 -1.8474,0.19238 -1.6547,1.65468 -42.9835,121.39264 -42.9835,124.53192 0,1.57197 2.0254,3.24823 4.501,3.72505 7.2943,1.40494 63.5927,1.48762 75.0607,0.11023 z"
       style="fill:#ffffff;fill-opacity:1;fill-rule:nonzero;stroke:none;stroke-width:0.1;stroke-miterlimit:4;stroke-dasharray:none;stroke-opacity:1" />
  </g>
  <path
     inkscape:connector-curvature="0"
     id="path6080"
     d="m 674.96189,2311.4628 c -17.35831,-4.5459 -30.103,-17.2644 -33.7568,-33.6877 -1.51478,-6.8091 -1.03598,-18.0479 1.03287,-24.244 3.72909,-11.168 12.80931,-21.8405 23.13116,-27.1876 8.7702,-4.5432 13.96676,-5.6587 26.50692,-5.6898 10.69093,-0.027 17.21662,0.8006 26.5187,3.3611 3.21631,0.8852 4.45816,0.9321 7.38178,0.2778 5.98471,-1.3393 5.7944,-1.7757 5.58764,12.826 l -0.17988,12.7482 -2.94183,0 -2.94161,0 -2.89076,-5.7422 c -3.58119,-7.113 -7.97983,-11.724 -14.02184,-14.6985 -4.3891,-2.1608 -4.68868,-2.211 -13.16619,-2.211 -8.38601,0 -8.8255,0.071 -13.19705,2.142 -8.12419,3.8481 -14.41048,11.2718 -17.36741,20.5097 -2.57275,8.0376 -2.61183,20.9868 -0.091,30.5849 2.59117,9.871 9.53258,18.51 18.12557,22.5587 4.07553,1.92 5.24587,2.1525 11.85061,2.3544 5.74376,0.1754 8.19281,-0.044 11.32585,-1.0147 l 3.99736,-1.2385 0.17322,-10.6329 c 0.14879,-9.0591 6.6e-4,-10.9781 -0.99934,-12.9648 -1.58873,-3.1568 -4.81149,-4.6614 -9.98829,-4.6625 -3.82503,0 -4.18279,-0.1265 -4.5521,-1.5989 -0.21986,-0.8788 -0.30136,-2.3029 -0.17988,-3.1646 l 0.22207,-1.5667 22.94262,-0.1755 c 13.29032,-0.1021 23.19977,0.082 23.55376,0.4357 0.91584,0.9159 -0.13546,6.0689 -1.23807,6.0689 -0.51011,0 -2.14414,0.4868 -3.63138,1.082 -4.42374,1.7699 -4.91364,3.3797 -5.20011,17.0891 l -0.2474,11.8422 -1.76727,0.9054 c -3.24097,1.6607 -14.6763,5.0362 -20.5029,6.0524 -8.65805,1.5099 -27.10808,1.3123 -33.48831,-0.3586 z m 529.07641,0.352 c -5.0245,-1.0915 -10.2601,-3.8313 -12.758,-6.6763 -2.0311,-2.3131 -5.2757,-7.489 -13.0621,-20.8371 -2.8459,-4.8788 -5.6171,-9.3132 -6.1586,-9.8546 -0.7264,-0.7264 -2.2298,-0.9334 -5.7391,-0.7901 l -4.7548,0.1932 -0.1821,11.8104 c -0.2458,15.9556 0.6083,17.8562 8.537,18.9972 l 3.6369,0.5234 0,2.9889 0,2.9887 -50.2581,0.171 c -32.5836,0.1111 -50.4014,-0.06 -50.6652,-0.4877 -0.2239,-0.3622 -0.2427,-2.0879 -0.042,-3.835 l 0.3651,-3.1765 5.4717,-0.4069 c 3.3205,-0.2469 6.1239,-0.8343 7.1308,-1.4939 1.8137,-1.1885 2.8035,-4.6387 2.0662,-7.2019 -0.8858,-3.0804 -7.8719,-20.8959 -8.5132,-21.7103 -0.495,-0.6287 -4.9712,-0.8328 -18.2633,-0.8328 l -17.6072,0 -0.8955,2.1653 c -0.4925,1.191 -2.4968,6.8972 -4.4539,12.6807 -3.3709,9.9609 -3.505,10.611 -2.5441,12.3252 1.4051,2.5065 4.0869,3.6193 9.5894,3.9784 5.2324,0.3416 6.3732,1.1411 6.3565,4.4542 -0.022,3.8588 0.7724,3.7369 -23.0197,3.5463 l -21.9404,-0.1754 0,-3.6643 0,-3.6642 4.1069,-0.453 c 5.1726,-0.5708 7.7875,-1.915 9.8461,-5.062 0.8923,-1.3638 8.669,-21.5571 17.2817,-44.8739 11.7938,-31.9298 15.7097,-43.2769 15.8633,-45.9696 l 0.2043,-3.5754 11.8002,-0.1821 c 11.6395,-0.1799 11.8131,-0.1621 12.7627,1.3324 0.5292,0.8328 8.5204,21.1514 17.7576,45.1522 9.2375,24.0008 17.3716,44.5912 18.0758,45.7564 2.2297,3.6884 5.5031,6.0293 9.6821,6.9236 2.1299,0.456 4.1575,1.0811 4.5057,1.3896 2.2463,1.9904 9.6529,-0.808 11.0767,-4.1848 1.3608,-3.2272 1.4046,-63.795 0.049,-67.0077 -1.1779,-2.7908 -3.2643,-4.0878 -7.5748,-4.708 l -3.517,-0.5061 0,-2.9705 0,-2.9703 2.998,-0.5643 c 1.649,-0.3102 14.8403,-0.6182 29.3141,-0.6846 25.5182,-0.1177 26.4774,-0.075 31.6457,1.3884 10.5444,2.9849 16.3617,7.0762 19.6413,13.8144 1.3788,2.8328 1.6258,4.3276 1.6498,9.9934 0.022,5.4404 -0.233,7.2268 -1.3958,9.7418 -2.6931,5.8241 -8.1646,10.5479 -14.5655,12.5746 -5.354,1.6951 -5.3129,1.479 -1.3302,7.0302 1.98,2.7598 5.1641,7.9288 7.0755,11.4866 6.7443,12.5531 10.9604,17.3923 16.1121,18.4934 3.0146,0.6442 3.7923,1.4772 3.7923,4.0628 0,1.8202 -0.3366,2.3947 -1.709,2.9165 -2.4184,0.9197 -12.5118,0.7109 -17.4443,-0.3606 z m -20.9839,-47.9046 c 6.6338,-3.6633 9.151,-8.9554 8.7044,-18.2994 -0.2362,-4.9443 -0.584,-6.3716 -2.3004,-9.4451 -3.8608,-6.9135 -10.8249,-9.8395 -21.477,-9.0243 -3.0668,0.2347 -5.8399,0.5901 -6.1625,0.7893 -0.9767,0.6036 -0.7409,36.5014 0.2465,37.5121 0.6136,0.6278 3.0251,0.7928 9.1606,0.6262 7.7238,-0.2087 8.5816,-0.366 11.8284,-2.1588 z m -108.7129,-2.6116 c 0.4344,-1.1321 -12.494,-35.4159 -13.3554,-35.4159 -0.3513,0 -3.5841,7.9201 -7.1835,17.6004 -5.0131,13.4813 -6.3438,17.7276 -5.6869,18.1444 0.4717,0.2991 6.4884,0.5488 13.3703,0.5543 9.8546,0 12.5855,-0.1799 12.8555,-0.8832 z m -242.89082,45.6971 c -2.83391,-2.8399 -17.67832,-18.14 -32.98775,-34.0004 -15.30922,-15.8604 -28.16583,-28.7268 -28.56979,-28.5917 -1.19299,0.3984 -1.01222,52.7739 0.19099,55.6281 1.10882,2.6289 3.64337,4.0659 8.10309,4.594 l 3.29537,0.3904 0,3.2383 0,3.2384 -17.65499,0 -17.655,0 0,-3.3312 0,-3.3311 2.52366,0 c 3.91297,0 8.30918,-2.5292 9.26433,-5.3298 0.57206,-1.6776 0.80568,-11.6281 0.83278,-35.4595 l 0.0378,-33.1276 -2.03465,-1.0522 c -1.11882,-0.5785 -3.51724,-1.2276 -5.32981,-1.4424 l -3.29516,-0.3902 0,-3.2509 0,-3.2512 14.78489,0.1799 14.78512,0.1798 27.45541,28.3147 c 15.10069,15.573 27.85959,28.3146 28.35326,28.3146 1.35733,0 1.3098,-42.3269 -0.0511,-45.5544 -1.11082,-2.6344 -5.00269,-4.7084 -8.87835,-4.731 l -2.49768,-0.022 0,-3.3421 0,-3.342 17.82155,0.1777 17.82156,0.1776 0,2.9887 0,2.989 -3.66425,0.5178 c -3.97715,0.5619 -6.52769,2.05 -7.81839,4.5615 -0.62447,1.2149 -0.82523,10.7695 -0.83278,39.6096 0,28.6623 -0.20653,38.2047 -0.80924,38.8076 -0.43971,0.4397 -2.42818,0.7995 -4.41908,0.7995 l -3.61961,0 -5.15237,-5.1633 z m -783.092863,3.8064 C 33.212716,2308.4139 19.798692,2301.1167 11.342725,2290.6663 4.191452,2281.8279 0,2270.5196 0,2260.0632 c 0,-21.9135 15.258359,-42.3282 37.708633,-50.4518 9.150396,-3.3109 15.837088,-4.2614 26.915322,-3.8256 9.661392,0.3797 11.648745,0.7292 23.115832,4.0653 5.45706,1.5876 6.424865,1.6933 8.848819,0.9669 1.822795,-0.5461 2.942943,-0.5943 3.391092,-0.1466 0.617372,0.6176 1.883422,17.2433 1.932062,25.3708 l 0.0222,3.4977 -3.339569,0 -3.339571,0 -1.656016,-3.7446 c -4.235201,-9.5766 -11.895915,-17.0117 -20.209532,-19.6146 -5.709781,-1.7875 -14.870171,-1.9308 -20.456479,-0.3201 -12.159519,3.5066 -22.567973,15.2404 -26.043898,29.3606 -1.575847,6.4014 -1.604495,19.1674 -0.05552,24.9651 6.816162,25.5202 32.19561,39.3811 52.995418,28.9433 5.100629,-2.5597 11.106215,-8.3172 15.596358,-14.9525 2.863219,-4.2308 3.004459,-4.3352 6.145279,-4.5373 1.76816,-0.1132 3.49391,0.073 3.83502,0.4133 0.38263,0.3826 -1.06819,5.9265 -3.7895,14.48 -2.42551,7.6229 -4.562986,14.108 -4.750417,14.4111 -0.186544,0.3029 -3.245633,0.3718 -6.796397,0.1532 -4.501692,-0.2778 -8.573445,-0.064 -13.451332,0.7009 -8.515705,1.338 -22.899087,1.849 -28.258212,1.004 z m 60.023663,0.2549 c -0.80191,-0.8017 -0.49167,-5.5898 0.37997,-5.8645 0.45792,-0.1444 2.31381,-0.4617 4.12372,-0.7051 2.4928,-0.3354 3.82592,-0.9776 5.49637,-2.648 l 2.20543,-2.2055 0,-33.1114 0,-33.1115 -2.20543,-2.2054 c -1.67045,-1.6707 -3.00357,-2.3127 -5.49637,-2.648 -5.04666,-0.6787 -5.05621,-0.6862 -4.82859,-3.8348 l 0.20431,-2.8375 22.98481,0 22.98481,0 0,2.9887 0,2.9889 -3.66424,0.5179 c -2.01534,0.2847 -4.41375,1.0673 -5.32981,1.7389 -3.11461,2.2838 -3.33802,3.5136 -3.16236,17.4153 l 0.16434,12.9915 21.98547,0 21.98546,0 0.18211,-12.8302 c 0.23362,-16.5711 -0.46348,-18.148 -8.53636,-19.3099 l -3.63671,-0.5235 0,-2.9889 0,-2.9887 22.6517,0 22.65169,0 0,2.9796 0,2.9796 -2.99802,0.5092 c -4.57342,0.7768 -6.6154,1.8468 -7.85969,4.1186 -0.9798,1.7891 -1.16479,4.7482 -1.35733,21.725 -0.12214,10.8095 -0.0222,25.4901 0.24473,32.6233 l 0.46769,12.9697 2.12726,2.1272 c 1.57008,1.5701 2.98914,2.2521 5.4182,2.6041 1.80991,0.2623 3.66558,0.7757 4.12372,1.1408 1.11237,0.8865 1.06174,4.1448 -0.0799,5.0915 -0.65024,0.5399 -7.29407,0.7066 -23.15136,0.5814 l -22.23931,-0.1754 0,-2.989 0,-2.9889 3.66425,-0.5176 c 3.97715,-0.5621 6.52769,-2.05 7.81839,-4.5617 0.57606,-1.1208 0.8259,-5.8486 0.83278,-15.7584 l 0,-14.1573 -22.31858,0 -22.31858,0 0,14.1573 c 0,9.9098 0.25672,14.6376 0.83278,15.7584 1.2907,2.5117 3.84124,3.9996 7.81839,4.5617 l 3.66424,0.5176 0,2.9889 0,2.989 -22.69855,0.1754 c -12.48442,0.096 -22.90242,-0.029 -23.15137,-0.2776 z m 113.07482,-0.4899 c -0.19987,-0.5203 -0.26693,-1.9247 -0.14879,-3.1203 0.20653,-2.1002 0.35887,-2.2039 4.47837,-3.0403 4.45505,-0.9047 6.77352,-2.4705 8.46174,-5.7153 0.51743,-0.9947 6.76686,-17.5233 13.88771,-36.7304 8.77931,-23.6805 13.01295,-35.9653 13.15286,-38.1647 l 0.20653,-3.2432 9.67627,-0.1843 c 7.06622,-0.1333 9.97163,0.047 10.77066,0.6662 0.60182,0.4672 7.41665,17.2815 15.14377,37.3648 14.84352,38.5787 15.38028,39.8686 17.6188,42.3294 2.92051,3.211 8.12463,4.622 13.00318,3.5259 3.77862,-0.849 5.81194,-2.8706 6.6958,-6.6565 0.85965,-3.6827 4.70689,-53.3689 4.70689,-60.788 0,-4.7005 -0.14879,-5.2861 -1.64247,-6.4609 -0.90318,-0.7104 -3.14859,-1.4917 -4.98937,-1.7359 -2.82835,-0.3751 -3.41108,-0.6987 -3.75974,-2.0876 -0.22696,-0.904 -0.2243,-2.393 0,-3.3091 l 0.41795,-1.6656 15.22904,0 c 11.37249,0 15.40293,0.211 15.91593,0.8328 0.37797,0.4582 6.28873,13.5744 13.13509,29.1474 6.84659,15.5731 12.67274,28.5523 12.94722,28.8425 0.27449,0.2905 0.80392,0.1399 1.17634,-0.3331 0.37242,-0.4735 6.30716,-13.4527 13.18817,-28.8425 6.88079,-15.3898 12.81064,-28.3619 13.17729,-28.8267 0.51033,-0.6474 4.11684,-0.8035 15.39805,-0.6662 l 14.73181,0.1798 0,2.973 c 0,2.8405 -0.10437,2.9995 -2.33179,3.5669 -4.87611,1.2419 -5.92808,1.8952 -6.66981,4.1426 -0.55608,1.6849 -0.32201,9.5433 0.97535,32.7428 0.93916,16.7892 1.8812,31.6491 2.09351,33.0222 0.59205,3.8257 2.04598,5.1182 6.76553,6.0129 l 4.16391,0.7895 0,3.1879 0,3.1876 -22.15202,-0.1754 -22.15203,-0.1754 0,-2.989 c 0,-2.1534 0.27937,-3.0262 0.99934,-3.1223 0.54964,-0.073 2.47214,-0.3278 4.27229,-0.5659 2.33712,-0.3087 3.81326,-0.9729 5.16325,-2.3227 1.79037,-1.7906 1.89031,-2.2014 1.89231,-7.7713 0,-7.2729 -2.03732,-50.4137 -2.40175,-50.7953 -0.14657,-0.1532 -0.42927,-0.1132 -0.62981,0.087 -0.19986,0.1999 -6.98715,15.1656 -15.08114,33.2558 -8.09398,18.0901 -15.02473,33.2811 -15.40137,33.7579 -0.37687,0.4768 -1.58407,0.7766 -2.68268,0.6662 -1.95626,-0.1954 -2.30514,-0.8789 -16.76825,-32.8087 -8.12374,-17.9346 -15.07581,-32.7099 -15.44912,-32.8343 -0.75905,-0.2532 -0.80036,0.1621 -2.9365,29.4663 -0.8279,11.3592 -1.29293,21.7558 -1.03332,23.1036 0.73885,3.8359 2.35289,5.3038 6.81061,6.1939 l 3.94539,0.7879 0,2.9454 0,2.9454 -38.79369,0.171 -38.79369,0.171 -0.41928,-1.6711 c -0.23074,-0.919 -0.24229,-2.3769 -0.0267,-3.2396 0.35377,-1.4096 0.88319,-1.6143 5.21167,-2.0167 5.6718,-0.527 7.86369,-2.0362 7.86369,-5.414 0,-2.0706 -6.06644,-18.4607 -7.44975,-20.1273 -0.5352,-0.6449 -4.14526,-0.851 -14.78378,-0.8433 -7.74177,0 -14.43246,0.237 -14.86817,0.5141 -0.96914,0.6163 -6.7511,16.1576 -7.30895,19.6455 -0.29958,1.8734 -0.10438,2.8439 0.7595,3.7997 1.12103,1.2387 5.49503,2.4337 10.33983,2.8246 2.2916,0.1843 2.33179,0.2398 2.33179,3.1861 l 0,2.998 -18.83777,0.1777 c -15.77779,0.1488 -18.89684,0.024 -19.20108,-0.7693 z m 57.69253,-41.9933 c 0,-1.0469 -10.28809,-28.2178 -10.92611,-28.8558 -0.21986,-0.2199 -0.57162,-0.2279 -0.78149,-0.022 -0.78725,0.7873 -10.85038,28.7668 -10.53192,29.2822 0.1821,0.296 5.26163,0.5383 11.28609,0.5383 9.02182,0 10.95343,-0.1665 10.95343,-0.9469 z m 181.47872,41.9829 c -0.19765,-0.5145 -0.26294,-1.9363 -0.14657,-3.159 0.20653,-2.1477 0.33667,-2.2405 3.85012,-2.7429 4.47926,-0.64 6.51903,-1.9178 7.74488,-4.8514 1.39153,-3.3307 1.39153,-63.2313 0,-66.5618 -1.22585,-2.9336 -3.26539,-4.2114 -7.74488,-4.8517 l -3.63671,-0.5199 -0.21319,-2.5805 c -0.1177,-1.4193 0.0644,-2.8565 0.40174,-3.1941 0.84943,-0.8494 22.22464,-1.9112 39.45081,-1.9596 16.56039,-0.047 22.2282,0.7844 29.76566,4.3638 8.3678,3.974 13.30698,10.3452 14.95545,19.2917 1.511,8.2001 -1.03998,16.1551 -7.07577,22.065 -7.94231,7.7766 -18.90151,10.5859 -35.2618,9.0387 -6.37002,-0.6023 -8.05934,-0.5821 -8.53059,0.1021 -0.93383,1.356 -0.20653,23.1756 0.84655,25.3868 1.11838,2.3482 3.73864,3.7375 8.00116,4.2423 l 3.29538,0.3904 0,3.2383 0,3.2383 -22.67257,0 c -18.85598,0 -22.7332,-0.1577 -23.03189,-0.9361 z m 51.80887,-44.0575 c 3.81614,-1.3043 7.60764,-4.8788 9.46596,-8.9241 1.13836,-2.4784 1.39841,-4.3456 1.39841,-10.0401 0,-7.9813 -1.1106,-11.3544 -5.02801,-15.2719 -4.03022,-4.0304 -7.2461,-5.0513 -15.81332,-5.0195 -5.85458,0.022 -7.67382,0.2445 -8.15106,0.9989 -0.98979,1.5649 -0.8068,36.801 0.19765,38.1154 1.55186,2.03 12.15907,2.1138 17.92992,0.1422 z m 23.4747,44.0575 c -0.19764,-0.5145 -0.26293,-1.9143 -0.14434,-3.1099 0.20653,-2.1002 0.35887,-2.2039 4.47837,-3.0403 4.39754,-0.8929 6.77752,-2.4745 8.3849,-5.572 0.47546,-0.9161 6.72556,-17.4609 13.88927,-36.7662 8.74666,-23.5713 13.09201,-36.1541 13.2297,-38.308 l 0.20431,-3.2074 9.67627,-0.1843 c 7.07576,-0.1355 9.96386,0.044 10.74601,0.6662 0.58827,0.4672 7.58498,17.7885 15.54816,38.4914 7.96296,20.703 15.22905,38.6416 16.14666,39.8637 2.11216,2.813 4.87945,4.5021 8.26143,5.0429 l 2.65181,0.4241 -0.20209,3.1508 -0.20209,3.151 -23.31792,0 -23.31792,0 -0.22208,-1.5667 c -0.53809,-3.8024 0.20209,-4.5368 5.03445,-4.988 5.33336,-0.4981 7.75288,-1.9798 8.0489,-4.9292 0.19987,-1.984 -4.97027,-16.8557 -6.95007,-19.9952 -0.93249,-1.4784 -1.14058,-1.4988 -15.08736,-1.4888 -7.77819,0 -14.52018,0.2503 -14.98232,0.5436 -1.1237,0.7133 -7.4875,18.2848 -7.4875,20.6741 0,1.036 0.52899,2.3622 1.17567,2.9474 1.36821,1.2383 6.06444,2.4342 9.65051,2.4575 l 2.49835,0.022 0,3.3311 0,3.3312 -18.67521,0 c -15.42314,0 -18.73784,-0.1622 -19.03453,-0.9361 z m 57.69654,-41.8699 c 0,-0.9389 -10.38891,-28.4316 -10.9592,-29.0019 -0.20209,-0.2021 -0.54853,-0.1843 -0.77061,0.038 -0.8521,0.8523 -10.88369,28.6551 -10.5397,29.2116 0.19987,0.3229 5.29162,0.5869 11.31608,0.5869 8.3245,0 10.95343,-0.1998 10.95343,-0.8336 z m 272.48657,39.5728 0,-3.2435 3.29537,-0.3904 c 1.81236,-0.2154 4.16858,-0.8419 5.23588,-1.3937 3.73575,-1.9318 3.79393,-2.4941 3.79393,-36.7095 0,-34.2154 -0.0577,-34.7777 -3.79393,-36.7095 -1.0673,-0.5519 -3.42352,-1.1792 -5.23588,-1.394 l -3.29537,-0.3902 0,-3.2383 0,-3.2383 38.58805,0 38.58805,0 0.37331,4.1639 c 0.20431,2.2901 0.45414,7.0121 0.55274,10.4931 l 0.17988,6.3292 -2.64891,0 c -2.36644,0 -2.71243,-0.2132 -3.24586,-1.9987 -2.03843,-6.8262 -2.58673,-7.7938 -5.01246,-8.8462 -3.24519,-1.4079 -32.17629,-2.1037 -33.73371,-0.811 -0.82501,0.6847 -0.99556,3.201 -0.99556,14.681 0,7.62 0.1821,14.3287 0.4044,14.9083 0.34844,0.9083 2.10083,1.054 12.67962,1.054 15.92014,0 17.49666,-0.5874 19.16844,-7.1402 0.7977,-3.1268 0.86188,-3.1863 3.43418,-3.1863 l 2.62137,0 0.17989,14.8624 0.17988,14.8626 -2.77994,-0.2065 c -2.7302,-0.2021 -2.80126,-0.2707 -3.96227,-3.8437 -1.95693,-6.0222 -3.85967,-6.6794 -19.35144,-6.6847 -9.05712,0 -11.22946,0.1799 -11.91035,0.9998 -0.62758,0.7562 -0.7606,4.2907 -0.53986,14.3467 0.38974,17.7596 -1.16634,16.3035 17.38562,16.2704 19.20797,-0.033 22.0532,-1.0274 24.73765,-8.6359 1.82812,-5.181 1.96204,-5.3298 4.79527,-5.3298 l 2.59229,0 -0.18654,7.3285 c -0.10216,4.0307 -0.40285,9.2772 -0.66623,11.659 l -0.47879,4.3304 -40.47325,0.171 -40.47325,0.171 0,-3.2434 z m 363.35857,2.2971 c -0.1976,-0.5145 -0.2629,-1.9363 -0.1465,-3.159 0.2065,-2.1477 0.3368,-2.2405 3.8503,-2.7429 4.4793,-0.64 6.519,-1.9178 7.7447,-4.8514 1.3913,-3.3298 1.3913,-62.566 0,-65.8956 -1.2317,-2.948 -3.559,-4.4055 -7.8766,-4.9325 l -3.5048,-0.4277 -0.2021,-3.143 c -0.1821,-2.8173 -0.044,-3.1777 1.3325,-3.4791 3.3842,-0.7415 26.0965,-1.7057 40.1754,-1.7057 28.8263,0 41.885,3.5507 52.639,14.3134 8.0134,8.0196 11.8455,17.7218 11.8455,29.9906 0,12.8802 -3.7637,22.0181 -12.7876,31.0466 -8.8541,8.8586 -17.1506,12.8988 -30.7103,14.9548 -9.1242,1.3835 -61.8312,1.4101 -62.3601,0.031 z m 58.0563,-6.7466 c 6.1175,-1.5721 10.8693,-4.2561 15.4374,-8.7192 7.6693,-7.493 11.3123,-18.4458 10.6105,-31.8995 -0.8965,-17.1865 -9.1568,-28.3475 -24.7421,-33.4308 -4.5499,-1.4842 -6.8652,-1.7848 -15.8229,-2.0551 l -10.493,-0.3165 0,35.1224 c 0,31.0878 0.1243,35.3852 1.0862,37.4112 1.7897,3.7717 4.5867,4.7693 13.5974,4.8506 3.7269,0.033 7.9981,-0.3649 10.3265,-0.9631 z m 55.8704,6.7519 c -0.1976,-0.5176 -0.2649,-1.944 -0.1488,-3.1699 0.2043,-2.1423 0.3442,-2.2445 3.5921,-2.6409 4.2783,-0.5223 6.0236,-1.4641 7.6474,-4.1273 1.2345,-2.0244 1.294,-3.6023 1.2869,-34.1014 0,-24.059 -0.211,-32.3755 -0.8301,-33.5803 -1.3158,-2.5603 -4.0333,-4.1517 -7.8932,-4.6229 l -3.5894,-0.4379 0,-2.998 0,-2.9981 38.1559,-0.171 38.1559,-0.1732 0.5656,1.5044 c 0.3109,0.8274 0.6793,5.5518 0.8183,10.4986 l 0.2527,8.994 -1.8725,0.2154 c -2.3746,0.2723 -3.7864,-0.8883 -3.805,-3.1277 0,-0.9629 -0.5697,-2.9727 -1.2481,-4.4661 -1.9738,-4.346 -3.2307,-4.613 -21.7221,-4.613 l -15.9894,0 -0.1799,15.474 -0.1799,15.474 1.6996,0.4266 c 0.9347,0.2345 6.5614,0.2945 12.5039,0.1333 14.7447,-0.4009 15.8988,-0.9612 18.2389,-8.8557 0.511,-1.7238 0.9107,-1.9987 2.908,-1.9987 l 2.3158,0 0,14.657 0,14.6569 -1.8725,0.2155 c -2.416,0.2769 -3.7904,-0.899 -3.7904,-3.2432 0,-2.5204 -2.881,-5.7818 -5.8785,-6.655 -1.4609,-0.4255 -7.1546,-0.632 -14.1083,-0.5116 l -11.6589,0.2021 -0.1799,14.0673 c -0.2416,18.9315 -1.931,17.2453 17.277,17.2453 20.0261,0 22.0843,-0.8037 25.1374,-9.814 1.1672,-3.4448 1.2432,-3.5146 4.0538,-3.72 l 2.8643,-0.2087 -0.505,8.2041 c -0.2778,4.5121 -0.6942,9.7031 -0.9254,11.5353 l -0.4204,3.3311 -40.159,0.171 c -34.0912,0.1466 -40.2136,0.029 -40.5203,-0.7695 z m 93.9404,0 c -0.1999,-0.521 -0.2674,-1.95 -0.151,-3.1759 0.2065,-2.1614 0.3218,-2.2418 3.803,-2.6667 3.8894,-0.4745 6.6247,-2.0857 7.8415,-4.6185 0.5456,-1.1361 0.8148,-11.2507 0.9198,-34.5837 0.082,-18.138 0.1088,-33.4548 0.062,-34.0373 -0.1132,-1.3889 -2.9427,-2.6605 -7.0824,-3.1837 l -3.3312,-0.4208 0,-2.998 0,-2.9981 14.1929,-0.1798 14.1928,-0.1799 3.2577,3.1779 c 1.7914,1.7477 14.3864,14.7202 27.9888,28.8276 13.6023,14.1073 25.162,25.7465 25.6879,25.8651 1.4975,0.3373 1.4148,-44.3651 -0.087,-47.2699 -1.1717,-2.2658 -4.4522,-3.9118 -7.7957,-3.9118 -2.6849,0 -3.8191,-1.0047 -3.8191,-3.3829 0,-3.2088 0.6316,-3.316 18.4039,-3.1246 l 16.573,0.1777 0.2132,2.5969 c 0.2467,3.014 -0.4881,3.7073 -3.9449,3.722 -3.1997,0.022 -6.7227,2.4604 -7.7227,5.3631 -0.5776,1.6776 -0.8053,12.6448 -0.8328,40.1171 l -0.038,37.8076 -4.2434,0 -4.2434,0 -7.2154,-7.495 c -35.4033,-36.7748 -58.6677,-60.46 -59.3855,-60.46 -1.1952,0 -1.1874,52.4881 0,55.9005 1.0804,3.0836 3.5808,4.7645 7.8655,5.2874 l 3.5894,0.438 0,2.998 0,2.998 -17.172,0.1777 c -14.3465,0.1488 -17.2317,0.022 -17.5353,-0.7693 z m 121.2532,3e-4 c -0.1999,-0.5213 -0.2674,-1.9503 -0.151,-3.1762 0.2065,-2.1528 0.3282,-2.24 3.5838,-2.5683 1.8537,-0.1865 4.2023,-0.8845 5.219,-1.5507 3.7033,-2.4264 3.736,-2.7686 3.736,-39.0708 l 0,-33.3427 -2.1653,-1.32 c -1.1909,-0.7262 -3.115,-1.3213 -4.276,-1.3227 -3.5053,0 -4.2183,-0.5676 -4.2183,-3.3335 0,-2.8388 0.5205,-3.1986 4.3304,-2.9941 1.4657,0.078 7.6117,0.1888 13.6577,0.2428 l 10.9927,0.1 27.9666,28.9742 c 15.3816,15.9359 28.3482,28.9744 28.8143,28.9744 1.2872,0 1.221,-43.7867 -0.071,-46.8786 -1.3314,-3.1864 -3.925,-4.9305 -8.1098,-5.4533 l -3.6298,-0.4537 0,-2.5881 0,-2.588 17.3219,0 17.3219,0 0,2.572 0,2.5721 -3.4156,0.4044 c -3.8612,0.4575 -6.024,1.648 -7.7344,4.2574 -1.0833,1.6525 -1.1899,4.8355 -1.3624,40.6307 l -0.1866,38.8377 -3.8104,0 c -2.0955,0 -4.1328,-0.2305 -4.527,-0.4997 -0.3944,-0.2693 -15.3563,-15.6294 -33.2489,-34.1339 -17.8926,-18.5044 -32.86,-33.6444 -33.2607,-33.6444 -0.5158,0 -0.7286,8.1817 -0.7286,28.0117 0,25.5562 0.1022,28.1679 1.1659,29.7901 1.5619,2.3824 3.5052,3.3691 7.4815,3.7988 2.8912,0.3123 3.4015,0.5983 3.9716,2.2257 0.4435,1.2656 0.4246,2.2316 -0.058,2.998 -0.6345,1.0067 -2.5535,1.1501 -17.4792,1.3087 -13.998,0.1488 -16.8266,0.022 -17.1302,-0.7693 z m 119.6511,-2.2543 0,-2.5126 4.0735,-0.7742 c 4.6896,-0.8911 6.9426,-2.6395 7.9159,-6.1434 0.3935,-1.4167 0.6625,-14.7947 0.6642,-33.0275 0,-27.8649 -0.1021,-30.8539 -1.1623,-32.9309 -1.622,-3.1813 -3.9321,-4.6676 -8.0032,-5.1497 l -3.4881,-0.4131 0,-2.5721 0,-2.572 37.9623,0 37.9622,0 0.3056,1.499 c 0.1687,0.8243 0.4892,5.3415 0.7137,10.038 l 0.4078,8.5392 -2.1535,-0.2109 c -1.9916,-0.1955 -2.2103,-0.4617 -2.909,-3.5426 -1.8887,-8.3285 -2.5343,-8.581 -22.6912,-8.8768 -13.4602,-0.1976 -16.1551,-0.08 -16.8351,0.7402 -0.5952,0.7173 -0.7619,5.0094 -0.63,16.2151 l 0.1799,15.2394 12.8119,0.1799 c 14.0849,0.1999 16.4201,-0.2429 18.5631,-3.5137 0.6409,-0.978 1.3422,-2.8769 1.5585,-4.2194 0.3478,-2.1608 0.6383,-2.4648 2.5277,-2.648 2.8556,-0.2772 2.9325,0.1643 2.7029,15.5302 l -0.1888,12.6583 -2.3107,0 c -2.1781,0 -2.3422,-0.1599 -2.8579,-2.7671 -0.6576,-3.3245 -3.1184,-5.9676 -6.406,-6.881 -1.3289,-0.3691 -7.551,-0.6727 -13.8271,-0.6747 -9.1239,0 -11.5703,0.1888 -12.2072,0.9558 -0.5779,0.6965 -0.7375,4.8049 -0.5812,14.973 0.2856,18.5933 -1.2934,17.0456 17.3894,17.0456 16.1369,0 19.3323,-0.5747 22.8716,-4.1139 1.3901,-1.3904 2.6209,-3.5861 3.2796,-5.8517 1.1088,-3.8144 2.403,-4.8417 5.0444,-4.0034 1.2554,0.3984 1.3615,0.8013 1.0222,3.8757 -0.2087,1.887 -0.5507,5.8295 -0.761,8.7609 -0.211,2.9314 -0.5341,6.304 -0.7193,7.495 l -0.3369,2.1653 -39.9434,0 -39.9434,0 0,-2.5126 z m -711.69635,-38.1808 c -1.48569,-0.8652 -1.68156,-8.0165 -0.25228,-9.2026 0.64735,-0.5372 6.42753,-0.7068 19.82023,-0.5814 l 18.9066,0.1777 0.1999,4.6041 c 0.1399,3.2325 -0.058,4.7675 -0.6662,5.153 -1.2774,0.8101 -36.59852,0.6707 -38.00781,-0.151 z M 860.9292,2162.8455 c -5.6536,-0.9421 -10.57724,-2.9652 -15.13933,-6.2204 -5.00314,-3.5703 -7.7169,-7.4262 -19.01543,-27.0181 -4.12061,-7.1453 -8.80196,-15.0254 -10.40313,-17.5111 l -2.91118,-4.5195 -7.16083,0.1888 -7.16082,0.1888 0,18.3212 c 0,17.1775 0.0844,18.4667 1.34778,20.653 1.74795,3.0242 5.91564,5.1097 11.38203,5.6951 l 4.31626,0.4622 -0.19543,4.4164 -0.19543,4.4164 -31.64575,0.1754 c -29.15895,0.1599 -31.71126,0.087 -32.47853,-0.9602 -0.90229,-1.2292 -1.1166,-6.0749 -0.3229,-7.2956 0.26916,-0.414 2.35822,-0.9674 4.64227,-1.2301 4.75863,-0.547 9.20525,-2.5843 10.98629,-5.0338 2.30803,-3.1741 2.57852,-9.1229 2.37776,-52.2923 l -0.19542,-41.9576 -1.49901,-3.0418 c -1.90963,-3.8748 -5.24209,-5.8177 -10.92189,-6.368 -2.64692,-0.2563 -4.547,-0.8026 -5.06754,-1.457 -0.93761,-1.1784 -1.10572,-5.9923 -0.25628,-7.3321 1.23474,-1.9471 67.10809,-3.6753 80.05442,-2.1004 19.08694,2.3223 33.0284,9.5992 38.31068,19.9968 2.65336,5.2232 3.62827,9.5111 3.62827,15.9588 0,9.7686 -2.77661,16.7951 -9.09266,23.0112 -3.99358,3.9303 -11.85749,8.2255 -17.71851,9.6774 -1.74662,0.4326 -3.33379,1.0422 -3.52678,1.3542 -0.1932,0.3125 0.8239,1.8495 2.2594,3.4158 3.58874,3.9156 8.13573,11.0735 14.43668,22.7256 8.59476,15.8942 13.91302,21.8649 21.21664,23.8198 5.76064,1.5419 5.76552,1.5466 5.76552,5.5659 0,2.9316 -0.25494,3.7915 -1.2887,4.3447 -1.54342,0.8259 -19.49334,0.7899 -24.52934,-0.049 z m -36.80723,-66.3277 c 4.71266,-1.2161 10.26255,-4.5555 12.73802,-7.665 8.28297,-10.4033 7.48728,-29.691 -1.61249,-39.0833 -5.83281,-6.02 -13.86394,-8.4835 -25.57398,-7.8446 -4.09929,0.2239 -8.22146,0.6989 -9.16062,1.056 l -1.70753,0.6491 0,26.3535 c 0,22.1081 0.15101,26.4114 0.94271,26.715 4.27317,1.6398 17.70474,1.5403 24.37389,-0.1799 z m 458.03073,66.4045 c -1.8322,-0.3162 -6.4356,-1.2487 -10.2297,-2.0722 -5.0498,-1.0957 -7.1993,-1.3093 -8.0205,-0.7966 -1.7429,1.0886 -6.5335,1.7278 -7.0223,0.9372 -0.6748,-1.0922 -4.4765,-30.1581 -4.0795,-31.1925 0.4937,-1.2869 6.3711,-0.8936 7.0858,0.4744 0.2871,0.5496 1.7515,3.6247 3.2543,6.8337 5.2261,11.1601 13.8142,17.5635 24.5418,18.2988 11.8046,0.809 19.5601,-4.7876 20.6003,-14.8658 0.9263,-8.9749 -7.2323,-17.1655 -29.3343,-29.4498 -19.0188,-10.5706 -25.7222,-19.2598 -24.9509,-32.3416 0.4375,-7.4215 2.3611,-12.1482 6.9696,-17.1258 9.6057,-10.3753 24.9968,-13.044 45.8357,-7.9471 6.225,1.5225 8.3989,1.6153 11.5064,0.4916 1.9692,-0.7119 2.384,-0.6717 3.094,0.2989 0.9349,1.2788 3.4672,25.1365 2.841,26.7679 -0.2823,0.7357 -1.2416,1.0709 -3.0649,1.0709 l -2.654,0 -2.7533,-5.6357 c -6.2074,-12.7058 -18.2362,-19.5182 -30.1105,-17.0529 -7.2621,1.5074 -11.178,5.7047 -11.1598,11.961 0.022,7.316 4.4209,11.6487 21.0397,20.721 26.6806,14.5648 34.9125,23.8113 34.9125,39.216 0,10.4547 -4.4158,18.9802 -13.0054,25.1094 -7.2879,5.2006 -11.6139,6.4798 -22.6377,6.6936 -5.13,0.1 -10.8262,-0.078 -12.6583,-0.3944 z m -848.27281,-1.4182 c -1.06174,-1.0859 -1.08506,-6.0624 -0.0333,-7.1142 0.43971,-0.4397 2.16346,-0.7999 3.8308,-0.8005 3.84946,0 7.24855,-1.7025 9.1806,-4.5946 l 1.51234,-2.2638 0,-39.0526 c 0,-36.5496 -0.0777,-39.1981 -1.21742,-41.3225 -1.5301,-2.853 -4.55988,-4.5004 -9.3627,-5.0908 -4.24142,-0.5215 -4.71866,-0.9647 -4.73287,-4.3965 -0.0222,-4.6918 -1.36799,-4.4675 35.80433,-5.9523 37.80924,-1.5103 57.75072,1.6572 72.48698,11.5131 19.95903,13.3496 27.27331,41.9161 16.63034,64.9513 -8.07133,17.4693 -24.02878,29.097 -45.65094,33.2642 -7.65449,1.4753 -77.10192,2.2359 -78.44815,0.8592 z m 69.12099,-8.6214 c 2.01533,-0.4208 6.18502,-1.9354 9.26587,-3.366 10.1926,-4.7324 18.40784,-14.905 21.72853,-26.9058 1.73663,-6.2758 2.10039,-22.2237 0.65579,-28.7523 -2.859,-12.9217 -10.38958,-22.8089 -21.78516,-28.6029 -1.71931,-0.8743 -5.76663,-2.3844 -8.99405,-3.356 -5.34958,-1.6107 -6.92654,-1.7732 -17.85976,-1.8403 l -11.99207,-0.073 0,42.9716 c 0,42.0205 0.0289,43.0227 1.35599,45.2796 2.64337,4.4995 7.83016,6.14 17.96457,5.6821 3.29782,-0.1488 7.64495,-0.6154 9.66029,-1.0362 z m 77.7264,8.9246 c -0.24428,-0.2443 -0.44415,-2.0112 -0.44415,-3.9261 0,-3.9243 0.41639,-4.2901 4.88455,-4.2918 3.69978,0 7.09198,-1.8091 8.75044,-4.6625 1.32068,-2.2725 1.3551,-3.3229 1.3551,-41.306 0,-42.4471 0.0378,-42.0014 -3.76795,-44.7112 -1.23963,-0.8825 -3.52434,-1.5296 -6.40777,-1.8148 l -4.48126,-0.443 0,-3.9974 0,-3.9973 46.38401,-0.171 c 36.70463,-0.1355 46.52947,0 47.082,0.67 0.41195,0.4963 0.78814,5.8905 0.91806,13.1624 l 0.21985,12.3214 -2.99802,0 -2.99802,0 -1.11548,-4.6036 c -1.24984,-5.1584 -2.75041,-7.5817 -5.60674,-9.054 -2.7051,-1.3944 -40.81769,-1.8857 -41.6729,-0.5372 -0.3038,0.4788 -0.55674,8.7033 -0.5623,18.2772 0,14.5928 0.14879,17.5395 0.97936,18.2282 0.7404,0.6145 4.64204,0.7535 15.48976,0.5523 12.98786,-0.241 14.8242,-0.4157 17.60769,-1.6764 3.45372,-1.5641 4.41775,-2.9379 5.50836,-7.8493 l 0.7424,-3.3438 3.31559,0 3.31558,0 0.17766,17.8062 0.17767,17.806 -1.59606,0.4007 c -0.87764,0.2198 -2.45105,0.3022 -3.49636,0.1821 -1.70243,-0.1955 -1.98158,-0.5845 -2.67645,-3.7278 -1.85722,-8.402 -3.42196,-9.0451 -22.76384,-9.3556 -10.9199,-0.1754 -15.11113,-0.024 -15.82288,0.5654 -0.79436,0.6594 -0.96536,3.4506 -0.95226,15.5455 0.0222,16.0015 0.4597,19.431 2.74663,21.2837 1.38042,1.1184 2.91163,1.1955 19.8531,0.9994 17.04807,-0.1977 18.57106,-0.3132 21.35522,-1.6212 4.24697,-1.9953 5.96317,-4.1666 7.96385,-10.0758 l 1.75106,-5.1712 3.02889,-0.1999 c 1.90541,-0.1243 3.27783,0.1222 3.69933,0.6663 0.72863,0.9402 -1.12836,26.2435 -2.03354,27.7081 -0.38153,0.6174 -11.80487,0.805 -48.98163,0.805 -26.66637,0 -48.68404,-0.1999 -48.92833,-0.4441 z m 316.28562,-0.4733 c -0.1932,-0.5045 -0.25916,-2.3784 -0.14657,-4.1639 l 0.20653,-3.2465 3.99736,-0.3538 c 4.89077,-0.4328 7.92832,-1.9771 9.4824,-4.8208 1.08773,-1.9905 1.17722,-5.139 1.17722,-41.4613 0,-36.3222 -0.0888,-39.471 -1.17722,-41.4612 -1.52677,-2.794 -4.5159,-4.3025 -9.4824,-4.7857 l -3.99736,-0.3889 0,-3.9974 0,-3.9973 46.60853,0 46.60853,0 0.44815,2.1912 c 0.2465,1.2052 0.55852,7.0513 0.69354,12.9914 l 0.24539,10.8002 -2.7886,0.2021 c -3.23342,0.2352 -3.55276,-0.1666 -4.81415,-6.04 -0.45459,-2.1173 -1.55942,-4.7122 -2.46371,-5.7869 -2.55764,-3.0397 -6.11218,-3.473 -26.57599,-3.2387 l -17.98811,0.2065 0,18.6544 0,18.6543 14.99009,0 c 20.18799,0 22.06231,-0.7053 24.10652,-9.0698 0.85499,-3.4988 0.94071,-3.5938 3.42173,-3.7981 4.49503,-0.37 4.45062,-0.5519 4.45062,18.1977 0,18.7496 0.0444,18.5677 -4.45062,18.1975 -2.38109,-0.1954 -2.58007,-0.3808 -3.09395,-2.8743 -0.92583,-4.4926 -2.59273,-7.1273 -5.44685,-8.6094 -2.4768,-1.2863 -3.77039,-1.384 -18.32122,-1.384 l -15.65632,0 -0.17988,15.8731 c -0.10437,9.3554 0.10216,16.9141 0.50411,18.4087 1.07574,3.9949 1.99202,4.1546 22.43628,3.9088 17.7083,-0.2132 17.95769,-0.2357 21.22353,-1.9177 3.90142,-2.0093 6.60297,-5.5914 7.76065,-10.29 0.45126,-1.8322 1.09683,-3.706 1.43461,-4.164 0.93582,-1.2693 6.39488,-1.0768 6.90166,0.2434 0.71042,1.8517 -1.67001,27.0857 -2.61161,27.6833 -0.4628,0.2938 -22.51134,0.5387 -48.99695,0.5443 -40.2867,0 -48.21324,-0.1399 -48.50794,-0.9072 z m 118.1013,0.4806 c -0.2483,-0.2483 -0.4515,-2.0185 -0.4515,-3.9334 0,-3.9025 0.4291,-4.2907 4.7447,-4.2907 3.7963,0 7.4855,-2.1057 8.9878,-5.13 1.179,-2.3733 1.2696,-4.8183 1.451,-39.105 0.1288,-24.3577 -0.047,-37.7315 -0.5263,-40.0411 -1.1232,-5.4109 -4.9436,-8.3294 -10.903,-8.3294 -1.5519,0 -3.1812,-0.3597 -3.6209,-0.7995 -1.0356,-1.0355 -1.0356,-6.0264 0,-7.062 0.5945,-0.5947 7.4939,-0.7994 26.9275,-0.7994 14.3705,0 26.6024,0.1821 27.182,0.4044 0.7773,0.2982 1.054,1.3293 1.054,3.926 0,3.9699 -0.4077,4.3305 -4.895,4.3305 -3.5901,0 -7.0782,1.8863 -8.7626,4.7389 -1.2918,2.1879 -1.3325,3.4528 -1.3325,41.5638 0,38.1111 0.04,39.376 1.3325,41.5639 1.7142,2.903 5.1819,4.7362 8.9836,4.7491 4.3094,0.022 4.7853,0.5083 4.5459,4.7164 l -0.2043,3.6012 -27.0304,0.1732 c -14.8666,0.095 -27.2336,-0.029 -27.4818,-0.2776 z m 72.8743,-0.5132 c -1.0791,-1.3005 -0.6272,-6.4407 0.6253,-7.11 0.5497,-0.2936 2.4424,-0.72 4.2061,-0.9476 4.4247,-0.5709 6.8215,-2.8919 8.0725,-7.8159 0.5356,-2.1078 2.2358,-20.4459 3.7784,-40.7513 3.0289,-39.8686 3.0291,-39.8401 -0.4186,-42.0991 -0.8135,-0.533 -3.0911,-1.1506 -5.0611,-1.3724 -1.9701,-0.2221 -3.9567,-0.6984 -4.4147,-1.0595 -1.0626,-0.8373 -1.0868,-5.9685 -0.033,-7.0221 0.5812,-0.5814 5.5814,-0.7994 18.3212,-0.7994 15.8434,0 17.6335,0.1132 18.6877,1.1732 0.6411,0.6451 8.0238,16.7596 16.4057,35.8097 8.3818,19.05 15.6363,35.0597 16.1211,35.5771 0.751,0.8015 0.9862,0.7031 1.5909,-0.6662 0.3902,-0.8839 7.7185,-17.1966 16.285,-36.2507 l 15.5755,-34.6438 18.2271,0 18.2271,0 0.1998,3.4611 0.1999,3.4612 -2.5319,0.4257 c -7.3334,1.233 -8.9974,2.6825 -9.3747,8.1666 -0.4088,5.9408 3.7729,76.4409 4.6978,79.2017 1.0764,3.213 3.4513,4.8603 7.8726,5.4602 4.8466,0.6578 5.2652,1.0104 5.2652,4.4368 0,2.2203 -0.314,3.1033 -1.2887,3.6249 -0.8233,0.4406 -10.4163,0.6898 -26.5676,0.6898 -28.2735,0 -27.0088,0.227 -26.6484,-4.7808 l 0.2066,-2.8808 3.6642,-0.5392 c 2.0153,-0.2967 4.605,-0.6786 5.7549,-0.849 2.7481,-0.4073 5.4233,-3.1603 6.006,-6.1815 0.4537,-2.3517 -2.2612,-68.0896 -2.8359,-68.6688 -0.1577,-0.1599 -0.5605,0 -0.8959,0.3331 -0.3351,0.342 -8.8481,19.051 -18.9177,41.5754 -13.5282,30.2614 -18.673,41.1166 -19.705,41.577 -3.3402,1.4906 -3.5576,1.0975 -22.2775,-40.3027 -9.8389,-21.7596 -18.2811,-39.9756 -18.7598,-40.4801 -0.7247,-0.7629 -0.9392,-0.3149 -1.2763,2.6649 -1.1817,10.4391 -4.4178,58.6192 -4.1009,61.0554 0.7771,5.9763 3.8579,8.8162 9.5646,8.8162 3.2561,0 4.1519,0.9342 4.1519,4.3304 0,1.5024 -0.3597,3.0913 -0.7994,3.531 -1.2688,1.2688 -36.7402,1.1273 -37.8008,-0.151 z M 382.0808,1994.5793 c -11.5477,-0.7244 -23.07897,-3.761 -29.98552,-7.8961 -9.18637,-5.4999 -15.98543,-14.7778 -19.13269,-26.1074 -1.37198,-4.9385 -1.45925,-6.9474 -1.82013,-41.8301 -0.27381,-26.4823 -0.60093,-37.1044 -1.1801,-38.308 -2.05132,-4.265 -4.67758,-5.8641 -11.28321,-6.8708 l -5.21966,-0.7953 0,-4.3282 0,-4.3283 31.56957,-0.1732 c 23.34413,-0.1288 31.81409,0.031 32.50852,0.6061 0.65268,0.5418 0.87919,1.9151 0.7424,4.5036 l -0.19543,3.7243 -5.07776,0.7714 c -8.43331,1.2814 -11.25545,3.5215 -12.601,10.0025 -0.99579,4.7971 -0.46591,67.6389 0.61071,72.4037 3.48059,15.405 16.04251,23.7681 35.66243,23.7419 12.66585,-0.022 20.48623,-2.7666 27.41832,-9.6412 4.73554,-4.696 7.69314,-10.2035 9.41133,-17.5255 1.0764,-4.587 1.20521,-8.6219 1.20521,-37.7806 0,-29.1272 -0.1177,-32.8605 -1.10261,-34.6438 -2.32379,-4.2123 -5.26674,-5.7819 -12.55503,-6.6966 -2.01534,-0.253 -3.88455,-0.7984 -4.1537,-1.2121 -0.85499,-1.3136 -0.56407,-6.873 0.40151,-7.6745 0.65135,-0.5405 7.72756,-0.7062 24.81693,-0.5812 l 23.90554,0.1755 0,4.3151 0,4.3149 -3.33114,0.5155 c -1.83212,0.2836 -4.29671,0.6771 -5.47682,0.8747 -1.18011,0.1977 -3.09462,1.1579 -4.25452,2.1337 -4.29361,3.613 -4.21988,2.9516 -4.63338,41.4773 -0.3571,33.2524 -0.44704,35.2356 -1.82746,40.2256 -6.21878,22.4796 -21.96948,34.1255 -49.20593,36.3822 -4.3378,0.3593 -8.78619,0.604 -9.88546,0.5438 -1.09928,-0.06 -3.49769,-0.2043 -5.32981,-0.3184 z m 368.90973,-1.0497 c -0.37176,-0.4581 -9.84372,-21.2868 -21.04898,-46.2863 -11.20526,-24.9995 -21.09695,-46.5852 -21.98192,-47.9683 -2.84501,-4.4473 -5.40531,-6.3331 -10.24922,-7.5492 l -4.50192,-1.1302 -0.20431,-3.517 c -0.13768,-2.3609 0.0822,-3.6984 0.66623,-4.0693 1.13792,-0.7217 57.23351,-0.7217 58.37164,0 0.58784,0.3727 0.80458,1.7238 0.66623,4.1537 l -0.20431,3.6012 -4.48259,0.4432 c -8.95186,0.885 -11.62765,2.8446 -11.01139,8.0643 0.42549,3.6018 26.06921,61.4463 27.24066,61.4463 0.48945,0 5.88589,-11.7305 12.65452,-27.5083 12.6552,-29.4996 13.90681,-32.6962 13.90681,-35.5143 0,-4.2232 -1.3229,-5.1417 -8.97384,-6.2308 l -5.35002,-0.7615 -0.19987,-3.4259 c -0.16212,-2.7758 0.0289,-3.5286 0.99934,-3.9668 0.65956,-0.2975 10.49306,-0.391 21.85222,-0.2087 l 20.65302,0.3331 0,3.5768 0,3.5769 -4.33225,1.0906 c -5.46328,1.3753 -7.7722,3.0323 -10.47108,7.5142 -1.17966,1.9591 -10.86348,23.786 -21.51911,48.5041 -10.65584,24.7184 -19.69565,45.3296 -20.08872,45.8031 -0.96936,1.1681 -11.44533,1.1919 -12.38981,0.029 z m 359.27567,0.1466 c -2.565,-0.3125 -8.2925,-1.3656 -12.7276,-2.3403 -7.587,-1.6671 -8.1861,-1.7086 -10.1269,-0.7051 -2.4583,1.2712 -6.054,1.4016 -6.4526,0.2339 -0.1554,-0.4579 -1.177,-7.4284 -2.2683,-15.4898 -1.8221,-13.4606 -1.8956,-14.7249 -0.8998,-15.4897 1.934,-1.4857 6.8255,-0.8863 6.8255,0.8363 0,0.4732 1.3498,3.5568 2.9996,6.8526 3.7484,7.4875 8.4692,12.4666 14.7546,15.5615 4.2734,2.1041 4.9388,2.2327 11.5449,2.2327 5.8992,0 7.4339,-0.2269 9.6838,-1.4319 5.8639,-3.1408 8.9463,-8.0496 8.9707,-14.2861 0.033,-8.6323 -7.3906,-16.0308 -27.138,-27.0428 -14.7749,-8.2395 -21.186,-13.7283 -24.9393,-21.3526 -2.0431,-4.1503 -2.2024,-4.9465 -2.1639,-10.823 0.031,-4.8822 0.3762,-7.1871 1.4941,-10.0074 3.2081,-8.0918 10.5941,-14.6539 19.6434,-17.4529 7.1764,-2.2197 17.9984,-2.074 29.3573,0.3948 7.957,1.7295 11.2268,1.9074 14.7539,0.8026 0.7328,-0.2296 1.6744,-0.1888 2.0924,0.091 0.8154,0.5452 3.829,26.5329 3.1959,27.5578 -0.2043,0.3293 -1.676,0.5989 -3.2719,0.5989 l -2.9016,0 -2.7454,-5.6718 c -6.0018,-12.3996 -17.0998,-18.9193 -28.9289,-16.9939 -8.2465,1.342 -12.923,6.4431 -12.2574,13.3701 0.622,6.4726 5.0604,10.418 22.8313,20.2946 23.066,12.8197 31.1229,21.1478 33.1538,34.2691 0.8605,5.5594 -0.08,11.9843 -2.5244,17.2626 -1.9442,4.1961 -7.4206,10.1628 -12.0898,13.1717 -7.3752,4.7529 -18.8867,6.8948 -29.8654,5.557 z m -72.018,-0.9698 c -7.8748,-1.7133 -14.0953,-5.9419 -18.4977,-12.5746 -1.2692,-1.9121 -5.0698,-8.2614 -8.4462,-14.11 -3.3762,-5.8484 -7.4504,-12.6681 -9.0538,-15.1547 l -2.91545,-4.5212 -6.49349,0.191 -6.49348,0.191 0.0222,14.6569 c 0.0289,19.5707 0.57873,20.8021 10.06468,22.5529 l 4.57034,0.8435 0,3.6251 0,3.625 -27.31531,0 -27.31528,0 -0.19543,-3.6787 -0.19542,-3.6789 4.6869,-0.738 c 5.38511,-0.8481 7.51792,-2.0255 9.18082,-5.0686 1.09106,-1.9969 1.17967,-5.1118 1.17967,-41.4664 0,-37.984 -0.0444,-39.3806 -1.3178,-41.4866 -1.5623,-2.5836 -5.8106,-4.8161 -9.16439,-4.8161 -4.07797,0 -4.50791,-0.4186 -4.50791,-4.3891 0,-3.1779 0.16878,-3.6145 1.49901,-3.8864 2.02977,-0.4146 40.86499,-1.7386 50.65963,-1.727 21.21291,0.024 36.39171,4.1577 44.58741,12.1406 10.3123,10.0445 10.2399,29.0546 -0.1488,39.1739 -3.3955,3.3074 -10.9081,7.4295 -15.1428,8.3094 -1.1868,0.2465 -2.3232,0.716 -2.5255,1.0433 -0.2021,0.3276 1.2599,2.732 3.2494,5.3431 1.9894,2.6114 5.4877,8.0918 7.7738,12.1784 7.9432,14.2002 9.5326,16.6759 12.9126,20.1145 3.213,3.269 6.2409,4.8699 11.227,5.9368 1.7228,0.3686 1.8321,0.6058 1.8321,3.9724 0,2.6501 -0.2736,3.6852 -1.0537,3.9845 -1.9299,0.7406 -18.54,0.3116 -22.6626,-0.5854 z m -27.4356,-56.9371 c 4.5963,-1.7468 8.9248,-5.7591 11.1782,-10.3613 1.4528,-2.9674 1.6329,-4.2113 1.6484,-11.391 0.022,-7.9112 -0.024,-8.1439 -2.3142,-12.6332 -2.742,-5.3777 -6.8268,-8.8486 -12.5899,-10.6967 -4.2297,-1.3564 -17.66681,-1.5672 -20.88801,-0.3278 l -1.83212,0.7051 0,22.2533 c 0,17.0281 0.19542,22.4165 0.83544,22.9471 1.26472,1.0495 4.74154,1.3604 12.8222,1.147 5.55899,-0.1466 8.24879,-0.5436 11.13999,-1.6425 z m -424.47014,54.0734 c -18.33388,-19.4636 -77.72707,-80.0749 -78.28337,-79.8892 -1.15013,0.384 -1.00534,64.6373 0.15323,67.9087 1.21431,3.429 3.96316,5.173 9.50638,6.0311 l 4.66203,0.7215 -0.19542,3.708 -0.19543,3.7078 -20.57307,0.1754 c -14.625,0.1244 -20.83689,-0.042 -21.4858,-0.5811 -0.96203,-0.7986 -1.23562,-5.0858 -0.40284,-6.3117 0.26915,-0.3964 2.48391,-1.0448 4.92163,-1.441 5.2341,-0.851 7.39667,-2.1093 8.83483,-5.1402 0.92961,-1.9589 1.05686,-7.2036 1.05686,-43.5816 l 0,-41.3549 -2.05575,-1.0631 c -1.13059,-0.5845 -3.90387,-1.2669 -6.1626,-1.5161 l -4.10684,-0.453 -0.20431,-3.2163 c -0.33489,-5.2486 -0.80746,-5.1129 17.77514,-5.1018 11.77466,0 16.81911,0.2423 17.86531,0.8328 0.80191,0.4528 16.69141,16.5493 35.30999,35.7704 l 33.85229,34.9473 0.17322,-27.8778 c 0.1599,-25.6035 0.0777,-28.0412 -0.99934,-29.8809 -1.84478,-3.1497 -4.19323,-4.5061 -8.54102,-4.9327 -4.88721,-0.4795 -5.62362,-1.0347 -5.62362,-4.2392 0,-4.688 -0.27115,-4.6307 21.86644,-4.6194 10.87504,0 20.16467,0.2589 20.64391,0.5627 0.58784,0.3729 0.80458,1.7238 0.66623,4.1537 l -0.20431,3.6012 -4.30471,0.4748 c -4.7955,0.5288 -6.98672,1.8061 -9.01982,5.2579 -1.28937,2.189 -1.34311,3.7781 -1.66556,49.231 l -0.33312,46.9689 -4.9334,0.1977 -4.93341,0.1976 -3.06131,-3.2498 z m 46.17926,1.6054 c -0.19543,-0.5119 -0.26316,-2.2337 -0.1488,-3.8266 l 0.20876,-2.8959 4.33047,-0.7222 c 5.9665,-0.9953 8.26809,-2.3455 9.57767,-5.6182 0.9547,-2.3862 1.08173,-7.2255 1.08084,-41.1651 0,-35.2908 -0.0977,-38.6515 -1.1659,-40.7703 -1.54786,-3.0685 -4.76751,-4.8186 -9.74045,-5.2948 l -4.08263,-0.3908 -0.20431,-3.6012 c -0.13769,-2.4299 0.0777,-3.7808 0.66622,-4.1537 1.13792,-0.7217 53.23637,-0.7217 54.37429,0 0.58783,0.3729 0.80458,1.7238 0.66622,4.1537 l -0.20431,3.6012 -3.99735,0.3888 c -4.9665,0.4835 -7.95564,1.9921 -9.4824,4.7858 -1.08773,1.9904 -1.17723,5.139 -1.17723,41.4612 0,42.6507 -0.0822,41.6536 3.66425,44.4107 0.91606,0.6742 3.76418,1.6042 6.32915,2.0671 l 4.66358,0.8414 0,3.6556 0,3.6558 -27.49982,0.1732 c -23.0421,0.1466 -27.55779,0.022 -27.85714,-0.7566 z m 196.53388,0 c -0.19543,-0.5079 -0.26028,-2.2263 -0.14657,-3.819 l 0.20875,-2.8959 4.531,-0.74 c 5.1255,-0.8367 7.60187,-2.3453 9.29208,-5.6602 1.0693,-2.0971 1.16501,-5.4526 1.16501,-40.9256 0,-35.4548 -0.0955,-38.8333 -1.16501,-40.973 -1.42328,-2.8492 -5.96783,-5.3253 -9.80041,-5.34 -3.90941,-0.022 -4.47016,-0.5963 -4.22987,-4.3846 l 0.20653,-3.2668 46.59787,-0.171 c 25.62906,-0.093 46.82705,0.058 47.10686,0.3378 0.27982,0.2798 0.5965,6.0531 0.70398,12.8293 l 0.19543,12.3207 -2.38887,0.1999 c -2.94094,0.2465 -3.40042,-0.3169 -4.89743,-6.0067 -1.44038,-5.475 -3.31292,-7.5135 -7.78196,-8.4719 -1.88698,-0.4047 -11.03316,-0.7118 -21.20266,-0.7118 -15.69318,0 -17.93348,0.1288 -18.28835,1.054 -0.52765,1.3751 -0.52765,34.4921 0,35.8672 0.3511,0.9151 2.2645,1.0537 14.53594,1.0537 16.10136,0 19.78781,-0.6562 22.62483,-4.0278 0.92916,-1.1041 1.86699,-3.1228 2.08462,-4.4861 0.21763,-1.3633 0.63469,-2.9285 0.92739,-3.4782 0.61826,-1.1619 2.84523,-1.6145 5.12705,-1.0417 l 1.59784,0.401 0,17.5711 c 0,19.2237 0.1821,18.3796 -3.97027,18.3796 -2.33024,0 -3.08463,-0.9202 -3.67135,-4.4772 -0.25494,-1.5466 -1.08861,-3.6065 -1.85277,-4.5779 -2.69955,-3.4319 -4.82926,-3.8395 -21.62149,-4.1359 l -15.45956,-0.273 -0.43372,1.728 c -0.2385,0.9503 -0.32711,8.7547 -0.19764,17.343 0.22229,14.6472 0.32401,15.7316 1.64247,17.4958 l 1.40551,1.8807 19.2475,0 c 18.82378,0 19.31701,-0.033 22.40742,-1.5561 3.84057,-1.8914 5.72399,-4.4031 7.57388,-10.1008 l 1.40685,-4.3325 3.18323,-0.2065 c 1.75084,-0.1133 3.41485,0.035 3.69777,0.3331 0.61893,0.6493 -1.46947,26.1669 -2.23874,27.3557 -0.84078,1.2991 -97.62658,1.2098 -98.12559,-0.091 z m 345.6332,-3.241 c 0.1821,-3.1797 0.3527,-3.5128 1.867,-3.6649 7.7411,-0.7779 11.3474,-2.9238 12.6714,-7.5401 0.3928,-1.37 0.6473,-17.2757 0.6385,-39.9234 -0.022,-35.5054 -0.087,-37.8041 -1.2768,-40.4257 -1.6435,-3.6199 -3.69,-4.881 -9.3738,-5.776 l -4.658,-0.7335 0,-3.5241 0,-3.5241 27.4818,0.1732 27.4819,0.1732 0,3.2918 0,3.2921 -4.6538,0.8587 c -5.2943,0.9772 -7.5009,2.3238 -9.1693,5.5961 -1.0691,2.0966 -1.165,5.444 -1.1659,40.7158 0,25.6068 0.2361,39.0568 0.7095,40.3067 1.5943,4.2078 4.5286,6.083 10.6152,6.7835 l 3.6643,0.4217 0.2021,3.4977 0.2021,3.4977 -27.7179,0 -27.7182,0 0.2021,-3.4977 z m 90.9266,3.0611 c -0.2483,-0.2485 -0.4515,-1.7451 -0.4515,-3.3258 0,-3.1559 -0.093,-3.0953 6.0178,-3.8819 3.9829,-0.5125 6.8248,-2.3196 8.1979,-5.2132 1.0149,-2.139 1.1017,-6.1959 0.9458,-44.2161 l -0.171,-41.861 -12.6583,0.031 c -18.4169,0.044 -19.3987,0.6342 -23.2591,13.9501 -0.9442,3.2574 -2.0935,6.1724 -2.5534,6.4777 -0.8772,0.5825 -5.1894,0.08 -5.9312,-0.6904 -0.5123,-0.5325 2.3765,-30.2631 3.0456,-31.346 0.6995,-1.1319 3.7084,-0.8723 6.9518,0.5994 2.8028,1.2719 4.4657,1.3172 47.6352,1.2943 37.5225,-0.022 44.9996,-0.1777 46.3967,-0.9758 1.3575,-0.7759 7.227,-1.4395 7.3669,-0.8328 0.586,2.5405 2.9718,30.9773 2.6307,31.3555 -0.2692,0.2982 -1.791,0.4481 -3.382,0.3331 l -2.8923,-0.2087 -1.7457,-5.9961 c -3.9041,-13.41 -5.8522,-14.5006 -25.3175,-14.1746 l -10.9708,0.1843 -0.171,40.8825 c -0.111,26.292 0.071,41.7849 0.5088,43.4107 0.9625,3.5736 4.4551,6.4511 8.4622,6.9712 6.4944,0.8432 6.2847,0.6982 6.0598,4.1943 l -0.2021,3.1428 -27.0304,0.1732 c -14.8666,0.095 -27.2335,-0.029 -27.4818,-0.2776 z m 89.489,-2.8819 c 0,-3.6629 -0.111,-3.5829 5.9383,-4.2529 3.1759,-0.3518 5.5104,-1.7738 7.6781,-4.6772 1.352,-1.8103 1.3737,-2.477 1.3737,-42.0484 0,-39.8348 -0.022,-40.2267 -1.4022,-42.0902 -2.0315,-2.7257 -4.8943,-4.1739 -9.3427,-4.7264 l -3.912,-0.4859 -0.2088,-2.9221 c -0.1155,-1.6069 0.087,-3.2179 0.4484,-3.5796 0.4297,-0.4297 16.5875,-0.4859 46.6145,-0.1621 l 45.957,0.4961 0.4781,9.0798 c 0.2631,4.9938 0.5168,10.4288 0.5636,12.0778 l 0.084,2.998 -2.6192,0 -2.6191,0 -1.0733,-4.4029 c -1.3407,-5.4995 -2.7784,-7.7278 -5.899,-9.1439 -2.109,-0.9572 -5.2026,-1.1102 -22.4332,-1.1102 l -19.9868,0 -0.1776,19.1387 -0.1777,19.1387 1.6192,0.4064 c 0.8903,0.2236 8.0151,0.3053 15.8331,0.1821 13.3336,-0.211 14.4109,-0.3216 17.3967,-1.7917 3.4748,-1.7111 4.9456,-3.8533 5.7067,-8.3105 0.4637,-2.7169 0.5349,-2.7807 3.121,-2.7807 l 2.6465,0 0.1776,17.5274 0.1777,17.5273 -2.8275,-0.2066 c -2.789,-0.2021 -2.8345,-0.2463 -3.3358,-3.2023 -0.9131,-5.3847 -4.1419,-8.3432 -10.185,-9.3327 -4.8461,-0.7937 -28.2951,-0.8628 -29.5181,-0.087 -0.6939,0.4401 -0.8312,4.2201 -0.6662,18.3696 l 0.2066,17.8156 1.8692,1.6069 1.8692,1.6067 17.164,0 c 18.2086,0 22.1018,-0.5119 26.2304,-3.449 2.3287,-1.6565 4.8539,-5.9785 5.8672,-10.0421 l 0.7893,-3.1645 3.2521,0 c 2.1803,0 3.252,0.2782 3.252,0.8441 0,2.6071 -2.1195,25.4616 -2.4039,25.9217 -0.1866,0.3023 -22.2076,0.5494 -48.9348,0.5494 l -48.5952,0 0,-3.3182 z m 39.0727,-117.109 c -0.2246,-0.3636 5.3578,-6.5286 12.4049,-13.7003 10.9783,-11.1722 13.2152,-13.1426 15.6203,-13.7593 2.2117,-0.567 3.2956,-0.5155 5.1097,0.2425 2.7442,1.1465 3.7422,2.7826 3.7422,6.1341 0,3.6805 -2.9536,5.9945 -17.9881,14.0932 -12.5124,6.74 -17.8277,8.7069 -18.889,6.9898 z M 852.82811,1807.1155 C 717.9155,1801.8763 588.70889,1762.4192 489.64815,1696.2077 410.178,1643.0903 354.13993,1574.4532 330.56796,1501.3622 c -4.23609,-13.1353 -9.84061,-36.7988 -9.02737,-38.1148 0.42971,-0.6953 171.95679,-0.6844 172.38651,0 0.1821,0.2954 1.98224,5.7669 3.99935,12.1586 7.52081,23.8316 15.32165,42.9643 27.14873,66.5851 53.40159,106.6551 146.70947,185.7135 255.40896,216.4046 75.7093,21.3763 156.2514,19.1296 231.51366,-6.4582 58.4514,-19.8724 110.3009,-52.3774 155.2541,-97.3306 20.5818,-20.5819 37.4193,-41.1359 52.9573,-64.6475 23.4773,-35.5245 42.9058,-78.1978 53.6119,-117.7555 l 2.2087,-8.1612 42.702,0.096 c 23.4858,0.053 62.0761,0.2776 85.756,0.4996 l 43.0542,0.404 -1.883,9.3534 c -6.8357,33.9553 -22.3883,70.3071 -43.9185,102.6537 -49.5721,74.4756 -133.3507,137.3152 -238.8106,179.124 -94.5154,37.4699 -202.03056,55.1285 -310.10179,50.9315 z m 14.59857,-51.9222 c -66.67749,-3.0699 -132.16154,-24.8495 -189.22782,-62.9359 -23.38388,-15.6068 -38.326,-27.9495 -59.65302,-49.2768 -32.69017,-32.6901 -54.26458,-62.5247 -74.46611,-102.9772 -22.05076,-44.1551 -35.05905,-89.7165 -39.37487,-137.9089 -0.82368,-9.1984 -1.28959,-18.854 -1.08484,-22.4878 0.0378,-0.6658 17.17243,-0.801 84.49127,-0.6662 l 84.44419,0.1687 0.15989,5.663 c 0.22252,7.8925 1.9385,29.3219 3.87811,48.4311 10.98163,108.186 34.95223,183.8154 72.78322,229.6371 15.35963,18.6039 35.64977,34.256 56.50088,43.5852 38.71353,17.3212 91.24059,20.0665 135.92128,7.1035 76.15854,-22.0954 121.54504,-89.5171 142.15224,-211.168 5.6499,-33.3517 9.9219,-74.5996 11.7134,-113.0919 l 0.4575,-9.8268 31.7226,6e-4 c 17.4476,2e-4 54.8811,0.1999 83.186,0.4426 l 51.4628,0.4422 -0.3715,8.718 c -3.0189,70.8278 -23.7228,135.5488 -61.9422,193.6347 -14.8437,22.5593 -31.2982,42.3327 -52.3587,62.9195 -75.2679,73.5749 -179.32557,114.2465 -280.39388,109.5931 z m 5.32981,-49.0578 c -67.48651,-4.9871 -114.23494,-43.0555 -143.061,-116.4983 -24.30816,-61.9322 -36.0877,-144.2693 -37.91805,-265.0426 l -0.44993,-29.683 1.60672,-0.3771 c 0.88364,-0.2066 36.68353,-0.151 79.5552,0.1266 l 77.94848,0.5039 0.34377,176.2168 c 0.31024,159.1408 0.44704,176.5456 1.41062,179.6086 4.55033,14.4636 14.60324,22.8198 28.91023,24.0308 14.25502,1.2066 28.95353,-6.5528 34.98421,-18.468 4.49947,-8.8899 4.11839,6.6563 4.5652,-186.1707 l 0.40596,-175.2175 77.94848,0 77.94852,0 -0.1133,28.6477 c -0.211,53.6829 -3.5319,107.4901 -9.2719,150.234 -17.2223,128.247 -59.0807,200.738 -129.396,224.0899 -9.90257,3.2887 -22.11961,5.9621 -32.10656,7.026 -7.25387,0.7726 -27.87202,1.3747 -33.31132,0.9727 z"
     style="fill:url(#linearGradient4147);fill-opacity:1;fill-rule:nonzero" />
</svg>
