<?xml version="1.0" encoding="UTF-8" standalone="no"?>
<!-- Created with Inkscape (http://www.inkscape.org/) -->

<svg
   xmlns:dc="http://purl.org/dc/elements/1.1/"
   xmlns:cc="http://creativecommons.org/ns#"
   xmlns:rdf="http://www.w3.org/1999/02/22-rdf-syntax-ns#"
   xmlns:svg="http://www.w3.org/2000/svg"
   xmlns="http://www.w3.org/2000/svg"
   xmlns:sodipodi="http://sodipodi.sourceforge.net/DTD/sodipodi-0.dtd"
   xmlns:inkscape="http://www.inkscape.org/namespaces/inkscape"
   id="svg2"
   version="1.1"
   inkscape:version="0.91 r13725"
   width="1754"
   height="1240"
   viewBox="0 0 1754 1240"
   sodipodi:docname="logo_GSMA.svg">
  <metadata
     id="metadata8">
    <rdf:RDF>
      <cc:Work
         rdf:about="">
        <dc:format>image/svg+xml</dc:format>
        <dc:type
           rdf:resource="http://purl.org/dc/dcmitype/StillImage" />
        <dc:title />
      </cc:Work>
    </rdf:RDF>
  </metadata>
  <defs
     id="defs6" />
  <sodipodi:namedview
     pagecolor="#ffffff"
     bordercolor="#666666"
     borderopacity="1"
     objecttolerance="10"
     gridtolerance="10"
     guidetolerance="10"
     inkscape:pageopacity="0"
     inkscape:pageshadow="2"
     inkscape:window-width="2560"
     inkscape:window-height="1035"
     id="namedview4"
     showgrid="false"
     inkscape:zoom="0.49989305"
     inkscape:cx="609.14198"
     inkscape:cy="733.52249"
     inkscape:window-x="0"
     inkscape:window-y="0"
     inkscape:window-maximized="1"
     inkscape:current-layer="svg2" />
  <g
     id="g4220">
    <path
       inkscape:connector-curvature="0"
       id="path4185"
       d="m 1.8120683,1238.0594 c 0,-2.8834 43.3614327,-45.8585 65.0139067,-64.4346 77.342035,-66.3536 172.584655,-119.8074 282.060335,-158.3031 26.01904,-9.1493 98.94234,-31.06011 108.0231,-32.45709 2.20048,-0.33852 19.75423,-3.82451 39.00835,-7.74664 39.26874,-7.99918 75.74464,-13.55672 123.02631,-18.74452 25.85824,-2.83719 49.87629,-3.51418 125.02675,-3.52411 83.63447,-0.011 97.02723,0.44442 132.73705,4.51408 152.72013,17.40471 285.43133,56.76308 400.37703,118.74038 74.6337,40.2416 130.4496,81.6008 187.0099,138.5733 l 24.9754,25.1573 -30.427,0 -30.427,0 -19.8015,-16.558 c -70.8051,-59.2067 -175.2461,-115.4625 -279.3615,-150.4742 -122.6717,-41.2519 -246.66992,-60.9425 -384.11632,-60.9968 -161.16561,-0.064 -306.9986,26.9719 -443.40134,82.201 -86.92747,35.1968 -154.79677,74.7842 -224.905424,131.185 l -18.201849,14.643 -28.3081,0 c -15.569454,0 -28.3080987,-0.7988 -28.3080987,-1.775 z"
       style="fill:#ffffff;fill-opacity:1;fill-rule:nonzero;stroke:none;stroke-width:0.1;stroke-miterlimit:4;stroke-dasharray:none;stroke-opacity:1" />
    <path
       style="fill:#fbfb03"
       d="m 125.80885,1119.67 c -4.12216,-6.6112 -9.66698,-18.1574 -12.97247,-27.0133 C 84.118968,1015.7188 111.82087,931.07312 180.80964,884.95818 211.15892,864.67147 243.86588,854.8398 281,854.8411 c 29.53304,10e-4 55.76105,5.97179 80.19245,18.25566 42.31646,21.2763 73.50442,55.85787 89.19753,98.90324 1.50385,4.125 3.13289,8.24387 3.62008,9.15305 0.75062,1.40079 -0.13634,1.91372 -5.81213,3.36119 -3.68386,0.93948 -8.72293,2.27941 -11.19793,2.97763 -2.475,0.69821 -7.2,1.99258 -10.5,2.87636 -65.6148,17.57257 -128.8251,41.12807 -187,69.68607 -38.65786,18.9771 -58.78551,30.3755 -94.5,53.516 -17.78033,11.5204 -16.13688,10.9981 -19.19115,6.0997 z"
       id="path4146"
       inkscape:connector-curvature="0" />
    <path
       style="fill:#01cafd"
       d="m 61,1239.6767 c 0,-0.5915 17.03333,-14.8375 29.070707,-24.3136 C 165.43012,1156.0386 258.68429,1106.9846 361.5,1072.5847 c 24.85803,-8.317 48.35819,-15.6261 56,-17.4173 2.2,-0.5157 10.075,-2.5395 17.5,-4.4973 46.56916,-12.2794 102.51252,-22.9097 153,-29.073 23.42247,-2.8593 30.4978,-3.5604 56,-5.5494 127.95195,-9.9794 259.35305,-0.4872 379,27.3782 30.4196,7.0846 48.5742,11.9749 76.5,20.6068 17.6282,5.4489 55.7631,18.3582 61.5,20.8188 1.375,0.5898 9.925,3.9834 19,7.5415 43.5398,17.0708 95.7292,42.7961 136.5,67.2841 26.7054,16.0399 58.5815,37.9407 80.3465,55.2031 9.5684,7.5889 29.1535,24.222 29.1535,24.7593 0,0.1983 -307.125,0.3605 -682.5,0.3605 -375.375,0 -682.5,-0.1455 -682.5,-0.3233 z m 991.603,-657.51003 c -0.2833,-0.45834 0.1204,-0.83334 0.897,-0.83334 0.7766,0 1.1803,0.375 0.897,0.83334 -0.2833,0.45833 -0.6869,0.83333 -0.897,0.83333 -0.2101,0 -0.6137,-0.375 -0.897,-0.83333 z"
       id="path4144"
       inkscape:connector-curvature="0" />
    <path
       style="fill:#00007d"
       d="M 1474.9503,1224.3477 C 1404.8986,1148.4692 1309.4116,1084.1035 1196,1036.3133 c -5.775,-2.4335 -13.425,-5.553 -17,-6.9323 -3.575,-1.3793 -9.2,-3.5987 -12.5,-4.932 -7.1476,-2.888 -44.5061,-16.1562 -49.5,-17.5805 -1.925,-0.549 -9.125,-2.7617 -16,-4.9171 -89.5148,-28.06409 -190.26183,-45.4459 -295.16423,-50.92443 -28.81808,-1.50503 -99.96771,-1.26009 -130.33577,0.4487 -62.53586,3.51883 -117.19955,10.17845 -169.73754,20.67894 -5.35565,1.0704 -12.10565,2.35768 -15,2.86062 -2.89436,0.50294 -11.99007,2.51157 -20.21271,4.46363 C 453.62342,983.49719 454.4658,983.69573 451.5472,975 433.00871,919.76621 385.55069,876.02677 327.35265,860.53675 311.22038,856.24298 299.81693,854.84176 281,854.8411 c -22.6667,-7.9e-4 -40.27449,2.93473 -60.46135,10.07994 -44.50852,15.75396 -83.21329,50.62759 -102.48462,92.3403 -22.564967,48.84176 -21.831716,104.33306 2.00697,151.88426 2.30354,4.5949 5.03218,9.5489 6.06363,11.0088 1.03145,1.4599 1.87537,3.1271 1.87537,3.7049 0,0.5778 -4.6125,4.2984 -10.25,8.2681 -36.361332,25.604 -81.707787,65.6571 -109.7750778,96.961 L 0,1237.983 -0.0128172,1231.2415 C -0.01986666,1227.5337 0.6800127,1221.35 1.5424703,1217.5 2.862011,1211.6096 39.902074,1033.8237 56.023605,956 c 2.677472,-12.925 6.044362,-29.125 7.481977,-36 14.791904,-70.73823 68.229988,-327.1651 70.020728,-336 1.28201,-6.325 4.64418,-22.525 7.47149,-36 2.82731,-13.475 6.20953,-29.675 7.51603,-36 1.3065,-6.325 15.9349,-76.525 32.50755,-156 16.57264,-79.475 32.31752,-155.075 34.98861,-168 2.67109,-12.925 12.53656,-60.33163 21.92327,-105.348059 C 247.31997,37.635508 255,0.62300818 255,0.40194076 255,0.18087334 591.825,0 1003.5,0 1529.3059,0 1752,0.31485493 1752,1.0582629 1752,1.6403075 1741.6118,51.927808 1728.9151,112.80826 1716.2184,173.68872 1704.7706,228.675 1703.4754,235 c -1.2951,6.325 -4.6623,22.525 -7.4826,36 -8.5095,40.65752 -15.0085,71.85118 -17.5009,84 -1.2976,6.325 -13.678,65.725 -27.5119,132 -13.834,66.275 -26.2116,125.675 -27.506,132 -1.2944,6.325 -4.6609,22.525 -7.4812,36 -8.5095,40.65752 -15.0085,71.85118 -17.5009,84 -1.2976,6.325 -13.678,65.725 -27.5119,132 -13.834,66.275 -26.21,125.675 -27.5023,132 -1.2923,6.325 -6.9098,33.325 -12.4832,60 -10.4147,49.8456 -12.7085,60.8694 -27.4656,132 -4.7355,22.825 -8.847,42.2875 -9.1368,43.25 -1.3245,4.3991 -4.9182,1.8293 -19.4418,-13.9023 z M 376,711.50286 c 28.18378,-4.42937 55.0033,-13.52309 81.86558,-27.75827 13.2035,-6.99695 19.73233,-11.54109 25.75946,-17.92889 11.03249,-11.69268 11.3418,-13.55823 11.36018,-68.51648 0.018,-53.84194 -0.55724,-57.58195 -10.48976,-68.20061 C 474.29324,518.1916 466.52619,517.01165 405,517.02185 c -37.71164,0.006 -47.69637,0.28975 -52.83012,1.50001 -9.89648,2.33306 -18.30429,8.99747 -22.05041,17.47814 -4.33976,9.82458 -3.60461,21.68978 1.87968,30.33761 2.13968,3.37393 4.44227,5.36063 8.70503,7.51078 10.48564,5.28902 11.71821,5.44886 46.79582,6.06859 l 33,0.58302 0.26946,22.37409 c 0.20401,16.93897 -0.0389,22.7468 -1,23.9084 -0.6982,0.84388 -5.09446,3.30174 -9.76946,5.46192 -27.30902,12.61868 -50.03525,17.47115 -77.26589,16.49768 -17.52578,-0.62652 -29.67891,-3.54021 -42.44408,-10.17586 -26.62302,-13.83932 -42.80604,-38.4525 -49.41283,-75.15324 -2.89077,-16.05825 -3.18603,-49.23234 -0.56204,-63.14876 4.19161,-22.23043 10.83434,-38.54918 21.60502,-53.07559 11.66443,-15.73182 27.47759,-25.98742 49.07982,-31.83067 5.02716,-1.35981 10.57863,-1.7695 24.5,-1.80809 20.80032,-0.0576 24.95376,0.70291 38,6.95828 14.16423,6.79143 21.9399,14.63131 37.30644,37.61456 8.09507,12.10754 11.07639,14.95427 20.19356,19.28195 5.81787,2.76158 7.44449,3.0788 15.5,3.02278 11.48081,-0.0798 18.35514,-2.61447 25.97255,-9.57635 10.60648,-9.69373 14.50502,-22.76549 11.10757,-37.24352 -1.83477,-7.81875 -7.78719,-21.11443 -12.66123,-28.28088 -4.49404,-6.60774 -16.92653,-19.40861 -25.60095,-26.35953 C 431.75436,368.09851 405.5264,356.90403 382,351.94213 c -13.35026,-2.81566 -51.96751,-3.90468 -70,-1.97402 -47.92733,5.13139 -89.24839,25.55562 -115.4899,57.08451 -21.06513,25.30953 -34.49621,59.16734 -38.48106,97.00524 -1.47236,13.98073 -1.23744,42.64887 0.47076,57.44827 4.95971,42.96969 22.92487,80.87103 50.73201,107.02999 25.32405,23.82306 59.77095,39.05892 99.26819,43.90632 15.6277,1.91796 52.59157,1.40342 67.5,-0.93958 z m 340.15826,0.95202 c 44.81845,-5.61103 77.92708,-23.91097 97.67016,-53.98466 9.37372,-14.27854 14.39866,-29.46694 16.21842,-49.02183 2.26083,-24.29444 -2.95289,-47.4154 -14.67402,-65.07404 C 798.66229,519.19888 764.14051,501.38119 706,487.92389 c -4.675,-1.08208 -11.875,-2.90411 -16,-4.04896 -4.125,-1.14485 -9.975,-2.75918 -13,-3.5874 -19.72921,-5.40172 -30.23214,-10.17641 -38.40127,-17.45744 -7.14361,-6.36699 -9.54719,-11.23194 -9.57677,-19.38375 -0.0546,-15.04096 14.01469,-28.30981 35.08818,-33.09197 10.72992,-2.43492 30.94539,-2.18178 41.14362,0.5152 16.83377,4.45179 24.68116,12.4405 40.83986,41.57533 5.992,10.80384 13.79452,18.63661 20.77121,20.85174 7.29618,2.31657 17.78068,2.19699 24.8375,-0.28329 11.33109,-3.98255 21.03048,-15.91558 23.2374,-28.58867 2.23255,-12.82023 -2.25605,-30.84513 -11.09871,-44.56912 -5.35699,-8.31417 -20.50992,-23.3523 -29.34102,-29.11872 -15.71777,-10.26319 -37.47633,-17.92564 -58.82236,-20.71476 -11.80354,-1.54227 -46.55847,-1.27069 -58.88873,0.46017 -56.5249,7.93469 -92.37805,35.9116 -101.26059,79.01564 -2.60254,12.62927 -2.21805,33.5394 0.83811,45.58007 6.12015,24.11213 22.51348,44.11917 46.95942,57.31105 17.68364,9.5427 39.02475,16.71508 78.97273,26.54135 28.80324,7.08492 41.5227,11.41523 50.26991,17.11426 10.53191,6.86181 15.07062,12.80949 17.42935,22.83999 5.15837,21.93595 -10.57641,42.39492 -38.99784,50.7065 -5.35008,1.56458 -9.68439,1.89454 -24.5,1.86513 -20.3915,-0.0405 -25.0677,-1.09674 -37.63727,-8.50155 -11.3249,-6.67157 -17.80664,-15.3931 -27.41115,-36.88317 -8.95679,-20.0408 -14.27518,-26.8263 -24.79324,-31.63265 -5.28726,-2.41607 -6.71719,-2.63112 -15.06707,-2.26592 -11.21432,0.49047 -18.18139,3.54328 -25.19258,11.03882 -7.47614,7.99259 -8.90424,12.22682 -8.86637,26.28823 0.0387,14.35691 1.55038,20.49187 8.69832,35.29994 18.88288,39.11888 56.04685,62.68772 107.38585,68.10254 13.44522,1.41809 39.40594,1.19693 52.54177,-0.4476 z M 935.5,711.14617 c 5.39922,-2.42085 12.36804,-8.63023 15.69921,-13.98835 1.14282,-1.8382 2.91551,-6.53277 3.93932,-10.43237 C 956.9023,680.00741 957,673.55625 957,563.81763 957,499.63904 957.38431,448 957.86195,448 c 0.47407,0 1.34943,2.3625 1.94526,5.25 2.05067,9.93807 6.03645,28.46057 22.64836,105.25 9.16161,42.35 18.00683,83.975 19.65613,92.5 6.6198,34.21796 13.9181,49.07401 28.2272,57.45793 11.6,6.79662 31.4212,7.37307 44.4411,1.29246 9.2307,-4.31096 18.0286,-14.96204 22.2156,-26.8952 3.4985,-9.97087 8.8308,-31.25399 13.8687,-55.35519 2.7592,-13.2 12.2435,-58.29809 21.0762,-100.21799 8.8327,-41.91989 16.0595,-76.45739 16.0595,-76.75 0,-0.2926 0.45,-0.53201 1,-0.53201 0.6608,0 1.004,39.09125 1.0119,115.25 0.013,123.20005 -0.1381,119.24622 4.9578,130.00054 3.0406,6.41679 11.6126,14.07151 18.7836,16.77371 4.7558,1.79206 7.3162,2.09914 14.8484,1.78087 7.825,-0.33064 10.0404,-0.84669 15.7931,-3.67869 10.9358,-5.38372 17.2222,-15.2779 19.6318,-30.89911 0.6911,-4.47985 0.9435,-54.66786 0.7556,-150.22732 l -0.2822,-143.5 -2.4007,-6.78037 C 1217.912,366.89289 1210.066,360.39511 1195,356.27679 c -5.4422,-1.48763 -10.65,-1.77505 -32,-1.76613 -27.2737,0.0114 -33.6424,0.77433 -42.09,5.04204 -8.9663,4.5297 -13.2649,11.55414 -19.2444,31.4473 -2.9477,9.80691 -19.3288,75.71868 -35.2913,142 -8.876,36.85577 -11.8927,48.13932 -12.8743,48.15448 -0.9575,0.0148 -5.2276,-16.10859 -14.872,-56.15448 -14.0597,-58.37959 -29.9863,-122.49453 -32.6218,-131.32435 -8.09032,-27.10528 -12.87804,-33.28357 -29.0062,-37.43094 -9.01572,-2.31841 -48.2318,-2.85877 -59.9174,-0.82561 -18.34965,3.19263 -28.08017,10.40946 -32.35395,23.99594 L 882.5,386.5 l 0,147 c 0,139.84825 0.0894,147.29191 1.83833,153 4.06848,13.27881 10.12008,20.39022 21.39029,25.13633 5.02814,2.11745 6.99479,2.38674 15.27138,2.09107 7.14743,-0.25533 10.7382,-0.89455 14.5,-2.58123 z m 388.5,0.0837 c 11.0614,-4.94976 16.3182,-14.3994 33.5055,-60.22984 l 9.188,-24.5 64.9033,-0.23884 c 35.6967,-0.13136 65.4394,0.10397 66.0949,0.52296 0.6554,0.41899 4.64,9.75147 8.8547,20.73884 13.2594,34.56662 19.982,48.8537 26.0934,55.45472 7.7913,8.4155 13.0503,10.51402 26.3602,10.51866 9.4057,0.003 11.1253,-0.28791 16.5,-2.79393 11.9293,-5.56222 21.3629,-17.96994 22.9647,-30.205 0.8077,-6.1695 -1.34,-17.14628 -5.8313,-29.80271 -1.7945,-5.05709 -24.0019,-60.2697 -49.3498,-122.6947 -25.3479,-62.425 -48.7392,-120.25 -51.9806,-128.5 -9.8336,-25.02804 -18.8495,-37.78166 -31.4607,-44.50337 -8.6912,-4.63236 -14.8129,-5.97125 -27.3639,-5.98476 -26.8573,-0.0289 -41.2471,10.43977 -53.7652,39.11451 -2.0106,4.60549 -19.7021,49.09862 -39.3144,98.87362 -19.6123,49.775 -39.4759,100.175 -44.1412,112 -26.0827,66.11071 -25.305,63.84858 -25.9584,75.5 -0.427,7.61488 -0.1702,9.88442 1.6687,14.74666 3.7779,9.98947 14.3956,19.78838 25.3181,23.36581 6.1447,2.01254 21.8811,1.22747 27.714,-1.38263 z m 64,-149.14918 c 0,-1.05564 8.3881,-25.91814 18.6402,-55.25 10.2521,-29.33186 19.9541,-57.14516 21.56,-61.80733 3.0213,-8.77135 3.4656,-9.69083 4.2864,-8.87007 0.4437,0.44371 12.8633,35.14925 27.5001,76.84674 3.1856,9.075 8.3167,23.64171 11.4026,32.37046 3.0859,8.72875 5.6107,16.49125 5.6107,17.25 0,1.15205 -7.3381,1.37954 -44.5,1.37954 -43.21,0 -44.5,-0.0556 -44.5,-1.91934 z"
       id="path4142"
       inkscape:connector-curvature="0" />
    <path
       inkscape:connector-curvature="0"
       id="path4138"
       d="m 292.10012,708.63147 c -39.56436,-8.58338 -70.88301,-26.40131 -93.89524,-53.41925 -13.49253,-15.84114 -28.93456,-47.21244 -34.71141,-70.51798 -3.82593,-15.43498 -4.45261,-23.2843 -4.39205,-55.01177 0.0599,-31.39801 0.71518,-39.35563 4.32255,-52.49554 9.85751,-35.90609 20.99911,-56.02527 43.46914,-78.4953 18.29839,-18.2984 31.75339,-26.88878 56.92382,-36.34318 26.58389,-9.98531 51.10486,-13.37367 86.39954,-11.93889 32.77795,1.33248 50.82123,5.74439 76.68397,18.75063 28.66409,14.41504 53.39914,45.27163 56.36511,70.31463 2.41446,20.38624 -12.68993,37.98311 -34.12914,39.76101 -15.28335,1.26742 -25.02173,-4.29206 -36.86038,-21.04295 -15.18497,-21.48573 -25.95958,-32.07409 -39.34258,-38.66252 -11.71012,-5.76488 -13.67856,-6.09498 -36.34578,-6.09498 -19.34936,0 -26.10012,0.79881 -35.05006,4.14741 -31.65271,11.8428 -49.99226,34.50492 -59.93109,74.05667 -3.71204,14.77217 -4.11776,20.59861 -3.13422,45.00963 0.65966,16.37203 2.50562,33.03558 4.43598,40.04344 7.95016,28.86191 26.64057,52.89229 49.57881,63.74383 28.24927,13.36404 70.53078,11.87576 109.41056,-3.85116 20.14605,-8.1491 20.00428,-7.90899 20.00428,-33.88211 l 0,-22.37985 -35.26939,-1.27563 c -38.61226,-1.39652 -45.77283,-3.26738 -53.62056,-14.00955 -5.85113,-8.00918 -5.54053,-24.35083 0.62747,-33.01299 9.25611,-12.99901 11.15521,-13.34495 73.25927,-13.34495 62.89785,0 66.5861,0.6139 77.71852,12.93615 9.02929,9.99435 9.83288,16.63824 8.96424,74.11401 -0.57891,38.30459 -1.20238,45.93637 -4.2021,51.43678 -9.45978,17.34579 -55.76703,40.93514 -99.4843,50.67822 -21.08991,4.70023 -77.65732,5.15498 -97.79496,0.78619 z"
       style="fill:#ffffff;fill-opacity:1;fill-rule:nonzero;stroke:none;stroke-width:0.1;stroke-miterlimit:4;stroke-dasharray:none;stroke-opacity:1" />
    <path
       inkscape:connector-curvature="0"
       id="path4140"
       d="m 662.95349,711.6669 c -49.6635,-5.36143 -86.27392,-28.65925 -105.26701,-66.98891 -8.11574,-16.37824 -8.70501,-18.66809 -8.73028,-33.9252 -0.0246,-14.86078 0.48696,-17.03572 5.57748,-23.71265 7.64291,-10.02472 14.93767,-13.34825 29.2978,-13.34825 10.98998,0 12.79742,0.63355 19.76471,6.92808 4.85082,4.38244 11.05411,13.88417 16.88245,25.85929 10.95744,22.51356 20.88261,34.18041 34.47314,40.52261 8.51497,3.97361 13.19635,4.67052 31.48528,4.68716 23.75465,0.0216 35.38349,-3.09014 48.26464,-12.91506 19.72663,-15.04624 22.58387,-42.48691 5.94507,-57.09598 -10.95699,-9.62037 -20.52036,-13.4747 -59.19072,-23.85566 -45.32528,-12.16744 -58.8398,-16.72712 -76.08281,-25.66964 -36.88714,-19.1303 -55.21891,-55.19719 -49.38799,-97.16856 5.44409,-39.18693 33.64698,-66.92917 80.96268,-79.64026 22.01893,-5.91526 77.28819,-6.49434 97.02075,-1.01653 22.47323,6.23863 41.06768,16.43176 55.13295,30.22284 17.50641,17.16512 23.88395,30.85234 23.88395,51.25875 0,12.85191 -0.75334,16.2492 -4.9667,22.39822 -6.79764,9.92047 -17.31331,15.46509 -29.31293,15.45586 -13.17638,-0.0102 -21.22854,-5.3454 -30.30751,-20.08143 -23.39731,-37.97614 -30.77424,-43.63998 -59.14459,-45.40995 -34.93602,-2.17958 -60.30764,12.76718 -60.30764,35.52803 0,8.40027 0.96574,10.75996 7.0015,17.10746 9.73237,10.23505 22.31814,15.34718 66.38215,26.96339 43.18499,11.38447 63.52732,18.69663 80.7574,29.02868 29.29043,17.56406 43.65862,40.86645 46.18108,74.89655 2.30764,31.13214 -8.94353,61.91486 -30.33355,82.99129 -21.90934,21.58818 -51.02553,33.60473 -89.72589,37.0308 -24.35353,2.15598 -25.8276,2.15436 -46.25541,-0.051 l 0,8e-5 z"
       style="fill:#ffffff;fill-opacity:1;fill-rule:nonzero;stroke:none;stroke-width:0.1;stroke-miterlimit:4;stroke-dasharray:none;stroke-opacity:1" />
    <path
       inkscape:connector-curvature="0"
       id="path4143"
       d="m 905.00526,710.06274 c -9.55094,-4.50895 -13.80127,-8.97908 -17.92756,-18.85468 -2.67611,-6.40483 -3.07693,-26.89983 -3.07693,-157.33025 0,-101.09405 0.69339,-151.80132 2.12769,-155.59752 6.45212,-17.07695 20.89802,-22.64004 58.74833,-22.62389 30.27318,0.0129 39.76109,2.08425 47.50124,10.37011 7.50518,8.03432 11.25297,20.69547 37.71147,127.39903 15.44,62.2675 23.0602,89.7828 24.2674,87.62564 0.9679,-1.72953 11.222,-41.67594 22.787,-88.76981 25.5703,-104.12549 29.248,-116.60612 36.9442,-125.37155 8.6147,-9.81167 18.1081,-11.76553 53.2183,-10.95306 27.3599,0.63313 30.4764,1.09224 38.6228,5.68977 5.9358,3.34995 10.3938,7.91185 13.5029,13.81752 l 4.6414,8.81645 0,146.35374 c 0,163.32955 0.1554,161.26413 -12.9981,172.813 -13.7987,12.11543 -32.5513,12.84911 -45.9581,1.79809 -14.0232,-11.55914 -13.583,-7.40313 -14.6352,-138.19386 -0.5206,-64.7153 -1.6196,-116.92647 -2.4422,-116.02482 -0.8226,0.90164 -11.0174,47.09907 -22.655,102.66096 -23.2858,111.17338 -28.1218,130.17108 -36.0474,141.60777 -13.2975,19.18832 -43.9267,23.57888 -63.0002,9.03079 -13.0401,-9.94621 -16.4204,-21.31112 -42.25838,-142.07805 -13.23404,-61.85596 -24.06189,-112.94189 -24.06189,-113.52429 0,-0.5824 -0.87307,-1.0589 -1.94015,-1.0589 -1.22534,0 -2.14661,44.03648 -2.50053,119.52557 -0.52939,112.91281 -0.77136,119.95047 -4.37378,127.20569 -7.77522,15.65918 -30.14433,23.24505 -46.19731,15.66655 z"
       style="fill:#ffffff;fill-opacity:1;fill-rule:nonzero;stroke:none;stroke-width:0.1;stroke-miterlimit:4;stroke-dasharray:none;stroke-opacity:1" />
    <path
       inkscape:connector-curvature="0"
       id="path4145"
       d="m 1291.0878,709.39239 c -6.3728,-3.51599 -15.1177,-12.20977 -18.1824,-18.07602 -4.6033,-8.81137 -3.359,-21.93794 3.9822,-42.00909 14.6559,-40.07019 100.4769,-256.23781 106.3479,-267.87141 11.6662,-23.11648 23.7934,-30.74369 48.8825,-30.74369 13.6299,0 18.6289,0.86491 25.1948,4.35911 9.8997,5.26841 19.1682,15.4731 25.5888,28.17368 8.7222,17.25343 109.181,267.8884 112.3814,280.38101 3.6685,14.31936 2.5818,22.02997 -4.5973,32.62084 -8.0217,11.83387 -15.646,15.49459 -32.271,15.49459 -13.4882,0 -14.6812,-0.37942 -22.0094,-7.00006 -7.9238,-7.15869 -14.1772,-19.55688 -29.7652,-59.01406 l -7.5078,-19.00406 -66.6275,0 -66.6275,0 -11.9253,30.89226 c -13.9523,36.14345 -19.8586,46.98931 -27.8351,51.11414 -6.8149,3.52413 -29.092,3.95834 -35.0291,0.68276 z m 176.5825,-145.00375 c 9.5643,-1.14875 10.4271,-1.65964 9.261,-5.4838 -2.8332,-9.29148 -43.2263,-122.29909 -43.9918,-123.07578 -0.4518,-0.45843 -1.2831,-0.37186 -1.8474,0.19238 -1.6547,1.65468 -42.9835,121.39264 -42.9835,124.53192 0,1.57197 2.0254,3.24823 4.501,3.72505 7.2943,1.40494 63.5927,1.48762 75.0607,0.11023 z"
       style="fill:#ffffff;fill-opacity:1;fill-rule:nonzero;stroke:none;stroke-width:0.1;stroke-miterlimit:4;stroke-dasharray:none;stroke-opacity:1" />
  </g>
</svg>
