<?xml version="1.0" encoding="UTF-8" standalone="no"?>
<svg
   xmlns:dc="http://purl.org/dc/elements/1.1/"
   xmlns:cc="http://creativecommons.org/ns#"
   xmlns:rdf="http://www.w3.org/1999/02/22-rdf-syntax-ns#"
   xmlns:svg="http://www.w3.org/2000/svg"
   xmlns="http://www.w3.org/2000/svg"
   xmlns:sodipodi="http://sodipodi.sourceforge.net/DTD/sodipodi-0.dtd"
   xmlns:inkscape="http://www.inkscape.org/namespaces/inkscape"
   viewBox="0 0 767.23999 234.33333"
   height="234.33333"
   width="767.23999"
   xml:space="preserve"
   id="svg2"
   version="1.1"
   inkscape:version="0.91 r13725"
   sodipodi:docname="logo_GE.svg"
   inkscape:export-filename="/Users/benoit/Desktop/logo_GE.png"
   inkscape:export-xdpi="393.28592"
   inkscape:export-ydpi="393.28592"><sodipodi:namedview
     pagecolor="#ffffff"
     bordercolor="#666666"
     borderopacity="1"
     objecttolerance="10"
     gridtolerance="10"
     guidetolerance="10"
     inkscape:pageopacity="0"
     inkscape:pageshadow="2"
     inkscape:window-width="1995"
     inkscape:window-height="914"
     id="namedview4278"
     showgrid="false"
     inkscape:zoom="1.1886763"
     inkscape:cx="271.73083"
     inkscape:cy="117.16666"
     inkscape:window-x="0"
     inkscape:window-y="0"
     inkscape:window-maximized="0"
     inkscape:current-layer="svg2" /><metadata
     id="metadata8"><rdf:RDF><cc:Work
         rdf:about=""><dc:format>image/svg+xml</dc:format><dc:type
           rdf:resource="http://purl.org/dc/dcmitype/StillImage" /><dc:title></dc:title></cc:Work></rdf:RDF></metadata><defs
     id="defs6" /><g
     transform="matrix(1.3333333,0,0,-1.3333333,0,234.33333)"
     id="g10"><g
       transform="scale(0.1)"
       id="g12"><path
         id="path14"
         style="fill:#0d68a5;fill-opacity:1;fill-rule:nonzero;stroke:none"
         d="M 5754.33,164.762 C 5754.33,73.7617 5678.17,0 5584.22,0 H 170.078 C 76.1484,0 0,73.7617 0,164.762 V 1592.73 c 0,91.02 76.1484,164.76 170.078,164.76 H 5584.22 c 93.95,0 170.11,-73.74 170.11,-164.76 V 164.762" /><path
         id="path16"
         style="fill:#ffffff;fill-opacity:1;fill-rule:nonzero;stroke:none"
         d="m 276.344,282.488 h 47.465 l -22.895,73.34 z m -67.012,-80.047 68.969,204.918 h 44.394 l 66.45,-204.918 h -41.602 l -14.516,45.348 h -67.015 l -14.797,-45.348 h -41.883" /><path
         id="path18"
         style="fill:#ffffff;fill-opacity:1;fill-rule:nonzero;stroke:none"
         d="m 410.082,242.18 v 165.179 h 39.094 V 253.102 c 0,-7.09 1.953,-11.391 5.863,-12.872 2.793,-1.128 6.602,-1.679 11.445,-1.679 h 70.082 v -36.11 h -84.043 c -28.293,0 -42.441,13.239 -42.441,39.739" /><path
         id="path20"
         style="fill:#ffffff;fill-opacity:1;fill-rule:nonzero;stroke:none"
         d="m 557.504,338.488 v 17.641 c 0,19.59 5.309,33.5 15.918,41.699 9.676,7.293 22.801,11.024 39.371,11.211 2.23,0 6.93,0 14.098,0 7.164,0 17.683,-0.758 31.55,-2.238 13.868,-1.512 24.993,-3.461 33.368,-5.879 v -30.813 c -21.219,1.879 -38.114,2.821 -50.676,2.821 -12.57,0 -19.317,0 -20.242,0 -8.379,0 -14.524,-1.141 -18.43,-3.36 -3.91,-2.25 -5.863,-7.761 -5.863,-16.531 v -10.078 c 0,-7.832 1.578,-13.063 4.746,-15.68 3.164,-2.621 8.836,-3.91 17.031,-3.91 h 32.387 c 21.218,0 35.465,-8.492 42.722,-25.48 3.723,-8.582 5.582,-18.192 5.582,-28.832 v -13.707 c 0,-25.024 -8.285,-41.352 -24.847,-49.012 -8.567,-4.102 -19.082,-6.149 -31.551,-6.149 -33.691,0 -60.031,2.789 -79.02,8.399 v 30.801 c 20.473,-2.071 38.344,-3.09 53.61,-3.09 15.262,0 24.152,0.179 26.664,0.57 2.516,0.367 5.07,1.109 7.68,2.231 5.586,2.418 8.378,7.378 8.378,14.839 v 10.918 c 0,9.711 -3.07,15.68 -9.218,17.911 -2.418,0.941 -5.489,1.402 -9.215,1.402 h -31.27 c -35.179,0 -52.773,18.109 -52.773,54.316" /><path
         id="path22"
         style="fill:#ffffff;fill-opacity:1;fill-rule:nonzero;stroke:none"
         d="m 776.41,282.488 h 47.469 l -22.899,73.34 z m -67.012,-80.047 68.969,204.918 h 44.399 l 66.449,-204.918 h -41.602 l -14.515,45.348 h -67.02 l -14.793,-45.348 h -41.887" /><path
         id="path24"
         style="fill:#ffffff;fill-opacity:1;fill-rule:nonzero;stroke:none"
         d="m 910.43,382.172 c 7.441,12.297 17.773,20.43 30.992,24.348 7.262,2.05 15.449,3.07 24.57,3.07 26.621,0 50.348,-3.07 71.198,-9.238 V 369.57 c -2.79,0.371 -5.35,0.641 -7.67,0.84 -2.33,0.172 -5.08,0.41 -8.24,0.699 -3.17,0.27 -6.66,0.551 -10.47,0.84 -3.82,0.281 -7.59,0.512 -11.314,0.692 -8.75,0.558 -16.566,0.839 -23.449,0.839 -6.891,0 -12.242,-0.41 -16.059,-1.25 -3.816,-0.851 -7.492,-2.531 -11.027,-5.05 -3.535,-2.52 -6.145,-6.309 -7.816,-11.352 -3.727,-10.816 -5.586,-28.078 -5.586,-51.769 0,-23.707 2.742,-40.84 8.234,-51.368 5.488,-10.55 15.965,-15.82 31.41,-15.82 17.496,0 35.187,0.551 53.057,1.68 l 8.93,0.551 V 208.59 c -16.75,-5.238 -38.346,-7.828 -64.772,-7.828 -2.051,0 -4.191,0 -6.426,0 -24.945,0.168 -42.769,9.136 -53.469,26.867 -10.707,17.723 -16.054,44.082 -16.054,79.082 0,35 4.648,60.141 13.961,75.461" /><path
         id="path26"
         style="fill:#ffffff;fill-opacity:1;fill-rule:nonzero;stroke:none"
         d="m 1075.45,399.801 c 4.65,2.801 9.26,4.75 13.82,5.879 4.56,1.121 8.19,1.679 10.89,1.679 2.69,0 16.14,-0.328 40.34,-0.968 24.2,-0.672 42.26,-1.84 54.17,-3.52 V 370.41 h -80.69 c -6.89,0 -11.17,-1.68 -12.85,-5.039 -1.11,-2.621 -1.67,-6.18 -1.67,-10.652 v -31.91 l 82.65,-2.797 v -32.481 l -82.65,-2.519 v -31.91 c 0,-7.09 1.96,-11.391 5.86,-12.872 2.8,-1.128 6.61,-1.679 11.45,-1.679 h 77.9 V 206.34 c -9.31,-1.309 -32.3,-2.61 -68.96,-3.899 l -18.15,-0.839 c -1.5,0 -3.21,0 -5.17,0 -1.96,0 -4.51,0.128 -7.68,0.41 -3.16,0.289 -6.98,1.269 -11.44,2.949 -4.47,1.68 -8.38,3.898 -11.73,6.711 -7.45,6.719 -11.17,17.066 -11.17,31.078 v 122.051 c 0,16.98 5.03,28.66 15.08,35" /><path
         id="path28"
         style="fill:#ffffff;fill-opacity:1;fill-rule:nonzero;stroke:none"
         d="m 1297.98,382.172 c 7.44,12.297 17.77,20.43 30.99,24.348 7.26,2.05 15.45,3.07 24.57,3.07 26.62,0 50.35,-3.07 71.2,-9.238 V 369.57 c -2.79,0.371 -5.35,0.641 -7.67,0.84 -2.33,0.172 -5.08,0.41 -8.24,0.699 -3.17,0.27 -6.66,0.551 -10.48,0.84 -3.81,0.281 -7.58,0.512 -11.3,0.692 -8.75,0.558 -16.57,0.839 -23.46,0.839 -6.89,0 -12.24,-0.41 -16.05,-1.25 -3.82,-0.851 -7.5,-2.531 -11.03,-5.05 -3.54,-2.52 -6.14,-6.309 -7.82,-11.352 -3.72,-10.816 -5.58,-28.078 -5.58,-51.769 0,-23.707 2.74,-40.84 8.23,-51.368 5.49,-10.55 15.96,-15.82 31.41,-15.82 17.5,0 35.19,0.551 53.06,1.68 l 8.93,0.551 V 208.59 c -16.75,-5.238 -38.35,-7.828 -64.77,-7.828 -2.05,0 -4.19,0 -6.43,0 -24.95,0.168 -42.77,9.136 -53.47,26.867 -10.7,17.723 -16.05,44.082 -16.05,79.082 0,35 4.65,60.141 13.96,75.461" /><path
         id="path30"
         style="fill:#ffffff;fill-opacity:1;fill-rule:nonzero;stroke:none"
         d="m 1448.75,202.441 v 204.918 h 39.1 v -87.91 h 70.08 v 87.91 h 39.09 V 202.441 h -39.09 v 81.168 h -70.08 v -81.168 h -39.1" /><path
         id="path32"
         style="fill:#ffffff;fill-opacity:1;fill-rule:nonzero;stroke:none"
         d="m 1685.81,282.488 h 47.46 l -22.89,73.34 z m -67.02,-80.047 68.97,204.918 h 44.4 l 66.45,-204.918 h -41.6 l -14.52,45.348 h -67.02 l -14.79,-45.348 h -41.89" /><path
         id="path34"
         style="fill:#ffffff;fill-opacity:1;fill-rule:nonzero;stroke:none"
         d="m 1814.24,202.441 17.87,204.918 h 54.45 l 34.07,-139.98 33.78,139.98 h 54.16 l 18.99,-204.918 h -38.53 l -13.4,136.891 -32.95,-136.891 h -43.55 l -34.35,136.891 -12.01,-136.891 h -38.53" /><path
         id="path36"
         style="fill:#ffffff;fill-opacity:1;fill-rule:nonzero;stroke:none"
         d="m 2138.13,372.641 h -45.79 V 312.73 h 45.79 c 4.47,0 8.1,0.84 10.89,2.52 6.33,3.73 9.5,13.238 9.5,28.551 -0.19,19.219 -6.99,28.84 -20.39,28.84 z m -84.88,-170.2 v 204.918 h 87.95 c 20.29,0 35,-5.699 44.12,-17.089 8.38,-10.25 12.56,-25.668 12.56,-46.192 0,-11.937 -1.25,-22.207 -3.77,-30.777 -2.51,-8.602 -5.58,-15.18 -9.21,-19.75 -3.63,-4.571 -8.24,-8.071 -13.82,-10.492 -7.26,-3.36 -15.36,-5.039 -24.29,-5.039 -6.52,0 -17.03,0.839 -31.56,2.519 -14.51,1.68 -22.15,2.699 -22.89,3.07 v -81.168 h -39.09" /><path
         id="path38"
         style="fill:#ffffff;fill-opacity:1;fill-rule:nonzero;stroke:none"
         d="m 2258.47,282.488 h 47.47 l -22.9,73.34 z m -67.01,-80.047 68.97,204.918 h 44.39 l 66.45,-204.918 h -41.6 l -14.51,45.348 h -67.02 l -14.8,-45.348 h -41.88" /><path
         id="path40"
         style="fill:#ffffff;fill-opacity:1;fill-rule:nonzero;stroke:none"
         d="m 2385.23,243.449 c -2.79,9.61 -4.6,19.223 -5.44,28.832 -0.84,9.61 -1.26,20.801 -1.26,33.59 0,12.777 0.51,24.09 1.53,33.867 1.02,9.813 2.98,19.223 5.87,28.282 2.88,9.05 6.84,16.57 11.86,22.55 10.61,12.668 26.43,19.02 47.47,19.02 15.82,0 29.27,-0.61 40.35,-1.82 11.07,-1.211 23.77,-3.59 38.11,-7.129 v -30.532 c -0.18,0 -1.72,0.2 -4.6,0.571 -2.89,0.371 -6.71,0.8 -11.45,1.269 -4.75,0.449 -9.92,0.879 -15.5,1.25 -13.4,1.121 -25.97,1.68 -37.69,1.68 -14.9,0 -24.76,-5 -29.6,-14.981 -4.85,-9.976 -7.26,-28.32 -7.26,-55 0,-26.699 2.23,-44.507 6.7,-53.476 4.65,-9.141 14.15,-13.711 28.48,-13.711 5.58,0 11.31,1.07 17.17,3.219 5.86,2.129 10.28,4.242 13.27,6.289 l 4.46,3.363 v 36.68 h -28.48 v 24.898 c 10.99,4.5 27.18,6.719 48.59,6.719 5.95,0 12.28,-0.168 18.98,-0.551 V 202.441 h -27.92 l -10.61,13.707 c -6.52,-6.16 -13.5,-10.179 -20.94,-12.027 -20.29,-5.043 -37.42,-4.5 -51.38,1.68 -8.19,3.531 -14.66,8.301 -19.4,14.269 -4.75,5.961 -8.52,13.75 -11.31,23.379" /><path
         id="path42"
         style="fill:#ffffff;fill-opacity:1;fill-rule:nonzero;stroke:none"
         d="m 2555.28,202.441 v 204.918 h 39.65 l 80.97,-132.418 v 132.418 h 39.09 V 202.441 h -39.09 l -81.25,131.008 V 202.441 h -39.37" /><path
         id="path44"
         style="fill:#ffffff;fill-opacity:1;fill-rule:nonzero;stroke:none"
         d="m 2758.83,399.801 c 4.65,2.801 9.26,4.75 13.82,5.879 4.56,1.121 8.18,1.679 10.89,1.679 2.69,0 16.14,-0.328 40.34,-0.968 24.2,-0.672 42.26,-1.84 54.17,-3.52 V 370.41 h -80.69 c -6.89,0 -11.17,-1.68 -12.85,-5.039 -1.11,-2.621 -1.67,-6.18 -1.67,-10.652 v -31.91 l 82.65,-2.797 v -32.481 l -82.65,-2.519 v -31.91 c 0,-7.09 1.95,-11.391 5.86,-12.872 2.79,-1.128 6.61,-1.679 11.45,-1.679 h 77.9 V 206.34 c -9.31,-1.309 -32.3,-2.61 -68.96,-3.899 l -18.15,-0.839 c -1.5,0 -3.22,0 -5.17,0 -1.96,0 -4.52,0.128 -7.68,0.41 -3.16,0.289 -6.98,1.269 -11.44,2.949 -4.47,1.68 -8.38,3.898 -11.73,6.711 -7.45,6.719 -11.17,17.066 -11.17,31.078 v 122.051 c 0,16.98 5.02,28.66 15.08,35" /><path
         id="path46"
         style="fill:#ffffff;fill-opacity:1;fill-rule:nonzero;stroke:none"
         d="m 2891.45,267.102 h 87.6719 v 33.0273 H 2891.45 Z" /><path
         id="path48"
         style="fill:#ffffff;fill-opacity:1;fill-rule:nonzero;stroke:none"
         d="m 3061.21,282.488 h 47.46 l -22.89,73.34 z m -67.02,-80.047 68.97,204.918 h 44.4 l 66.45,-204.918 h -41.6 l -14.52,45.348 h -67.02 l -14.79,-45.348 h -41.89" /><path
         id="path50"
         style="fill:#ffffff;fill-opacity:1;fill-rule:nonzero;stroke:none"
         d="m 3231.53,314.68 h 46.35 c 7.25,0 12.42,1.879 15.49,5.609 3.07,3.731 4.6,11.289 4.6,22.672 0,11.391 -1.67,19.18 -5.02,23.379 -3.35,4.199 -8.37,6.301 -15.07,6.301 h -46.35 z m 49.98,92.679 c 17.86,0 31.17,-4.589 39.92,-13.73 10.62,-10.82 15.92,-27.52 15.92,-50.098 0,-26.332 -5.5,-43.769 -16.48,-52.359 -3.53,-2.801 -6.24,-4.57 -8.09,-5.32 -1.87,-0.743 -4.56,-1.68 -8.1,-2.793 l 38.81,-80.618 h -44.12 l -33.78,77.539 -34.34,3.918 v -81.457 h -39.1 v 204.918 h 89.36" /><path
         id="path52"
         style="fill:#ffffff;fill-opacity:1;fill-rule:nonzero;stroke:none"
         d="m 3483.1,304.332 c 0,33.969 -5.4,54.957 -16.2,62.988 -4.84,3.532 -11.07,5.321 -18.7,5.321 h -44.68 V 237.422 h 44.68 c 23.26,0 34.9,22.297 34.9,66.91 z M 3364.43,202.441 v 204.918 h 86.83 c 47.29,0 70.92,-34.429 70.92,-103.3 0,-42.559 -10.14,-72.047 -30.43,-88.477 -10.8,-8.773 -24.29,-13.141 -40.49,-13.141 h -86.83" /><path
         id="path54"
         style="fill:#ffffff;fill-opacity:1;fill-rule:nonzero;stroke:none"
         d="m 3557.92,399.801 c 4.65,2.801 9.25,4.75 13.82,5.879 4.55,1.121 8.19,1.679 10.89,1.679 2.7,0 16.14,-0.328 40.34,-0.968 24.2,-0.672 42.26,-1.84 54.17,-3.52 V 370.41 h -80.69 c -6.88,0 -11.17,-1.68 -12.84,-5.039 -1.12,-2.621 -1.68,-6.18 -1.68,-10.652 v -31.91 l 82.65,-2.797 v -32.481 l -82.65,-2.519 v -31.91 c 0,-7.09 1.95,-11.391 5.87,-12.872 2.79,-1.128 6.6,-1.679 11.44,-1.679 h 77.9 V 206.34 c -9.3,-1.309 -32.29,-2.61 -68.96,-3.899 l -18.16,-0.839 c -1.48,0 -3.2,0 -5.16,0 -1.95,0 -4.51,0.128 -7.68,0.41 -3.16,0.289 -6.98,1.269 -11.44,2.949 -4.48,1.68 -8.38,3.898 -11.73,6.711 -7.45,6.719 -11.17,17.066 -11.17,31.078 v 122.051 c 0,16.98 5.03,28.66 15.08,35" /><path
         id="path56"
         style="fill:#ffffff;fill-opacity:1;fill-rule:nonzero;stroke:none"
         d="m 3701.99,202.441 v 204.918 h 39.65 l 80.97,-132.418 v 132.418 h 39.09 V 202.441 h -39.09 l -81.25,131.008 V 202.441 h -39.37" /><path
         id="path58"
         style="fill:#ffffff;fill-opacity:1;fill-rule:nonzero;stroke:none"
         d="m 3891.29,202.441 v 204.918 h 39.65 l 80.98,-132.418 v 132.418 h 39.09 V 202.441 h -39.09 l -81.25,131.008 V 202.441 h -39.38" /><path
         id="path60"
         style="fill:#ffffff;fill-opacity:1;fill-rule:nonzero;stroke:none"
         d="m 4094.84,399.801 c 4.66,2.801 9.26,4.75 13.83,5.879 4.55,1.121 8.18,1.679 10.89,1.679 2.69,0 16.14,-0.328 40.34,-0.968 24.2,-0.672 42.25,-1.84 54.17,-3.52 V 370.41 h -80.7 c -6.88,0 -11.17,-1.68 -12.84,-5.039 -1.12,-2.621 -1.68,-6.18 -1.68,-10.652 v -31.91 l 82.65,-2.797 v -32.481 l -82.65,-2.519 v -31.91 c 0,-7.09 1.96,-11.391 5.87,-12.872 2.79,-1.128 6.6,-1.679 11.45,-1.679 h 77.9 V 206.34 c -9.31,-1.309 -32.3,-2.61 -68.97,-3.899 l -18.15,-0.839 c -1.49,0 -3.2,0 -5.17,0 -1.95,0 -4.51,0.128 -7.67,0.41 -3.17,0.289 -6.99,1.269 -11.45,2.949 -4.47,1.68 -8.38,3.898 -11.73,6.711 -7.45,6.719 -11.17,17.066 -11.17,31.078 v 122.051 c 0,16.98 5.03,28.66 15.08,35" /><path
         id="path62"
         style="fill:#ffffff;fill-opacity:1;fill-rule:nonzero;stroke:none"
         d="m 4308.72,242.18 v 165.179 h 39.09 V 253.102 c 0,-7.09 1.95,-11.391 5.86,-12.872 2.79,-1.128 6.61,-1.679 11.45,-1.679 h 70.08 v -36.11 h -84.04 c -28.3,0 -42.44,13.239 -42.44,39.739" /><path
         id="path64"
         style="fill:#ffffff;fill-opacity:1;fill-rule:nonzero;stroke:none"
         d="m 4489.94,345.621 c -0.94,-4.941 -1.68,-10.883 -2.24,-17.769 -0.56,-6.922 -0.84,-15.59 -0.84,-26.043 0,-10.45 0.37,-19.348 1.12,-26.739 0.75,-7.359 2,-13.672 3.77,-18.879 1.77,-5.242 4.42,-9.16 7.96,-11.761 6.32,-4.668 16.38,-7.008 30.16,-7.008 13.03,0 22.79,2.418 29.31,7.277 9.12,6.903 13.69,26.512 13.69,58.789 0,21.84 -1.18,36.293 -3.5,43.403 -2.32,7.089 -4.46,12.129 -6.42,15.121 -1.95,2.968 -4.7,5.308 -8.24,6.988 -5.77,2.422 -12.56,3.641 -20.38,3.641 -7.82,0 -13.26,-0.141 -16.34,-0.411 -3.06,-0.281 -6.32,-0.91 -9.76,-1.82 -3.45,-0.941 -6.15,-2.39 -8.1,-4.34 -1.96,-1.968 -3.91,-4.629 -5.87,-7.988 -1.95,-3.363 -3.4,-7.523 -4.32,-12.461 z m -37.84,-92.519 c -1.39,6.519 -2.47,14 -3.21,22.398 -0.74,8.398 -1.11,18.52 -1.11,30.371 0,11.859 0.69,23.051 2.09,33.598 1.39,10.543 3.3,19.492 5.72,26.871 2.42,7.371 5.67,13.68 9.78,18.89 4.09,5.239 8.23,9.34 12.42,12.329 4.19,2.992 9.35,5.312 15.5,6.992 9.67,2.808 19.87,4.199 30.57,4.199 10.71,0 18.52,-0.18 23.46,-0.551 4.92,-0.39 10.14,-1.168 15.63,-2.379 5.49,-1.211 10.19,-2.949 14.11,-5.179 3.9,-2.243 7.86,-5.09 11.86,-8.532 4,-3.461 7.31,-7.847 9.91,-13.16 2.6,-5.32 4.93,-11.461 6.99,-18.347 4.09,-13.813 6.14,-29.961 6.14,-48.442 0,-18.469 -0.71,-32.691 -2.1,-42.672 -1.4,-10 -3.21,-18.578 -5.44,-25.758 -2.24,-7.191 -5.26,-13.339 -9.08,-18.48 -3.82,-5.141 -7.82,-9.238 -12.01,-12.328 -4.18,-3.063 -9.26,-5.442 -15.21,-7.121 -13.78,-4.11 -31.93,-5.41 -54.45,-3.93 -11.55,0.57 -19.92,1.949 -25.13,4.199 -5.21,2.25 -9.73,4.629 -13.54,7.149 -3.82,2.519 -7.03,5.582 -9.63,9.242 -2.61,3.629 -5.13,8 -7.54,13.141 -2.42,5.136 -4.33,10.957 -5.73,17.5" /><path
         id="path66"
         style="fill:#ffffff;fill-opacity:1;fill-rule:nonzero;stroke:none"
         d="m 4674.78,314.68 h 46.35 c 7.25,0 12.42,1.879 15.5,5.609 3.06,3.731 4.6,11.289 4.6,22.672 0,11.391 -1.67,19.18 -5.02,23.379 -3.35,4.199 -8.38,6.301 -15.08,6.301 h -46.35 z m 49.98,92.679 c 17.86,0 31.17,-4.589 39.92,-13.73 10.62,-10.82 15.92,-27.52 15.92,-50.098 0,-26.332 -5.5,-43.769 -16.47,-52.359 -3.54,-2.801 -6.24,-4.57 -8.1,-5.32 -1.86,-0.743 -4.56,-1.68 -8.1,-2.793 l 38.81,-80.618 h -44.12 l -33.78,77.539 -34.34,3.918 v -81.457 h -39.09 v 204.918 h 89.35" /><path
         id="path68"
         style="fill:#ffffff;fill-opacity:1;fill-rule:nonzero;stroke:none"
         d="m 4844.26,314.68 h 46.35 c 7.26,0 12.42,1.879 15.5,5.609 3.06,3.731 4.6,11.289 4.6,22.672 0,11.391 -1.67,19.18 -5.02,23.379 -3.35,4.199 -8.38,6.301 -15.08,6.301 h -46.35 z m 49.98,92.679 c 17.86,0 31.18,-4.589 39.93,-13.73 10.61,-10.82 15.91,-27.52 15.91,-50.098 0,-26.332 -5.5,-43.769 -16.47,-52.359 -3.54,-2.801 -6.24,-4.57 -8.1,-5.32 -1.86,-0.743 -4.56,-1.68 -8.09,-2.793 l 38.81,-80.618 h -44.13 l -33.77,77.539 -34.35,3.918 v -81.457 h -39.09 v 204.918 h 89.35" /><path
         id="path70"
         style="fill:#ffffff;fill-opacity:1;fill-rule:nonzero;stroke:none"
         d="m 5036.64,282.488 h 47.47 l -22.9,73.34 z m -67.02,-80.047 68.97,204.918 h 44.39 l 66.46,-204.918 h -41.6 l -14.52,45.348 h -67.02 l -14.79,-45.348 h -41.89" /><path
         id="path72"
         style="fill:#ffffff;fill-opacity:1;fill-rule:nonzero;stroke:none"
         d="m 5170.38,202.441 h 39.0898 V 407.359 H 5170.38 Z" /><path
         id="path74"
         style="fill:#ffffff;fill-opacity:1;fill-rule:nonzero;stroke:none"
         d="m 5238.78,202.441 v 204.918 h 39.65 l 80.98,-132.418 v 132.418 h 39.09 V 202.441 h -39.09 l -81.25,131.008 V 202.441 h -39.38" /><path
         id="path76"
         style="fill:#ffffff;fill-opacity:1;fill-rule:nonzero;stroke:none"
         d="m 5442.33,399.801 c 4.66,2.801 9.26,4.75 13.83,5.879 4.55,1.121 8.18,1.679 10.89,1.679 2.69,0 16.14,-0.328 40.34,-0.968 24.2,-0.672 42.25,-1.84 54.17,-3.52 V 370.41 h -80.7 c -6.88,0 -11.17,-1.68 -12.84,-5.039 -1.12,-2.621 -1.68,-6.18 -1.68,-10.652 v -31.91 l 82.65,-2.797 v -32.481 l -82.65,-2.519 v -31.91 c 0,-7.09 1.96,-11.391 5.87,-12.872 2.79,-1.128 6.6,-1.679 11.45,-1.679 h 77.9 V 206.34 c -9.31,-1.309 -32.3,-2.61 -68.97,-3.899 l -18.15,-0.839 c -1.49,0 -3.2,0 -5.17,0 -1.95,0 -4.51,0.128 -7.67,0.41 -3.17,0.289 -6.99,1.269 -11.45,2.949 -4.47,1.68 -8.38,3.898 -11.73,6.711 -7.45,6.719 -11.17,17.066 -11.17,31.078 v 122.051 c 0,16.98 5.03,28.66 15.08,35" /><path
         id="path78"
         style="fill:#ffffff;fill-opacity:1;fill-rule:nonzero;stroke:none"
         d="m 206.898,1130.43 v 2.5 c 0,248.69 193.75,452.39 458.75,452.39 157.5,0 252.5,-42.49 343.752,-119.97 L 888.148,1319.14 c -67.5,56.23 -127.5,88.72 -228.75,88.72 -140,0 -251.25,-123.72 -251.25,-272.43 v -2.5 c 0,-159.961 110,-277.434 265,-277.434 70,0 132.5,17.496 181.25,52.488 v 124.966 h -193.75 v 166.21 H 1040.65 V 819.258 C 950.648,743.031 826.898,680.539 666.898,680.539 c -272.5,0 -460,191.203 -460,449.891" /><path
         id="path80"
         style="fill:#ffffff;fill-opacity:1;fill-rule:nonzero;stroke:none"
         d="m 1143.14,1365.38 h 190 v -134.97 c 38.75,92.48 101.25,152.46 213.75,147.46 v -198.7 h -10 c -126.25,0 -203.75,-76.23 -203.75,-236.193 V 695.539 h -190 v 669.841" /><path
         id="path82"
         style="fill:#ffffff;fill-opacity:1;fill-rule:nonzero;stroke:none"
         d="m 1967.96,931.727 v 33.746 c -32.5,14.996 -75,24.992 -121.25,24.992 -81.25,0 -131.25,-32.492 -131.25,-92.477 v -2.5 c 0,-51.234 42.5,-81.23 103.75,-81.23 88.75,0 148.75,48.738 148.75,117.469 z m -436.25,-43.739 v 2.5 c 0,146.212 111.25,213.702 270,213.702 67.5,0 116.25,-11.25 163.75,-27.49 v 11.24 c 0,78.73 -48.75,122.47 -143.75,122.47 -72.5,0 -123.75,-13.75 -185,-36.24 l -47.5,144.97 c 73.75,32.49 146.25,53.73 260,53.73 103.75,0 178.75,-27.49 226.25,-74.98 50,-49.99 72.5,-123.72 72.5,-213.69 V 695.539 h -183.75 v 72.477 c -46.25,-51.235 -110,-84.977 -202.5,-84.977 -126.25,0 -230,72.481 -230,204.949" /><path
         id="path84"
         style="fill:#ffffff;fill-opacity:1;fill-rule:nonzero;stroke:none"
         d="m 2249.2,1365.38 h 190 v -94.99 c 43.75,56.24 100,107.48 196.25,107.48 143.75,0 227.5,-94.98 227.5,-248.69 V 695.539 h -190 V 1069.2 c 0,89.98 -42.5,136.21 -115,136.21 -72.5,0 -118.75,-46.23 -118.75,-136.21 V 695.539 h -190 v 669.841" /><path
         id="path86"
         style="fill:#ffffff;fill-opacity:1;fill-rule:nonzero;stroke:none"
         d="m 3451.68,1029.2 v 2.5 c 0,111.23 -73.75,184.96 -162.5,184.96 -88.75,0 -163.75,-72.48 -163.75,-184.96 v -2.5 c 0,-111.216 75,-184.946 163.75,-184.946 88.75,0 162.5,73.73 162.5,184.946 z m -516.25,0 v 2.5 c 0,223.7 146.25,346.17 305,346.17 101.25,0 163.75,-46.24 208.75,-99.98 v 329.92 h 190 V 695.539 h -190 v 96.223 c -46.25,-62.481 -110,-108.723 -208.75,-108.723 -156.25,0 -305,122.473 -305,346.161" /><path
         id="path88"
         style="fill:#ffffff;fill-opacity:1;fill-rule:nonzero;stroke:none"
         d="m 4566.67,792.922 81.25,124.976 c 72.5,-52.476 148.75,-79.976 211.25,-79.976 55,0 80,20 80,49.988 v 2.5 c 0,41.238 -65,54.988 -138.75,77.488 -93.75,27.485 -200,71.232 -200,201.212 v 2.5 c 0,136.21 110,212.45 245,212.45 85,0 177.5,-28.74 250,-77.49 l -72.5,-131.21 c -66.25,38.73 -132.5,62.48 -181.25,62.48 -46.25,0 -70,-20 -70,-46.24 v -2.5 c 0,-37.49 63.75,-54.99 136.25,-79.99 93.75,-31.24 202.5,-76.23 202.5,-198.712 v -2.5 c 0,-148.71 -111.25,-216.207 -256.25,-216.207 -93.75,0 -198.75,31.25 -287.5,101.231" /><path
         id="path90"
         style="fill:#ffffff;fill-opacity:1;fill-rule:nonzero;stroke:none"
         d="m 5202.91,894.148 v 317.442 h -80 v 162.48 h 80 v 171.21 h 190 v -171.21 h 157.5 v -162.48 h -157.5 V 925.398 c 0,-43.738 18.75,-64.976 61.25,-64.976 35,0 66.25,8.738 93.75,23.738 V 731.691 c -40,-23.75 -86.25,-38.75 -150,-38.75 -116.25,0 -195,46.25 -195,201.207" /><path
         id="path92"
         style="fill:#ffffff;fill-opacity:1;fill-rule:nonzero;stroke:none"
         d="M 4135.52,704.191 H 4477.5 V 875.41 h -341.98 z" /><path
         id="path94"
         style="fill:#ffffff;fill-opacity:1;fill-rule:nonzero;stroke:none"
         d="m 4141.03,1058.68 h 341.969 v 171.211 H 4141.03 Z" /><path
         id="path96"
         style="fill:#ffffff;fill-opacity:1;fill-rule:nonzero;stroke:none"
         d="m 4141.03,1407.81 h 341.969 v 171.219 H 4141.03 Z" /><path
         id="path98"
         style="fill:#ffffff;fill-opacity:1;fill-rule:nonzero;stroke:none"
         d="m 3879.68,704.191 h 192.582 v 874.84 H 3879.68 Z" /><path
         id="path100"
         style="fill:#7bd4f5;fill-opacity:1;fill-rule:nonzero;stroke:none"
         d="m 202.34,514.891 h 1787.09 v 70.8594 H 202.34 Z" /><path
         id="path102"
         style="fill:#99d420;fill-opacity:1;fill-rule:nonzero;stroke:none"
         d="m 1989.46,514.891 h 1787.12 v 70.8594 H 1989.46 Z" /><path
         id="path104"
         style="fill:#fcd405;fill-opacity:1;fill-rule:nonzero;stroke:none"
         d="m 3776.58,514.891 h 1787.09 v 70.8594 H 3776.58 Z" /></g></g></svg>