<?xml version="1.0" encoding="UTF-8" standalone="no"?>
<!-- Created with Inkscape (http://www.inkscape.org/) -->

<svg
   xmlns:dc="http://purl.org/dc/elements/1.1/"
   xmlns:cc="http://creativecommons.org/ns#"
   xmlns:rdf="http://www.w3.org/1999/02/22-rdf-syntax-ns#"
   xmlns:svg="http://www.w3.org/2000/svg"
   xmlns="http://www.w3.org/2000/svg"
   xmlns:sodipodi="http://sodipodi.sourceforge.net/DTD/sodipodi-0.dtd"
   xmlns:inkscape="http://www.inkscape.org/namespaces/inkscape"
   width="115.44436"
   height="117.89922"
   id="svg2792"
   sodipodi:version="0.32"
   inkscape:version="0.91 r13725"
   version="1.0"
   sodipodi:docname="logo_CA.svg"
   inkscape:output_extension="org.inkscape.output.svg.inkscape">
  <defs
     id="defs2794">
    <inkscape:perspective
       sodipodi:type="inkscape:persp3d"
       inkscape:vp_x="0 : 526.18109 : 1"
       inkscape:vp_y="0 : 1000 : 0"
       inkscape:vp_z="744.09448 : 526.18109 : 1"
       inkscape:persp3d-origin="372.04724 : 350.78739 : 1"
       id="perspective2800" />
  </defs>
  <sodipodi:namedview
     id="base"
     pagecolor="#ffffff"
     bordercolor="#666666"
     borderopacity="1.0"
     inkscape:pageopacity="0.0"
     inkscape:pageshadow="2"
     inkscape:zoom="3.3576159"
     inkscape:cx="-14.248349"
     inkscape:cy="60.007814"
     inkscape:document-units="px"
     inkscape:current-layer="layer1"
     showgrid="false"
     inkscape:window-width="1926"
     inkscape:window-height="1159"
     inkscape:window-x="0"
     inkscape:window-y="1"
     fit-margin-top="0"
     fit-margin-left="0"
     fit-margin-right="0"
     fit-margin-bottom="0"
     inkscape:window-maximized="0" />
  <metadata
     id="metadata2797">
    <rdf:RDF>
      <cc:Work
         rdf:about="">
        <dc:format>image/svg+xml</dc:format>
        <dc:type
           rdf:resource="http://purl.org/dc/dcmitype/StillImage" />
        <dc:title></dc:title>
      </cc:Work>
    </rdf:RDF>
  </metadata>
  <g
     inkscape:label="Calque 1"
     inkscape:groupmode="layer"
     id="layer1"
     transform="translate(-228.52687,-363.30234)">
    <path
       d="m 308.27297,380.19692 c -2.56104,0 -4.63868,-2.20337 -4.63868,-4.92065 0,-2.71973 2.07764,-4.91822 4.63868,-4.91822 2.56591,0 4.64477,2.19849 4.64477,4.91822 0,2.71728 -2.07886,4.92065 -4.64477,4.92065"
       style="fill:#ffffff;fill-opacity:1;fill-rule:nonzero;stroke:none"
       id="path355"
       inkscape:connector-curvature="0" />
    <path
       d="m 273.02272,464.08485 c 0.46265,-0.1709 0.6897,-0.46386 0.6897,-0.88135 0,-0.48338 -0.3125,-0.93383 -1.19995,-0.93383 l -0.93018,0 0,3.62182 0.28076,0 0,-1.73827 0.49073,0 c 0.43335,0 0.57372,0.0574 1.0083,0.74341 l 0.6311,0.99486 0.33081,0 -0.81787,-1.2561 c -0.16968,-0.25635 -0.31494,-0.4602 -0.4834,-0.55054 m -1.15967,-0.16601 0,-1.41724 0.59082,0 c 0.66406,0 0.95581,0.29664 0.95581,0.70802 0,0.43212 -0.31005,0.70922 -0.94483,0.70922 l -0.6018,0 z"
       style="fill:#1d191a;fill-opacity:1;fill-rule:nonzero;stroke:none"
       id="path359"
       inkscape:connector-curvature="0" />
    <path
       d="m 277.19874,465.65468 0,-1.46973 1.64918,0 0,-0.2356 -1.64918,0 0,-1.44652 1.6919,0 0,-0.23438 -1.9751,0 0,3.62304 2.01905,0 0,-0.23681 -1.73585,0 z"
       style="fill:#1d191a;fill-opacity:1;fill-rule:nonzero;stroke:none"
       id="path361"
       inkscape:connector-curvature="0" />
    <path
       d="m 277.72243,461.96449 0.177,0 0.80444,-0.82764 -0.4309,0 -0.55054,0.82764 z"
       style="fill:#1d191a;fill-opacity:1;fill-rule:nonzero;stroke:none"
       id="path363"
       inkscape:connector-curvature="0" />
    <path
       d="m 281.6421,464.0702 c 0,1.07057 0.84595,1.86647 1.97022,1.86647 0.4187,0 0.85693,-0.1001 1.2854,-0.31007 l 0,-1.38183 -1.04614,0 0,0.23193 0.76294,0 0,0.97657 c -0.28565,0.14648 -0.57007,0.22461 -0.99243,0.22461 -1.14014,0 -1.67847,-0.78858 -1.67847,-1.60035 0,-0.91796 0.68115,-1.59668 1.60035,-1.59668 0.43456,0 0.8435,0.11597 1.2854,0.36622 l 0,-0.31862 c -0.50904,-0.22826 -0.83497,-0.30883 -1.24147,-0.30883 -1.12182,0 -1.9458,0.78491 -1.9458,1.85058"
       style="fill:#1d191a;fill-opacity:1;fill-rule:nonzero;stroke:none"
       id="path365"
       inkscape:connector-curvature="0" />
    <path
       d="m 287.89333,465.89149 0.2832,0 0,-3.62304 -0.2832,0 0,3.62304 z"
       style="fill:#1d191a;fill-opacity:1;fill-rule:nonzero;stroke:none"
       id="path367"
       inkscape:connector-curvature="0" />
    <path
       d="m 291.13918,464.07753 c 0,1.04249 0.83984,1.85914 1.9104,1.85914 1.07787,0 1.9226,-0.81665 1.9226,-1.85914 0,-1.04004 -0.84473,-1.85913 -1.9226,-1.85913 -1.07056,0 -1.9104,0.81909 -1.9104,1.85913 m 3.53027,0 c 0,0.90576 -0.70068,1.60035 -1.60888,1.60035 -0.90699,0 -1.61988,-0.69459 -1.61988,-1.60035 0,-0.9021 0.71289,-1.59668 1.61988,-1.59668 0.9082,0 1.60888,0.69458 1.60888,1.59668"
       style="fill:#1d191a;fill-opacity:1;fill-rule:nonzero;stroke:none"
       id="path369"
       inkscape:connector-curvature="0" />
    <path
       d="m 298.21925,465.89149 0,-3.1665 2.75024,3.1665 0.23438,0 0,-3.62182 -0.28198,0 0,3.16528 -2.74536,-3.16528 -0.24048,0 0,3.62182 0.2832,0 z"
       style="fill:#1d191a;fill-opacity:1;fill-rule:nonzero;stroke:none"
       id="path371"
       inkscape:connector-curvature="0" />
    <path
       d="m 238.99684,481.20155 94.80346,0 0,-0.3894 -94.80346,0 0,0.3894 z"
       style="fill:#1d191a;fill-opacity:1;fill-rule:nonzero;stroke:none"
       id="path373"
       inkscape:connector-curvature="0" />
    <path
       d="m 236.79103,478.20839 c 0.21362,-0.26611 0.58106,-1.20117 0.67871,-1.93847 l -0.36744,-0.0562 c -0.32592,0.8374 -1.13158,2.02392 -2.95776,2.02392 -2.32055,0 -4.20287,-1.64185 -4.20287,-4.61304 0,-2.92847 1.83837,-4.30053 4.00512,-4.30053 2.05079,0 2.68676,1.10107 2.90161,2.06176 l 0.38087,-0.0256 c -0.11353,-0.86181 -0.18433,-1.75536 -0.19898,-2.08007 -0.12695,0.0147 -0.22705,-0.0159 -0.39674,-0.0562 -0.66283,-0.1831 -1.7395,-0.33935 -2.50487,-0.33935 -1.47095,0 -2.78443,0.3955 -3.82203,1.19995 -1.073,0.8374 -1.77978,2.18138 -1.77978,3.75243 0,1.82373 0.87647,3.11158 2.00806,3.89283 1.03271,0.69214 2.25097,0.94726 3.52295,0.94726 0.90576,0 1.92626,-0.2124 2.23755,-0.32471 0.15746,-0.0586 0.3247,-0.11474 0.4956,-0.14404"
       style="fill:#1d191a;fill-opacity:1;fill-rule:nonzero;stroke:none"
       id="path375"
       inkscape:connector-curvature="0" />
    <path
       d="m 244.67922,478.24989 -0.21852,-0.0268 c -0.52611,-0.0647 -0.54442,-0.18066 -0.54442,-1.13891 l 0,-3.27026 c 0,-0.9546 0.0183,-1.09132 0.54442,-1.14503 l 0.19288,-0.0195 -0.0183,-0.2246 c -0.40894,0.0171 -0.71899,0.0256 -1.073,0.0256 -0.37232,0 -0.68237,-0.009 -1.09985,-0.0256 l -0.0208,0.2246 0.17456,0.0195 c 0.53589,0.0537 0.55297,0.19043 0.55297,1.14503 l 0,1.04491 c 0,0.28321 -0.0171,0.29297 -0.45287,0.29297 l -2.59889,0 c -0.43701,0 -0.45654,-0.01 -0.45654,-0.29297 l 0,-1.04491 c 0,-0.9546 0.0195,-1.09132 0.54688,-1.14503 l 0.17212,-0.0195 -0.0159,-0.2246 c -0.39306,0.0171 -0.70313,0.0256 -1.05713,0.0256 -0.39062,0 -0.69825,-0.0195 -1.14625,-0.0256 l -0.0171,0.2246 0.23682,0.0195 c 0.47241,0.0354 0.53589,0.19043 0.53589,1.14503 l 0,3.27026 c 0,0.95825 -0.0195,1.04857 -0.52491,1.13891 l -0.15503,0.0268 0.0171,0.22705 c 0.35522,-0.01 0.66285,-0.0269 1.05347,-0.0269 0.354,0 0.66407,0.01 1.15478,0.0269 l 0.0183,-0.22705 -0.26366,-0.0268 c -0.51026,-0.0537 -0.55543,-0.18066 -0.55543,-1.13891 l 0,-1.27808 c 0,-0.27343 0.0195,-0.29297 0.45654,-0.29297 l 2.59889,0 c 0.43579,0 0.45287,0.0195 0.45287,0.29297 l 0,1.27808 c -0.0171,0.95825 0,1.06567 -0.55297,1.13891 l -0.17456,0.0268 0.0208,0.22705 c 0.40161,-0.0171 0.72753,-0.0269 1.09985,-0.0269 0.35401,0 0.66406,0.01 1.09986,0.0269 l 0.0171,-0.22705"
       style="fill:#1d191a;fill-opacity:1;fill-rule:nonzero;stroke:none"
       id="path377"
       inkscape:connector-curvature="0" />
    <path
       d="m 247.60647,472.64809 c 0.0268,0.14649 -0.0269,0.32104 -0.15504,0.64819 l -0.92651,2.45606 c -0.37964,1.01806 -0.6372,1.60644 -0.79957,2.02636 -0.12695,0.32472 -0.32836,0.42725 -0.54565,0.44312 l -0.29907,0.0281 0.0171,0.22584 c 0.24658,-0.009 0.57373,-0.0256 0.87281,-0.0256 0.42846,0.01 0.708,0.01 0.94604,0.0256 l 0.0171,-0.22584 -0.29906,-0.0281 c -0.21851,-0.0159 -0.2649,-0.072 -0.2649,-0.17944 0,-0.1001 0.0647,-0.34546 0.19898,-0.7544 l 0.31982,-0.95459 c 0.0647,-0.19042 0.11841,-0.21972 0.34546,-0.21972 l 1.37207,0 c 0.27222,0 0.31006,0.0293 0.37232,0.22582 l 0.40039,1.23901 c 0.0757,0.21608 0.11962,0.37964 0.11962,0.47974 0,0.0916 -0.12817,0.14771 -0.31982,0.16358 l -0.26245,0.0281 0.0183,0.22584 c 0.26489,-0.009 0.60913,-0.0256 1.04614,-0.0256 0.40894,0 0.72754,0.01 1.09986,0.0256 l 0,-0.22584 -0.24781,-0.0281 c -0.3894,-0.0427 -0.50903,-0.17944 -0.77148,-0.96069 l -1.24633,-3.65479 c -0.13429,-0.40039 -0.28077,-0.82031 -0.39795,-1.21949 l -0.13795,-0.0818 c -0.10009,0.11963 -0.2539,0.27955 -0.4724,0.34302 m 0.18187,0.76783 c 0.0574,0.1062 0.13673,0.354 0.20753,0.57372 l 0.49316,1.47949 c 0.0806,0.24292 0.0635,0.28321 -0.20141,0.28321 l -1.11573,0 c -0.25635,0 -0.26367,-0.0122 -0.19042,-0.21972 l 0.57128,-1.58327 c 0.10009,-0.27221 0.19165,-0.4895 0.2185,-0.53343 l 0.0171,0 z"
       style="fill:#1d191a;fill-opacity:1;fill-rule:nonzero;stroke:none"
       id="path379"
       inkscape:connector-curvature="0" />
    <path
       d="m 252.96047,474.9308 0.81665,1.75659 c 0.20996,0.44313 0.64697,1.33545 0.80322,1.81885 l 0.0806,0.033 0.0903,-0.033 c 0.16356,-0.41992 0.57373,-1.27319 0.98388,-2.07519 l 0.80567,-1.59058 c 0.18554,-0.35157 0.52978,-1.08032 0.59326,-1.18042 l 0.0183,0 0.0256,3.78907 c 0,0.5835 0,0.72997 -0.44434,0.7727 l -0.26245,0.0281 0.0159,0.22584 c 0.37354,-0.0159 0.78369,-0.0256 1.10107,-0.0256 0.32715,0 0.70068,0.01 1.073,0.0256 l 0.0159,-0.22584 -0.28809,-0.0281 c -0.42846,-0.0427 -0.4187,-0.27954 -0.44555,-0.7373 -0.0732,-1.30615 -0.0818,-2.9895 -0.10133,-3.95264 -0.009,-0.63599 0.0647,-0.79956 0.63722,-0.86304 l 0.19042,-0.0207 -0.009,-0.22339 c -0.28198,0.0159 -0.58228,0.0269 -0.81055,0.0269 -0.18188,0 -0.37231,0 -0.68115,-0.0269 -0.0171,0.41748 -0.27222,0.91675 -0.6897,1.74317 l -0.8545,1.73827 c -0.22948,0.46388 -0.4541,0.93506 -0.7019,1.36231 l -0.0159,0 c -0.21851,-0.40161 -0.41749,-0.8191 -0.62866,-1.24633 l -1.03516,-2.09839 c -0.2832,-0.58228 -0.51025,-1.14503 -0.47242,-1.49903 -0.30151,0.0269 -0.54687,0.0269 -0.75683,0.0269 -0.22583,0 -0.44312,-0.011 -0.71533,-0.0269 l -0.0379,0.22339 0.14649,0.0207 c 0.55297,0.0928 0.62744,0.20753 0.60669,0.78125 -0.0171,0.49926 -0.0537,1.27319 -0.1001,2.02881 -0.0537,0.89844 -0.10009,1.39893 -0.1538,1.99952 -0.0537,0.63597 -0.18067,0.70067 -0.56153,0.7434 l -0.20141,0.0281 0.0183,0.22584 c 0.30762,-0.0159 0.63721,-0.0256 0.92896,-0.0256 0.34424,0 0.69703,0.01 1.00708,0.0256 l 0.009,-0.22584 -0.34424,-0.0281 c -0.35523,-0.0256 -0.41016,-0.17212 -0.41016,-0.84473 0,-0.77149 0.0378,-1.58081 0.0647,-2.13622 0.0268,-0.52613 0.0537,-1.05348 0.0903,-1.61744 l 0.0183,0 c 0.2002,0.41749 0.39185,0.8899 0.58107,1.30737"
       style="fill:#1d191a;fill-opacity:1;fill-rule:nonzero;stroke:none"
       id="path381"
       inkscape:connector-curvature="0" />
    <path
       d="m 262.89577,474.15932 c 0,0.79101 -0.35279,1.34521 -1.33423,1.5271 l 0.009,0.18188 c 0.3711,0 0.85327,-0.083 1.25366,-0.27221 0.39063,-0.19165 0.90943,-0.61157 0.90943,-1.44654 0,-0.62743 -0.30884,-1.09985 -0.72632,-1.36352 -0.42847,-0.26123 -0.99121,-0.36133 -1.74682,-0.36133 -0.75318,0 -1.31593,0.006 -1.79933,0.0696 l -0.0183,0.22949 0.32837,0.0366 c 0.40771,0.0342 0.42602,0.19775 0.42602,0.97169 l 0,3.35205 c 0,0.95825 -0.0183,1.06567 -0.54565,1.13769 l -0.19044,0.0281 0.0195,0.22584 c 0.39795,-0.0159 0.72631,-0.0244 1.1084,-0.0244 0.36133,0 0.66284,0.009 1.18164,0.0244 l 0.0183,-0.22584 -0.2478,-0.0281 c -0.57984,-0.0635 -0.59815,-0.17944 -0.59815,-1.13769 l 0,-4.0503 c 0,-0.29296 0.007,-0.32959 0.49073,-0.32959 0.94482,0 1.4624,0.57373 1.4624,1.45508"
       style="fill:#1d191a;fill-opacity:1;fill-rule:nonzero;stroke:none"
       id="path383"
       inkscape:connector-curvature="0" />
    <path
       d="m 266.18923,472.64809 c 0.0293,0.14649 -0.0281,0.32104 -0.15625,0.64819 l -0.92651,2.45606 c -0.37965,1.01806 -0.63599,1.60644 -0.79835,2.02636 -0.12939,0.32472 -0.32715,0.42725 -0.54688,0.44312 l -0.29785,0.0281 0.0171,0.22584 c 0.24415,-0.009 0.57374,-0.0256 0.87402,-0.0256 0.42603,0.01 0.70802,0.01 0.94483,0.0256 l 0.0171,-0.22584 -0.30029,-0.0281 c -0.21851,-0.0159 -0.26368,-0.072 -0.26368,-0.17944 0,-0.1001 0.0647,-0.34546 0.19898,-0.7544 l 0.31982,-0.95459 c 0.0635,-0.19042 0.11963,-0.21972 0.34547,-0.21972 l 1.37206,0 c 0.27344,0 0.31006,0.0293 0.37354,0.22582 l 0.39917,1.23901 c 0.0732,0.21608 0.11719,0.37964 0.11719,0.47974 0,0.0916 -0.12574,0.14771 -0.3186,0.16358 l -0.26124,0.0281 0.0171,0.22584 c 0.26611,-0.009 0.60914,-0.0256 1.04736,-0.0256 0.40894,0 0.7251,0.01 1.09986,0.0256 l 0,-0.22584 -0.24781,-0.0281 c -0.3894,-0.0427 -0.50902,-0.17944 -0.77147,-0.96069 l -1.24513,-3.65479 c -0.13671,-0.40039 -0.28076,-0.82031 -0.39916,-1.21949 l -0.13794,-0.0818 c -0.1001,0.11963 -0.25391,0.27955 -0.47241,0.34302 m 0.1831,0.76783 c 0.0537,0.1062 0.1355,0.354 0.20874,0.57372 l 0.4895,1.47949 c 0.083,0.24292 0.0635,0.28321 -0.20142,0.28321 l -1.11572,0 c -0.2539,0 -0.26245,-0.0122 -0.19043,-0.21972 l 0.57252,-1.58327 c 0.1001,-0.27221 0.19042,-0.4895 0.21728,-0.53343 l 0.0195,0 z"
       style="fill:#1d191a;fill-opacity:1;fill-rule:nonzero;stroke:none"
       id="path385"
       inkscape:connector-curvature="0" />
    <path
       d="m 270.45192,473.3683 c -0.56153,0.59937 -0.81665,1.38307 -0.81665,2.15699 0,0.79834 0.29175,1.51855 0.83618,2.05933 0.70068,0.71166 1.69068,1.01196 2.77099,1.01196 0.49195,0 1.14625,-0.10865 1.6272,-0.23683 0.17456,-0.0476 0.33936,-0.0818 0.448,-0.0818 l 0.007,-0.10987 c -0.16235,-0.0647 -0.21607,-0.28197 -0.21607,-0.64575 l 0,-0.50902 c 0,-0.46388 0.007,-0.71778 0.38819,-0.76416 l 0.14648,-0.0171 -0.009,-0.22828 c -0.30151,0.0183 -0.61035,0.0281 -0.96436,0.0281 -0.53589,0 -1.03638,-0.01 -1.30005,-0.0281 l 0,0.22828 0.4004,0.0452 c 0.56273,0.0623 0.59203,0.11596 0.59203,0.88379 l 0,0.36132 c 0,0.28932 -0.0452,0.45655 -0.0903,0.52003 -0.10132,0.1538 -0.43945,0.26977 -1.00219,0.26977 -1.82863,0 -2.72706,-1.37085 -2.72706,-3.11767 0,-1.36353 0.77271,-2.61598 2.53785,-2.61598 0.92651,0 1.60888,0.30763 1.86278,1.29152 l 0.24414,-0.0305 c -0.0793,-0.54321 -0.13305,-1.01684 -0.13305,-1.31469 -0.11109,0.0159 -0.39306,-0.0464 -0.56641,-0.0842 -0.15503,-0.0354 -0.63598,-0.1355 -1.15356,-0.1355 -1.37329,0 -2.27417,0.42725 -2.8833,1.06323"
       style="fill:#1d191a;fill-opacity:1;fill-rule:nonzero;stroke:none"
       id="path387"
       inkscape:connector-curvature="0" />
    <path
       d="m 276.23439,472.64809 0.15381,0.022 c 0.21973,0.0268 0.43823,0.0903 0.56274,0.21606 0.19165,0.20996 0.20141,0.39916 0.20141,0.65551 l 0,2.62818 c 0,0.43578 0.009,1.54663 -0.1184,1.87256 -0.0439,0.10131 -0.19043,0.16357 -0.39917,0.17944 l -0.24658,0.0281 0.0195,0.22584 c 0.31739,-0.0159 0.56396,-0.0244 0.94605,-0.0244 0.33446,0 0.65307,0.009 1.06079,0.0244 l 0.0195,-0.22584 -0.28197,-0.0281 c -0.22828,-0.0159 -0.39795,-0.072 -0.46388,-0.17212 -0.14526,-0.271 -0.16356,-1.45386 -0.16356,-1.87988 l 0,-1.98243 c 0,-0.27221 0.009,-0.47974 0.0452,-0.59204 l 0.0171,0 c 0.19165,0.2002 0.81055,0.94727 1.05591,1.22682 l 2.11059,2.39867 c 0.7898,0.90333 1.05225,1.2207 1.16211,1.37451 l 0.17334,-0.0976 c -0.0281,-0.23803 -0.0281,-1.32081 -0.0281,-1.5918 l 0,-2.17285 c 0,-0.41992 -0.0183,-1.54297 0.13794,-1.875 0.0366,-0.072 0.21729,-0.1416 0.50904,-0.18798 l 0.12451,-0.022 -0.0159,-0.22339 c -0.31005,0.0159 -0.54565,0.0256 -0.93628,0.0256 -0.34546,0 -0.65551,-0.01 -1.07421,-0.0256 l -0.0171,0.22339 0.15504,0.022 c 0.36255,0.0464 0.51025,0.10008 0.56273,0.18066 0.1709,0.27344 0.18189,1.45264 0.18189,1.88232 l 0,1.9458 c 0,0.18799 0,0.33448 -0.0366,0.38208 l -0.0183,0 c -0.42602,-0.43579 -0.88012,-0.9375 -1.50023,-1.64916 l -0.88135,-0.98878 c -0.29053,-0.33569 -1.37452,-1.53686 -1.55395,-1.99829 -0.11964,0.0159 -0.271,0.0256 -0.41993,0.0256 -0.16357,0 -0.64331,0 -1.02539,-0.0256 l -0.0183,0.22339"
       style="fill:#1d191a;fill-opacity:1;fill-rule:nonzero;stroke:none"
       id="path389"
       inkscape:connector-curvature="0" />
    <path
       d="m 283.60622,472.4247 -0.0183,0.22339 0.14649,0.0207 c 0.53589,0.0635 0.55541,0.19898 0.55541,1.14503 l 0,3.27147 c 0,0.95704 -0.0464,1.09375 -0.56396,1.13648 l -0.30151,0.0281 0.0183,0.22584 c 0.53711,-0.0159 0.84716,-0.0256 1.23535,-0.0256 l 0.8191,0 c 0.81054,0 1.61865,0.01 2.43774,0.0256 0.11841,-0.24293 0.34424,-0.94483 0.40771,-1.26099 l -0.22949,-0.0635 c -0.23315,0.47118 -0.47851,0.79101 -0.64208,0.88135 -0.19898,0.10008 -0.46388,0.13548 -1.16334,0.13548 -0.80078,0 -0.99243,-0.0989 -1.10108,-0.20996 -0.14526,-0.1538 -0.17211,-0.46386 -0.17211,-0.94481 l 0,-1.28053 c 0,-0.23681 0.0268,-0.24657 0.29908,-0.24657 l 0.52856,0 c 0.35522,0 0.57129,0.01 0.69824,0.0464 0.18311,0.0464 0.24658,0.17943 0.2832,0.34545 l 0.0806,0.35401 0.23804,-0.009 c 0,-0.20141 -0.0378,-0.54444 -0.0378,-0.8728 0,-0.34303 0.0378,-0.69946 0.0378,-0.91675 l -0.23804,-0.01 -0.072,0.37352 c -0.0452,0.22706 -0.10864,0.28076 -0.21729,0.31739 -0.1123,0.0354 -0.39306,0.0537 -0.7727,0.0537 l -0.52856,0 c -0.27223,0 -0.29908,0 -0.29908,-0.25635 l 0,-1.8164 c 0,-0.34546 0,-0.36377 0.27221,-0.36377 l 0.6543,0 c 0.39917,0 0.69214,0.009 0.88257,0.0537 0.4712,0.11841 0.5542,0.43579 0.69092,0.86304 l 0.22583,-0.0171 c -0.0342,-0.39918 -0.0903,-1.05348 -0.14527,-1.20728 -0.10986,0.0269 -0.64575,0.0269 -1.22558,0.0269 l -1.71143,0 c -0.37109,0 -0.67992,-0.011 -1.07177,-0.0269"
       style="fill:#1d191a;fill-opacity:1;fill-rule:nonzero;stroke:none"
       id="path391"
       inkscape:connector-curvature="0" />
    <path
       d="m 294.20558,470.40565 -1.56616,3.84278 c -0.64698,1.5918 -1.07667,2.51831 -1.35254,3.17139 -0.21484,0.51513 -0.55298,0.66895 -0.92163,0.69823 l -0.50903,0.0427 0.033,0.35767 c 0.41504,-0.0146 0.96679,-0.0452 1.4746,-0.0452 0.72144,0.0147 1.19751,0.0147 1.5979,0.0452 0.13672,-0.0561 0.13672,-0.28687 0.0317,-0.35767 l -0.51026,-0.0427 c -0.36622,-0.0293 -0.44312,-0.11352 -0.44312,-0.2832 0,-0.15625 0.1062,-0.54077 0.33814,-1.18163 l 0.53711,-1.4978 c 0.10864,-0.29664 0.20142,-0.33814 0.58472,-0.33814 l 2.32177,0 c 0.4602,0 0.52246,0.0415 0.6311,0.354 l 0.67628,1.93847 c 0.12085,0.33814 0.19897,0.59449 0.19897,0.75318 0,0.1416 -0.21362,0.22584 -0.53955,0.25512 l -0.44434,0.0427 c -0.10986,0.0708 -0.0915,0.30152 0.0293,0.35767 0.448,-0.0146 1.03149,-0.0452 1.76758,-0.0452 0.69214,0 1.23169,0.0147 1.86157,0.0452 l 0,-0.35767 -0.41503,-0.0427 c -0.66285,-0.0684 -0.86304,-0.2832 -1.30617,-1.51 l -2.10815,-5.72022 c -0.22827,-0.62744 -0.47363,-1.28051 -0.67261,-1.90551 l -0.23192,-0.12818 c -0.16847,0.18433 -0.42969,0.44068 -0.802,0.54078 0.0488,0.22705 -0.0427,0.49682 -0.26124,1.01073 m 0.56885,0.18555 c 0.0928,0.16847 0.23071,0.55298 0.354,0.896 l 0.83009,2.31812 c 0.14037,0.38452 0.10741,0.44311 -0.33814,0.44311 l -1.88965,0 c -0.43091,0 -0.44556,-0.0146 -0.32349,-0.34301 l 0.97046,-2.47437 c 0.16724,-0.42725 0.32104,-0.77027 0.36865,-0.83985 l 0.0281,0 z"
       style="fill:#1d191a;fill-opacity:1;fill-rule:nonzero;stroke:none"
       id="path393"
       inkscape:connector-curvature="0" />
    <path
       d="m 301.05494,472.71645 0.31495,0.0342 c 0.40528,0.0464 0.43213,0.2002 0.43213,1.07055 l 0,3.2837 c 0,0.95825 -0.0171,1.08032 -0.59083,1.14257 l -0.24535,0.0232 0.0171,0.23438 c 0.46386,-0.022 0.81909,-0.0317 1.23656,-0.0317 0.39551,0 0.72755,0.01 1.17676,0.0317 l 0.0159,-0.23438 -0.20753,-0.0232 c -0.57372,-0.0745 -0.5896,-0.18432 -0.5896,-1.14257 l 0,-1.15235 c 0,-0.19286 0.0159,-0.20019 0.46387,-0.20019 0.39185,0 0.55053,0.0891 0.69947,0.2893 0.30518,0.4126 0.71166,1.04249 0.96801,1.38306 0.70069,0.92407 1.20605,1.14868 2.04345,1.14868 0.188,0 0.34669,-0.0159 0.4358,-0.0464 l -0.0122,-0.12572 c -0.26611,-0.0183 -0.51269,-0.11842 -0.68115,-0.25392 -0.67139,-0.52246 -1.19385,-1.25243 -1.98364,-2.4353 l -0.05,-0.21606 c 0.49317,-0.18432 1.23413,-0.6604 1.23413,-1.5271 0,-0.64209 -0.34546,-1.05225 -0.81788,-1.28174 -0.45653,-0.22705 -1.03881,-0.27222 -1.6516,-0.27222 -0.96558,0 -1.64673,0.0256 -2.19971,0.072 l -0.009,0.2295 m 3.78053,1.38672 c 0,0.62256 -0.2295,0.94238 -0.49439,1.13647 -0.28686,0.2002 -0.66406,0.24048 -1.01929,0.24048 -0.49926,0 -0.64819,-0.022 -0.67871,-0.0488 -0.0281,-0.0354 -0.0281,-0.13916 -0.0281,-0.30151 l 0,-2.13868 c 0,-0.25635 0.0281,-0.29418 0.64088,-0.29418 1.09375,0 1.57959,0.68603 1.57959,1.40625"
       style="fill:#1d191a;fill-opacity:1;fill-rule:nonzero;stroke:none"
       id="path395"
       inkscape:connector-curvature="0" />
    <path
       d="m 307.9861,472.71645 0.21728,0.0268 c 0.41505,0.0537 0.46142,0.2478 0.46142,0.88623 l 0,3.47535 c 0,0.95825 -0.0183,1.06811 -0.59203,1.14257 l -0.22583,0.0232 0.0183,0.23316 c 0.46387,-0.0208 0.82153,-0.0305 1.23413,-0.0305 0.34667,0 0.979,0.0757 1.61011,0.0757 0.75928,0 1.57104,-0.11963 2.20948,-0.43945 1.1267,-0.56885 1.72851,-1.56494 1.72851,-2.72339 0,-1.20728 -0.67018,-2.24976 -2.00318,-2.69898 -0.64208,-0.21851 -1.344,-0.27222 -2.17407,-0.27222 -0.83984,0 -1.63574,0.0256 -2.4768,0.072 l -0.007,0.2295 m 5.67505,2.68554 c 0,1.70289 -0.85937,2.86134 -2.77343,2.86134 -0.62257,0 -0.99854,-0.0903 -1.2146,-0.37476 -0.16603,-0.21729 -0.19898,-0.51148 -0.19898,-0.99365 l 0,-3.37403 c 0,-0.41381 0.0195,-0.63965 0.10009,-0.6958 0.0793,-0.0549 0.39674,-0.12817 0.97901,-0.12817 2.58545,0 3.10791,1.70288 3.10791,2.70507"
       style="fill:#1d191a;fill-opacity:1;fill-rule:nonzero;stroke:none"
       id="path397"
       inkscape:connector-curvature="0" />
    <path
       d="m 316.11964,472.41493 -0.0195,0.2295 0.15625,0.0159 c 0.58348,0.0647 0.60425,0.2002 0.60425,1.15113 l 0,3.29346 c 0,0.95947 -0.0488,1.09619 -0.6128,1.14257 l -0.3247,0.0244 0.0183,0.23193 c 0.5835,-0.0208 0.9192,-0.0305 1.344,-0.0305 l 0.88867,0 c 0.8789,0 1.75781,0.01 2.64648,0.0305 0.12573,-0.24902 0.37353,-0.95337 0.44067,-1.27197 l -0.24414,-0.0647 c -0.25878,0.47486 -0.5249,0.79467 -0.70312,0.88624 -0.21606,0.10131 -0.50293,0.13793 -1.26099,0.13793 -0.87036,0 -1.07787,-0.1001 -1.19385,-0.20996 -0.16112,-0.15381 -0.1892,-0.46631 -0.1892,-0.95092 l 0,-1.29029 c 0,-0.23804 0.0281,-0.24414 0.3247,-0.24414 l 0.57374,0 c 0.38451,0 0.62011,0.006 0.75684,0.0439 0.20141,0.0464 0.26855,0.18311 0.30883,0.3479 l 0.0903,0.35522 0.25391,-0.011 c 0,-0.19898 -0.0366,-0.54566 -0.0366,-0.87403 0,-0.3479 0.0366,-0.70435 0.0366,-0.92407 l -0.25391,-0.011 -0.0818,0.3772 c -0.0488,0.22949 -0.11596,0.28443 -0.23437,0.31983 -0.11963,0.0354 -0.42725,0.0562 -0.83984,0.0562 l -0.57374,0 c -0.29662,0 -0.3247,0 -0.3247,-0.25635 l 0,-1.83105 c 0,-0.34547 0,-0.36378 0.29419,-0.36378 l 0.71289,0 c 0.43457,0 0.74951,0.01 0.95703,0.0562 0.51269,0.11598 0.6018,0.43701 0.75073,0.86549 l 0.24659,-0.0171 c -0.0391,-0.40526 -0.1001,-1.06079 -0.1587,-1.2146 -0.11597,0.0269 -0.7019,0.0269 -1.333,0.0269 l -1.85425,0 c -0.4065,0 -0.73975,-0.011 -1.16578,-0.0269"
       style="fill:#1d191a;fill-opacity:1;fill-rule:nonzero;stroke:none"
       id="path399"
       inkscape:connector-curvature="0" />
    <path
       d="m 322.10109,472.6432 0.1709,0.0183 c 0.23438,0.0256 0.47241,0.0891 0.61035,0.21972 0.20751,0.20753 0.2185,0.39918 0.2185,0.65553 l 0,2.6416 c 0,0.44067 0.01,1.55638 -0.13061,1.88476 -0.0488,0.0976 -0.20508,0.16601 -0.43335,0.18432 l -0.26489,0.0232 0.0195,0.23316 c 0.34423,-0.0208 0.61157,-0.0305 1.02661,-0.0305 0.36621,0 0.70922,0.01 1.15356,0.0305 l 0.0195,-0.23316 -0.30763,-0.0232 c -0.24413,-0.0183 -0.43212,-0.0745 -0.49926,-0.177 -0.15869,-0.27343 -0.17944,-1.4624 -0.17944,-1.89208 l 0,-1.99098 c 0,-0.27221 0.011,-0.48217 0.0488,-0.59447 l 0.0195,0 c 0.20997,0.20018 0.88013,0.95215 1.14747,1.23291 l 2.28882,2.41576 c 0.85815,0.90576 1.14501,1.22315 1.26464,1.3794 l 0.188,-0.1001 c -0.0305,-0.23681 -0.0305,-1.32446 -0.0305,-1.60279 l 0,-2.18261 c 0,-0.41992 -0.0183,-1.55029 0.14772,-1.88232 0.0391,-0.072 0.23558,-0.14893 0.55297,-0.19165 l 0.13671,-0.0183 -0.0171,-0.22827 c -0.33935,0.0159 -0.59327,0.0256 -1.01807,0.0256 -0.37597,0 -0.71288,-0.01 -1.16333,-0.0256 l -0.0207,0.22827 0.16723,0.0183 c 0.39429,0.0427 0.55298,0.0989 0.61158,0.18188 0.18799,0.27344 0.19531,1.4624 0.19531,1.89209 l 0,1.95923 c 0,0.19165 0,0.3357 -0.0391,0.38208 l -0.0195,0 c -0.46142,-0.43823 -0.9558,-0.94238 -1.62719,-1.65283 l -0.95825,-1.00098 c -0.31495,-0.33569 -1.49048,-1.54175 -1.68701,-2.00806 -0.12817,0.0159 -0.29786,0.0256 -0.45655,0.0256 -0.17456,0 -0.69946,0 -1.1145,-0.0256 l -0.0208,0.22827"
       style="fill:#1d191a;fill-opacity:1;fill-rule:nonzero;stroke:none"
       id="path401"
       inkscape:connector-curvature="0" />
    <path
       d="m 330.32619,472.6432 0.16968,0.0183 c 0.23315,0.0256 0.47485,0.0891 0.60912,0.21972 0.20753,0.20753 0.21851,0.39918 0.21851,0.65553 l 0,2.6416 c 0,0.44067 0.011,1.55638 -0.13061,1.88476 -0.0464,0.0976 -0.20509,0.16601 -0.43214,0.18432 l -0.26488,0.0232 0.0183,0.23316 c 0.34545,-0.0208 0.61279,-0.0305 1.02661,-0.0305 0.36743,0 0.71166,0.01 1.156,0.0305 l 0.0195,-0.23316 -0.30763,-0.0232 c -0.24536,-0.0183 -0.43456,-0.0745 -0.50048,-0.177 -0.15992,-0.27343 -0.18067,-1.4624 -0.18067,-1.89208 l 0,-1.99098 c 0,-0.27221 0.011,-0.48217 0.0488,-0.59447 l 0.0232,0 c 0.20507,0.20018 0.87646,0.95215 1.14501,1.23291 l 2.29004,2.41576 c 0.85816,0.90576 1.14502,1.22315 1.26221,1.3794 l 0.19043,-0.1001 c -0.0317,-0.23681 -0.0317,-1.32446 -0.0317,-1.60279 l 0,-2.18261 c 0,-0.41992 -0.0195,-1.55029 0.14771,-1.88232 0.0403,-0.072 0.23681,-0.14893 0.55175,-0.19165 l 0.13916,-0.0183 -0.0183,-0.22827 c -0.33812,0.0159 -0.59447,0.0256 -1.01929,0.0256 -0.37352,0 -0.71288,-0.01 -1.16088,-0.0256 l -0.0232,0.22827 0.16967,0.0183 c 0.39185,0.0427 0.55054,0.0989 0.61158,0.18188 0.18555,0.27344 0.19531,1.4624 0.19531,1.89209 l 0,1.95923 c 0,0.19165 0,0.3357 -0.0391,0.38208 l -0.0195,0 c -0.46386,-0.43823 -0.95581,-0.94238 -1.62597,-1.65283 l -0.95948,-1.00098 c -0.31737,-0.33569 -1.49291,-1.54175 -1.68701,-2.00806 -0.12818,0.0159 -0.29785,0.0256 -0.45654,0.0256 -0.177,0 -0.70069,0 -1.1145,-0.0256 l -0.0208,0.22827"
       style="fill:#1d191a;fill-opacity:1;fill-rule:nonzero;stroke:none"
       id="path403"
       inkscape:connector-curvature="0" />
    <path
       d="m 338.82717,472.41493 -0.0195,0.2295 0.15625,0.0159 c 0.5835,0.0647 0.60425,0.2002 0.60425,1.15113 l 0,3.29346 c 0,0.95947 -0.0488,1.09619 -0.61279,1.14257 l -0.32471,0.0244 0.0183,0.23193 c 0.5835,-0.0208 0.91919,-0.0305 1.34399,-0.0305 l 0.88867,0 c 0.87892,0 1.75294,0.01 2.64649,0.0305 0.12574,-0.24902 0.37598,-0.95337 0.44311,-1.27197 l -0.24902,-0.0647 c -0.25146,0.47486 -0.52001,0.79467 -0.70068,0.88624 -0.21362,0.10131 -0.50293,0.13793 -1.26098,0.13793 -0.87037,0 -1.07789,-0.1001 -1.19385,-0.20996 -0.15869,-0.15381 -0.18922,-0.46631 -0.18922,-0.95092 l 0,-1.29029 c 0,-0.23804 0.0305,-0.24414 0.32472,-0.24414 l 0.57128,0 c 0.3894,0 0.62257,0.006 0.76172,0.0439 0.19897,0.0464 0.26611,0.18311 0.3064,0.3479 l 0.0903,0.35522 0.25757,-0.011 c 0,-0.19898 -0.0403,-0.54566 -0.0403,-0.87403 0,-0.3479 0.0403,-0.70435 0.0403,-0.92407 l -0.25757,-0.011 -0.0818,0.3772 c -0.0488,0.22949 -0.11598,0.28443 -0.23438,0.31983 -0.11964,0.0354 -0.42481,0.0562 -0.84229,0.0562 l -0.57128,0 c -0.29419,0 -0.32472,0 -0.32472,-0.25635 l 0,-1.83105 c 0,-0.34547 0,-0.36378 0.29664,-0.36378 l 0.70923,0 c 0.43823,0 0.75195,0.01 0.95825,0.0562 0.5127,0.11598 0.60181,0.43701 0.75073,0.86549 l 0.24658,-0.0171 c -0.0391,-0.40526 -0.1001,-1.06079 -0.15869,-1.2146 -0.11841,0.0269 -0.69702,0.0269 -1.33301,0.0269 l -1.85425,0 c -0.40649,0 -0.73974,-0.011 -1.16576,-0.0269"
       style="fill:#1d191a;fill-opacity:1;fill-rule:nonzero;stroke:none"
       id="path405"
       inkscape:connector-curvature="0" />
    <path
       d="m 286.91685,376.97429 -0.0293,-0.0159 -6.60522,-6.92139 c -9.37378,-9.37255 -24.57642,-9.37743 -33.95508,-0.01 -9.37744,9.37256 -9.83643,25.02564 -0.45777,34.39209 l 2.2815,2.41089 0,0.0208 2.03492,2.12891 1.97021,2.08374 0.007,-0.011 28.31299,29.66552 c 2.76123,3.23365 4.54834,4.04542 6.90674,3.9502 0.13427,0.0415 0.83007,0.0207 2.06299,-0.66283 0.14282,-0.0647 0.27832,-0.1355 0.41503,-0.21119 1.09132,-0.59814 2.08619,-1.45141 2.97364,-2.40966 1.11206,-1.04982 2.43896,-2.44629 3.99658,-4.26759 l 4.11621,-4.89258 2.8125,-3.34472 0.15869,-0.19043 -32.03979,-31.71265 -3.31788,-3.28125 7.92359,-9.03442 c 1.55884,-1.79078 2.8894,-3.16406 4.00024,-4.19068 0.99854,-1.06322 2.13501,-1.99585 3.38501,-2.5769 1.23658,-0.67382 1.93115,-0.6958 2.06788,-0.65307 0.32958,-0.0134 0.65185,-0.005 0.97167,0.0232 l 0.0244,0.002 c 1.95802,0.17088 3.77443,1.17308 5.90333,3.85497 l 24.21997,25.99854 3.79028,3.74755 6.27076,-6.85913 c 9.37988,-9.37011 9.38231,-24.56908 0.01,-33.94408 -9.36646,-9.375 -24.57642,-9.38112 -33.54003,-0.0159 l -6.67115,6.92628"
       style="fill:#fcc61b;fill-opacity:1;fill-rule:nonzero;stroke:none"
       id="path407"
       inkscape:connector-curvature="0" />
    <path
       d="m 283.81129,378.1913 c -1.25,0.58105 -2.38525,1.51368 -3.38501,2.57813 -1.11205,1.02539 -2.4414,2.39867 -3.99901,4.18945 l -7.92482,9.03565 3.31665,3.28125 32.0398,31.71142 -0.15868,0.19043 -2.8125,3.34472 -4.11622,4.89258 c -1.55762,1.8213 -2.88208,3.21777 -3.99415,4.26759 -0.88866,0.95947 -1.88476,1.8103 -2.97485,2.40966 -0.1355,0.0745 -0.27343,0.14649 -0.41503,0.2124 -1.23169,0.6836 -1.92872,0.70312 -2.06177,0.66162 -2.3584,0.0952 -4.14795,-0.71655 -6.90918,-3.9502 l -28.31055,-29.66673 -0.009,0.011 -6.08643,6.5918 c -9.37622,9.28345 -9.38355,24.34204 -0.007,33.62794 9.36767,9.2871 24.57764,9.29565 33.95507,0.0171 l 6.86647,-6.521 5.99975,6.47217 c 9.37133,9.28344 24.5813,9.28589 33.95873,0.004 9.375,-9.27856 9.38355,-24.34204 0.006,-33.62182 l -9.79003,-10.51269 -24.21997,-25.99854 c -2.12891,-2.68066 -3.94531,-3.68409 -5.90576,-3.85497 l -0.022,-0.002 c -0.31983,-0.0269 -0.64332,-0.0366 -0.97413,-0.022 -0.1355,-0.0452 -0.8313,-0.022 -2.06665,0.65186"
       style="fill:#34b75d;fill-opacity:1;fill-rule:nonzero;stroke:none"
       id="path409"
       inkscape:connector-curvature="0" />
  </g>
</svg>
